<svg id="Assets" xmlns="http://www.w3.org/2000/svg" viewBox="0 0 800 800"><defs><style>.cls-1{fill:#edf8fb;}.cls-2{fill:#d5edf7;}.cls-3{fill:#c3dbe6;}.cls-4{fill:#d8ecf4;}.cls-5{fill:#c1dae3;}.cls-6{fill:#f6fdfd;}.cls-7{fill:#a5d2e3;}.cls-8{fill:#ffbeac;}.cls-9{fill:#ffa28c;}.cls-10{fill:#c65b24;}.cls-11{opacity:0.59;}.cls-12{fill:#fafbfc;}</style></defs><g id="Forma_3863_copia" data-name="Forma 3863 copia"><path class="cls-1" d="M718.53,674.42l-.12.17C718.46,674.61,718.5,674.55,718.53,674.42Zm-636.94.17-.12-.17C81.5,674.55,81.54,674.61,81.59,674.59Zm625.46-92.24C722.34,586,731.78,605,731.78,605c-15.9-105.5-125.43-55.12-125.43-55.12-5,40.15-51.59,39.93-51.59,39.93H245.24s-46.6.22-51.59-39.93c0,0-109.53-50.38-125.43,55.12,0,0,9.44-18.94,24.73-22.61.09-.05-52.67,35.28-11.48,92.07-.4-1.7.75-15.93,10.07-25.65,0,0-37.56,69.49,121.19,117.66,0,0-17.61-16-17.66-31.44,0,0,45.16,65,204.93,65s204.93-65,204.93-65c0,15.4-17.66,31.44-17.66,31.44C746,718.26,708.46,648.77,708.46,648.77c9.32,9.72,10.47,24,10.07,25.65C759.72,617.63,707,582.3,707.05,582.35Z"/></g><g id="Forma_3863_copia_3" data-name="Forma 3863 copia 3"><path class="cls-2" d="M718.53,674.42l-.12.17C718.46,674.61,718.5,674.55,718.53,674.42Zm-11.48-92.07C722.34,586,731.78,605,731.78,605c-6.51-43.16-28.68-60.23-52.62-65.33,7.64,4.41,14.8,9.8,19.76,16.22-3.46-1.29-43.7-7.55-70,9.89,0,0,53.42,7.15,75.61,38.16,0,0-30.05-14.57-63.24-9.54,0,0,27.55,17.79,27.2,47.35s-20.14,54.76-20.14,54.76-3.91-26.32-35.68-38.16c0,0-28.84,112.47-206.7,113.06v-.7l-3.71.44-3.71-.44v.7c-177.86-.59-206.7-113.06-206.7-113.06-31.78,11.84-35.69,38.16-35.69,38.16s-19.79-25.2-20.14-54.76,27.21-47.35,27.21-47.35c-33.19-5-63.25,9.54-63.25,9.54,22.2-31,75.61-38.16,75.61-38.16-26.26-17.44-66.5-11.18-70-9.89,5.38-7,13.36-12.72,21.73-17.33-26.34,3.32-52.08,19.36-59.18,66.44,0,0,9.44-18.94,24.73-22.61.09-.05-52.67,35.28-11.48,92.07-.4-1.7.75-15.93,10.07-25.65,0,0-37.56,69.49,121.19,117.66,0,0-17.61-16-17.66-31.44,0,0,45.16,65,204.93,65s204.93-65,204.93-65c0,15.4-17.66,31.44-17.66,31.44C746,718.26,708.46,648.77,708.46,648.77c9.32,9.72,10.47,24,10.07,25.65C759.72,617.63,707,582.3,707.05,582.35ZM81.59,674.59l-.12-.17C81.5,674.55,81.54,674.61,81.59,674.59Z"/></g><g id="Forma_3865_copia" data-name="Forma 3865 copia"><path class="cls-3" d="M718.53,674.42l-.12.17C718.46,674.61,718.5,674.55,718.53,674.42Zm-11.48-92.07C722.34,586,731.78,605,731.78,605c-4.33-28.74-15.62-45.91-29.74-55.69a74.11,74.11,0,0,1,11.37,25c-4.24-3.49-10.39-14.07-67.49-9.89,0,0,78.57,11.64,72.43,67.84,0,0-17.4-29.2-55.47-29.68,0,0,75.73,66-38.16,130,0,0,10.36-17.71-11-47,0,0-45.72,102.11-215.89,102.81C227.71,787.63,182,685.52,182,685.52c-21.31,29.28-11,47-11,47-88.93-68.74-32.86-129.32-32.86-129.32-38.07.49-60.77,29-60.77,29,.8-53.22,83.74-67.84,83.74-67.84-57.1-4.18-73.16,6.22-78.8,9.89A71.09,71.09,0,0,1,89,556.92c-9.85,10.32-17.43,25.68-20.8,48,0,0,9.44-18.94,24.73-22.61.09-.05-52.67,35.28-11.48,92.07-.4-1.7.75-15.93,10.07-25.65,0,0-37.56,69.49,121.19,117.66,0,0-17.61-16-17.66-31.44,0,0,45.16,65,204.93,65s204.93-65,204.93-65c0,15.4-17.66,31.44-17.66,31.44C746,718.26,708.46,648.77,708.46,648.77c9.32,9.72,10.47,24,10.07,25.65C759.72,617.63,707,582.3,707.05,582.35ZM81.59,674.59l-.12-.17C81.5,674.55,81.54,674.61,81.59,674.59Z"/></g><g id="Forma_3850" data-name="Forma 3850"><path class="cls-4" d="M352.65,560.44s-31.65-8.75-61.12-5-77.6,30.88-86.92,0c-3.26-10.78,12.72-16.6,12.72-16.6s-35.78-5.39-36,28.62c-.23,28.07,27.7,31.45,46.32,28.41,6-1.32,10.21-2.62,10.21-2.62a54,54,0,0,1-10.21,2.62c-12.13,2.69-31.35,5.49-36.43-2.27,0,0,11.58,68.34,94.69,39.58,0,0-9.76,10.33-28.62,13.78,0,0,67.8,35.64,143.1-54.77Z"/></g><g id="Forma_3852" data-name="Forma 3852"><path class="cls-5" d="M391.46,586.31c-1.91,2.23-3.47,4.07-3.83,4.52C343.7,646.45,288,642.77,288,642.77c12.26-5.51,21.56-22.26,21.56-22.26-70.17,24.4-97.17-12-97.17-12,33.64-6,43.46-28.26,43.46-28.26-28.91,14.23-62.86,15.47-67.49-9.9-3.42-18.79,14.7-28.16,24.33-31.75-9.69-.12-31.19,2.59-31.39,28.93-.23,28.07,27.7,31.45,46.32,28.41,6-1.32,10.21-2.62,10.21-2.62a54,54,0,0,1-10.21,2.62c-12.13,2.69-31.35,5.49-36.43-2.27,0,0,11.58,68.34,94.69,39.58,0,0-9.76,10.33-28.62,13.78,0,0,67.58,35.52,142.74-54.33V592Z"/></g><g id="Forma_3852-2" data-name="Forma 3852"><path class="cls-6" d="M192.59,566.09s-2.25,9.35,4.24,14.14c10.22,7.53,22.26,1.41,22.26,1.41C198.17,582.12,192.59,566.09,192.59,566.09Z"/></g><g id="Forma_3861_copia" data-name="Forma 3861 copia"><path class="cls-7" d="M352.65,560.44s-2.22-.61-6-1.45c-8.92,2.51-15.17,5.64-17.29,9.58,0,0-1.09,15.47,18,14.13,1.57-.31,13.58,18.62,41.41,22.55,3.84-4,7.71-8.34,11.59-13Z"/></g><g id="Forma_3850-2" data-name="Forma 3850"><path class="cls-4" d="M615.53,567.51c-.26-34-36-28.62-36-28.62s16,5.82,12.72,16.6c-9.32,30.88-57.44,3.81-86.92,0s-61.12,5-61.12,5l-47.7,31.8c75.3,90.41,143.1,54.77,143.1,54.77C520.71,643.56,511,633.23,511,633.23c83.11,28.76,94.69-39.58,94.69-39.58-5.08,7.76-24.3,5-36.43,2.27A54,54,0,0,1,559,593.3s4.25,1.3,10.21,2.62C587.83,599,615.76,595.58,615.53,567.51Z"/></g><g id="Forma_3852-3" data-name="Forma 3852"><path class="cls-5" d="M615.53,567.51c-.2-26.34-21.7-29-31.39-28.93,9.63,3.59,27.75,13,24.33,31.75-4.63,25.37-38.58,24.13-67.49,9.9,0,0,9.82,22.21,43.46,28.26,0,0-27,36.42-97.17,12,0,0,9.3,16.75,21.56,22.26,0,0-55.71,3.68-99.64-51.94-.36-.45-1.92-2.29-3.83-4.52L396.82,592v.68C472,682.53,539.57,647,539.57,647,520.71,643.56,511,633.23,511,633.23c83.11,28.76,94.69-39.58,94.69-39.58-5.08,7.76-24.3,5-36.43,2.27A54,54,0,0,1,559,593.3s4.25,1.3,10.21,2.62C587.83,599,615.76,595.58,615.53,567.51Z"/></g><g id="Forma_3861" data-name="Forma 3861"><path class="cls-7" d="M502,555.12c-28.48-2.78-57.79,5.32-57.79,5.32l-47.7,31.8q5.92,7.11,11.78,13.21c15.33-1.68,34-7.68,56.41-21,0,0,17.26,11.83,32.51-12C497.17,572.45,502.22,562.55,502,555.12Z"/></g><g id="Forma_3852-4" data-name="Forma 3852"><path class="cls-6" d="M604.23,566.09s-5.58,16-26.5,15.55c0,0,12,6.12,22.26-1.41C606.48,575.44,604.23,566.09,604.23,566.09Z"/></g><g id="Forma_3844_copia" data-name="Forma 3844 copia"><path class="cls-8" d="M465,530.76c-37.19-42.28-90.1-40.63-125.84,0-4,4.58-34.8,13.54-14.87,41.69,7.31,10.33,25.75,2.83,25.75,2.83s19,23.49,51.49,24c34.66,0,52.59-24,52.59-24s18.44,7.5,25.75-2.83C499.84,544.3,469.08,535.34,465,530.76Z"/></g><g id="Forma_3847" data-name="Forma 3847"><path class="cls-9" d="M400.71,577.05c-49.7,0-60.07-40.28-60.07-40.28s-1.62,27.91,9.44,38.51c3.23,3.1,19,23.49,51.49,24a68.59,68.59,0,0,0,52-23.29c6.35-9,11.1-20.86,12.13-36.41C465.72,539.59,450.41,577.05,400.71,577.05Z"/></g><g id="Forma_3846_copia" data-name="Forma 3846 copia"><path class="cls-10" d="M331.45,568.92a4.06,4.06,0,0,0-1.76,5.65s1.54-4,4.59-3.88c0,0-.9,6.27,7.07,7.06s8.83-2.12,8.83-2.12S344,561.3,331.45,568.92Zm139.92,0c-12.51-7.62-18.72,6.71-18.72,6.71s.86,2.91,8.83,2.12,7.07-7.06,7.07-7.06c3.05-.14,4.59,3.88,4.59,3.88A4.06,4.06,0,0,0,471.37,568.92Z"/></g><g id="Forma_3848" data-name="Forma 3848" class="cls-11"><path class="cls-12" d="M321.56,553.37s6.19-12.2,15.55-14.48l-.71-2.48S321.71,542.77,321.56,553.37Zm26.15-24c23.52-21.15,49.46-25.8,49.46-25.8C366.88,504.09,347.71,529.35,347.71,529.35Z"/></g></svg>