<svg id="Assets" xmlns="http://www.w3.org/2000/svg" viewBox="0 0 800 800"><defs><style>.cls-1{fill:#a86340;}.cls-2{fill:#d88861;}.cls-3{fill:#885035;}.cls-4{fill:#c6764c;}.cls-5{opacity:0.51;}.cls-6{fill:#743f25;}.cls-7{fill:#ee9d76;}.cls-8{fill:#faca9a;}.cls-9{fill:#ecab73;}.cls-10{fill:#ffe2b7;}.cls-11{fill:#ffeec6;}</style></defs><g id="Forma_6588_copia" data-name="Forma 6588 copia"><path class="cls-1" d="M589.32,132.74c-104-74.39-273.86-72-366-11.29S113.7,269.6,111,331.37l27.24-2.66s2.78-134.53,97.65-186,257.53-48.74,324.84,4,98.89,124,106.29,186.67h26.57S693.3,207.14,589.32,132.74Z"/></g><g id="Forma_6590" data-name="Forma 6590"><path class="cls-2" d="M111,331.37l6.65.66c1.5-13.18-.46-131.58,105-201.28C289.1,86.8,337.52,83.88,396.85,76.37c-65.23-.26-128.63,15.47-173.55,45.08C131.14,182.19,113.7,269.6,111,331.37Zm459-190C520.16,103,431.41,104.51,406,105.51c-.48,0-1,0-1.41.08,62.45.27,121.78,14.15,156.19,41.1,67.31,52.73,98.89,124,106.29,186.67h.61c5.83-3.51,8-2,8-2C670.88,304.37,659.3,210.09,570.06,141.38Z"/></g><g id="Forma_6591" data-name="Forma 6591"><path class="cls-3" d="M208,153.33c-66.35,50.26-73.27,145.27-76.27,176l6.52-.63s2.78-134.53,97.65-186c43.91-23.83,102.36-36,159.14-37.05C276.66,99,228.54,137.79,208,153.33Zm381.3-20.59c-40.19-28.76-90.23-46-141.82-52.91,49.18,19.5,74.72,16,143.15,62.21,76.77,51.81,93.67,171.39,93.67,171.39s-10.48-1.22-20.12,1.49q1.77,9.31,2.85,18.44h26.57S693.3,207.14,589.32,132.74Z"/></g><g id="Forma_6591_copia" data-name="Forma 6591 copia"><path class="cls-4" d="M524.22,82.92c-78.45-35.63-193.7-30.31-256.41,0-11.21,5.42-18.48,10.69-16.61,15.94s11.49,21.17,12.62,31.89,12.11,1.95,18.6-1.33c49.77-25.13,184-31.91,227.19,0,5.85,4.32,17.46,12.05,18.6,1.33S539,104.12,540.83,98.86,535.56,88.07,524.22,82.92Z"/></g><g id="Forma_6593" data-name="Forma 6593" class="cls-5"><path class="cls-6" d="M537.72,91.08c-8.58,8.12-13.5,24.39-13.5,24.39s-2,7-11.29,4.65c-69.74-17.8-126.8-13.58-154.79-9.46,56.81-6.38,123.37-2,151.47,18.76,5.85,4.32,17.46,12.05,18.6,1.33S539,104.12,540.83,98.86C541.74,96.31,540.51,93.69,537.72,91.08Z"/></g><g id="Forma_6592" data-name="Forma 6592"><path class="cls-7" d="M411.08,58.46c-53.8-2.12-107.22,7-143.27,24.46-11.21,5.42-18.48,10.69-16.61,15.94s11.49,21.17,12.62,31.89a8,8,0,0,0,1,3.43c4-.54,10.2-5.53-6.33-37.31C258.51,96.87,305.32,61.3,411.08,58.46Z"/></g><g id="Forma_6566" data-name="Forma 6566"><path class="cls-8" d="M194.73,485.48s8.76-6,0-17.27c0,0,4.18-7-1.33-16.61,0,0,5-6.15,0-10,0,0,8.13-5.14-2-14.62,0,0,5.21-5.09-1.33-8.63,0,0,5.88-10.27-2.65-16.61,0,0,4.62-7.29-4.65-12,0,0,5.35-6.55-2.66-10,0,0,1.56-7.85-8-13.95,0,0,2.08-6.39-6-10.63,0,0-.46-11.2-8-11.29,0,0,1-22.74-13.29-13.95,0,0-5.41-11.85-11.29-4.65-3.81-.48-9.07-7.3-11.29-3.32,0,0-13.59-16.62-18.6,1.32,0,0-7.08-10.65-11.3,1.33,0,0-16.39-10-18.6,5.32,0,0-17.84-12.49-15.94,17.27,0,0-14.71-15.11-10,16.61,0,0-17.06-10.73-8,10,0,0-16.76-1.3-8,13.29,0,0-14.69,5.58-4,21.92,0,0-14.58,9-3.33,14,0,0-13.29,16.06-2,23.25,0,0-10.21,11.54-1.33,17.27,0,0-7.77,12.69.67,17.94,0,0-8.16,17.26,3.32,17.27,0,0-7.59,17.88,6,19.93,0,0-3.74,18.53,9.3,17.27,0,0-3.78,21.94,7.3,17.93,0,0-.26,14.93,10.63,8.64,0,0-.07,15.36,8.64,8.64,0,0,5.89,8.93,14,4,0,0,5.51,10,10,5.32,0,0,6.77,12.89,17.28,4.65,0,0,11.78,8.62,20.59,0,0,0,12.3,9.07,19.93-8.64,0,0,12.33,3.89,13.95-10,0,0,17.14-1.9,14.61-14.62,0,0,9.81.25,5.32-8.63,0,0,10.05-2.4,4.65-10.63,0,0,9.55-4.6,4.65-16.61,0,0,9.61-9.33,2.65-17.27C194.73,498.77,201.69,492.92,194.73,485.48Z"/></g><g id="Forma_6568" data-name="Forma 6568"><path class="cls-9" d="M190.08,447.62c6.13-2.91-3.32-10-3.32-10,6.51-.55.67-10.63.67-10.63,5.64-.89-1.33-6.64-1.33-6.64,6-.37-1.33-8-1.33-8,7.26-.86-.67-7.31-.67-7.31,7-1.87-4.65-8-4.65-8,9.23.49-.66-7.31-.66-7.31,3.26-.53-2.1-7.85-4-9.3,3.41-.42-.73-5-4-9.3,1.42-5.25-8.51-10.28-8.64-8.63,3.34,3.84,1.37,8.55,2,14.61a25.23,25.23,0,0,1,4,7.31c4.3,10.22,2.36,9.66,2.66,11.29,2.91,5.7,1.42,8.89,2,11.3,3,5.06-.19,4.51,1.33,9.3,2.38,3.08-.13,5.71,0,8,3.18,2.34,1.13,5.94-.66,8,3.93,3.17,4,9.3,4,9.3s-5.76,1.77-2.66,5.31,8.07,11.45,4.65,10-5.2,2.09-3.32,4,6.7,7.8,2,7.31-.67,6-.67,6c5.31,7.26,0,8,0,8-2.77.17-.66,6-.66,6,2.95,4.6-4,8.63-4,8.63.68,3-2.66,4.65-2.66,4.65,1.59,4.28-.57,6.44-2,10,2.49,6.24-2,8.63-2,8.63,3.06,9.87-8,8.64-8,8.64,2.77,8.45-6.65,7.31-6.65,7.31,2.23,6.24-5.31,7.31-5.31,7.31,3.15,16.53-6.78,2.81-8,.66s-4,6-4,6c-.12,11.27-9.3,4-9.3,4,0,5.36-8.63,6.65-8.63,6.65-1.58,3.44-10,3.32-10,3.32-3,3.71-8.62,2.06-10,0-2.86,2.61-3.31,1.65-7.31,0a12,12,0,0,1-10,2c6.45,7.37,9.72,5.88,11.29,6.64,1.91,4.68,9.3.67,9.3.67,5.33,4.66,11.29,0,11.29,0,4.73,4,10-2,10-2,6.6,6.51,13.28-2.66,13.28-2.66,7.7,1.73,7.38-1.85,13.29-5.32,11.89,2,10.83-5.47,12-5.31,10.94-1.48,7.63-13.92,8.63-14.61,9.54,2.62,7.31-8,7.31-8,7,3.12,4-7.3,4-7.3,8.63,1.37,2.66-10,2.66-10,8.56,1.39,1.33-5.31,1.33-5.31,6.38-2.58,1.77-6.85,2.66-10,6.68-.47,2-8.63,2-8.63,6.8-2.27,1.33-9.3,1.33-9.3,5.59,0-.67-8-.67-8,5.52-.08.67-9.3.67-9.3,4.06.37,1.28-4.12.66-8C195.59,458.87,190.67,450.91,190.08,447.62Z"/></g><g id="Forma_6569" data-name="Forma 6569"><path class="cls-10" d="M159.53,470.87c3.92-.25,6.31-7.19,3.32-8.64S155,446,159.53,443.63s2.41-10.36.66-10.63c0,0,4.09-6.63-.66-10.63,0,0,3.93-7.2-2.66-9.3,0,0,5.11-8.14-2-11.95-.16-2.71,2.22-19.33-5.32-25.25,0,0,1.5-11.31-3.32-13.28,0,0,6.92-4.64-1.33-7.31,0,0-8.93-1.81-8.63-4s-4-3.89-2-4.65,6.18-6.34-1.33-5.31c0,0,.22-4.22-6.64-4,0,0,4.5-8.89-4-8-1.52-.28-3.31-5.15-8.64-4.65,0,0,3.1-5.19-3.07-9.62-2.7.26-5.25,2.42-6.89,8.29,0,0-7.08-10.65-11.3,1.33,0,0-16.39-10-18.6,5.32,0,0-17.84-12.49-15.94,17.27,0,0-14.71-15.11-10,16.61,0,0-17.06-10.73-8,10,0,0-16.76-1.3-8,13.29,0,0-14.69,5.58-4,21.92,0,0-14.58,9-3.33,14,0,0-13.29,16.06-2,23.25,0,0-10.21,11.54-1.33,17.27,0,0-7.77,12.69.67,17.94,0,0-8.16,17.26,3.32,17.27,0,0-7.59,17.88,6,19.93,0,0-3.74,18.53,9.3,17.27l0,.1c3-3.18,5.76-6.59,8.65-8.74,0,0-1.65,18,4.65,8,.74,1.29,6.36,4.78,10-3.32,0,0,6.4,5.86,9.3,0,0,0,4.31,11.28,8,0,0,0,5.72,2.9,8,0,4.14,6.14,4.79,9.78,6,6.65,0,0,9.22,1.75,11.29-4.65a9.93,9.93,0,0,0,6-5.32s6.12,7.2,9.3-2c0,0,6.68,4.11,7.31-3.32,2.29-.21,9.89-.41,10.63-4.65,0,0,12.54-7.34,10.63-14,0,0,6.13-4.91,3.32-8,0,0,9.31-2.56,0-8,0,0,13.71-.39,8-7.3C161.52,481.5,155.6,471.12,159.53,470.87Z"/></g><g id="Forma_6570" data-name="Forma 6570"><path class="cls-11" d="M133.62,419.72c-1.22-3.68-3.68-9.8-8.64-12.62,0,0,9.65-7.84,7.31-12,1.36-3,5.78-8.37,3.32-12,0,0,1.74-15.94-6-16.61,0,0,2.67-14.52-6-11.95,0,0,2.77-16.49-10.62-8,0,0,3.24-14.47-6.65-8,0,0,.56-17.42-6.64-9.3,0,0,.8-5.7-.57-10-2.2-.86-4.78-.18-6.74,5.38,0,0-16.39-10-18.6,5.32,0,0-17.84-12.49-15.94,17.27,0,0-14.71-15.11-10,16.61,0,0-17.06-10.73-8,10,0,0-16.76-1.3-8,13.29,0,0-14.69,5.58-4,21.92,0,0-14.58,9-3.33,14,0,0-13.29,16.06-2,23.25,0,0-10.21,11.54-1.33,17.27,0,0-7.77,12.69.67,17.94,0,0-.28.58-.66,1.53,2.53,1.05,6.63.85,13.28-2.86,0,0-2.89,13.31,6,10,0,0-2.14,14.66,6,10,0,0-.44,8.67,8,4,0,0,.42,12.1,10.63,2.66,0,0,5.06,11.45,11.29,6,0,0,12.93,4.89,17.94-6.65,2.31,1.66,15.83-.85,12.62-9.3,0,0,10.59-1.95,7.3-13.28,0,0-.94-7.68,0-9.3,0,0,14.41.15,12-9.3,0,0,7.89-7.21,4.65-13.29,0,0,7.41-8.61,3.32-15.94A18.12,18.12,0,0,0,133.62,419.72Z"/></g><g id="Forma_6574" data-name="Forma 6574"><path class="cls-11" d="M90.44,514.05c7.46,15,9.79,2,6.64-2.66S87,507.17,90.44,514.05Zm51.15-90.35c-4.7.38-8.41,7-1.33,7.31C152.57,431.53,146.29,423.32,141.59,423.7Zm-17.94-73.07c13.08-5.39,3.31-7.75-1.32-4.65S117.26,353.26,123.65,350.63ZM41.84,513c-2.14,5.14-.19,8.87,3.68,3.13C53.43,504.37,44,507.81,41.84,513Zm94.32-140.69c14.89-1.67,6.41-7.58.27-6.12S130.62,372.9,136.16,372.27Zm-14.5,112.55c15,13.72,9.77-1.91,6-6S115.57,479.24,121.66,484.82Zm17.94-35.21c-6.47-.16-9.69,4.63-.67,6.64C159.69,460.9,146.07,449.77,139.6,449.61Zm-2.66-47.83c14.95.93,7.63-6.36,1.33-6S131.37,401.44,136.94,401.78Z"/></g><g id="Forma_6574_copia" data-name="Forma 6574 copia"><path class="cls-10" d="M55.39,546.33c-.37,6.7,2.8,10.81,4.65,3C63.84,533.49,55.76,539.63,55.39,546.33ZM156.33,397.67c-6.27.48-6.47,7.09-.88,7.52C170.46,406.36,162.59,397.19,156.33,397.67Zm-75,155.23c1,6.63,5,10,5.18,2C87,538.59,80.31,546.26,81.33,552.9ZM161.88,435c-4.74.38-8,7-.79,7.29C173.61,442.81,166.61,434.63,161.88,435Zm-9.43-66.93c14.75-2.1,5.84-9.54-.19-7.69S147,368.86,152.45,368.07Zm9.25,97.28c-6.48-.2-9.33,5.82-.17,8.36C182.63,479.55,168.17,465.55,161.7,465.35ZM149.08,507c16,17.27,9.62-2.39,5.52-7.52S142.57,500,149.08,507Zm-10,22.56c11.49,12.39,6.9-1.72,4-5.39S134.41,524.51,139.08,529.54ZM136.65,335c-4.4,3.9-4.51,9.16,1.68,5.85C151,334.07,141.05,331.1,136.65,335ZM117.42,546.41c8.59,18.81,9.94,2.52,6.44-3.35S113.47,537.75,117.42,546.41Z"/></g><g id="Forma_6573" data-name="Forma 6573"><path class="cls-10" d="M53.9,454.26c-3.8,8.91.5,17.67,2.66,12.62s1.93-5.93,2.66-8C62.09,450.79,57.71,445.35,53.9,454.26Zm7.31,33.21c-1.23,3.19-1.85,7.16,0,8.64s6.35-3.49,6-6.64S63,482.72,61.21,487.47ZM43.94,393.15c6,4.9,5.71-.75,4-3.33S38.68,388.87,43.94,393.15Zm24.58,64.43c-.63,16.09,5.83,7.82,5.31,3.32S68.78,450.9,68.52,457.58ZM117,438.32c-3.28-5.72-10.09,1-5.31,5.31S125,452.2,117,438.32ZM88.45,452.93c1.57,5.46,9.91,9.85,7.3-1.33C94.78,447.42,86.87,447.47,88.45,452.93ZM65.2,379.86c3.54,9,14.21,5.36,6-6S61.66,370.87,65.2,379.86Zm40.52-2c-4.13,5.78,1.6,15.07,6.64,1.32S109.84,372.08,105.72,377.87ZM81.14,492.12c1.3,7.89,5.78,4,6,0s1.41-2.89-1.33-7.3S79.84,484.24,81.14,492.12Z"/></g><g id="Forma_6566-2" data-name="Forma 6566"><path class="cls-8" d="M778.65,463.56c8.88-5.73-1.33-17.27-1.33-17.27,11.3-7.19-2-23.25-2-23.25,11.25-4.91-3.33-14-3.33-14,10.71-16.34-4-21.92-4-21.92,8.79-14.59-8-13.29-8-13.29,9.09-20.69-8-10-8-10,4.74-31.72-10-16.61-10-16.61C744,317.55,726.17,330,726.17,330c-2.21-15.35-18.6-5.32-18.6-5.32-4.22-12-11.3-1.33-11.3-1.33-5-17.94-18.6-1.32-18.6-1.32-2.22-4-7.48,2.84-11.29,3.32-5.88-7.2-11.29,4.65-11.29,4.65C640.83,321.25,641.8,344,641.8,344c-7.51.09-8,11.29-8,11.29-8.06,4.24-6,10.63-6,10.63-9.53,6.1-8,13.95-8,13.95-8,3.41-2.66,10-2.66,10-9.27,4.67-4.65,12-4.65,12-8.53,6.34-2.65,16.61-2.65,16.61-6.54,3.54-1.33,8.63-1.33,8.63-10.12,9.48-2,14.62-2,14.62-5,3.81,0,10,0,10-5.51,9.56-1.33,16.61-1.33,16.61-8.76,11.27,0,17.27,0,17.27-7,7.44,0,13.29,0,13.29-7,7.94,2.65,17.27,2.65,17.27-4.9,12,4.65,16.61,4.65,16.61-5.4,8.23,4.65,10.63,4.65,10.63-4.49,8.88,5.32,8.63,5.32,8.63-2.53,12.72,14.61,14.62,14.61,14.62,1.62,13.85,14,10,14,10,7.63,17.71,19.93,8.64,19.93,8.64,8.81,8.62,20.59,0,20.59,0,10.51,8.24,17.28-4.65,17.28-4.65,4.45,4.71,10-5.32,10-5.32,8.06,5,13.95-4,13.95-4,8.71,6.72,8.64-8.64,8.64-8.64,10.89,6.29,10.63-8.64,10.63-8.64,11.08,4,7.3-17.93,7.3-17.93,13,1.26,9.3-17.27,9.3-17.27,13.57-2.05,6-19.93,6-19.93,11.48,0,3.32-17.27,3.32-17.27C786.42,476.25,778.65,463.56,778.65,463.56Z"/></g><g id="Forma_6568-2" data-name="Forma 6568"><path class="cls-9" d="M710.89,563.87c-4,1.65-4.45,2.61-7.31,0-1.34,2.06-6.93,3.71-10,0,0,0-8.39.12-10-3.32,0,0-8.59-1.29-8.63-6.65,0,0-9.18,7.29-9.3-4,0,0-2.8-8.13-4-6s-11.12,15.87-8-.66c0,0-7.54-1.07-5.31-7.31,0,0-9.42,1.14-6.65-7.31,0,0-11,1.23-8-8.64,0,0-4.48-2.39-2-8.63-1.42-3.53-3.58-5.69-2-10,0,0-3.34-1.69-2.66-4.65,0,0-6.94-4-4-8.63,0,0,2.11-5.81-.66-6,0,0-5.31-.71,0-8,0,0,4-6.47-.67-6s.11-5.42,2-7.31.09-5.46-3.32-4,1.54-6.42,4.65-10-2.66-5.31-2.66-5.31.05-6.13,4-9.3c-1.79-2-3.84-5.63-.66-8,.13-2.26-2.38-4.89,0-8,1.52-4.79-1.7-4.24,1.33-9.3.57-2.41-.92-5.6,2-11.3.3-1.63-1.64-1.07,2.66-11.29a25.23,25.23,0,0,1,4-7.31c.63-6.06-1.34-10.77,2-14.61-.13-1.65-10.06,3.38-8.64,8.63-3.25,4.3-7.39,8.88-4,9.3-1.89,1.45-7.25,8.77-4,9.3,0,0-9.89,7.8-.66,7.31,0,0-11.68,6.1-4.65,8,0,0-7.93,6.45-.67,7.31,0,0-7.28,7.6-1.33,8,0,0-7,5.75-1.33,6.64,0,0-5.84,10.08.67,10.63,0,0-9.45,7.06-3.32,10-.59,3.29-5.51,11.25,0,11.95-.62,3.86-3.4,8.35.66,8,0,0-4.85,9.22.67,9.3,0,0-6.26,8-.67,8,0,0-5.47,7,1.33,9.3,0,0-4.69,8.16,2,8.63.89,3.12-3.72,7.39,2.66,10,0,0-7.23,6.7,1.33,5.31,0,0-6,11.34,2.66,10,0,0-3,10.42,4,7.3,0,0-2.23,10.6,7.31,8,1,.69-2.31,13.13,8.63,14.61,1.13-.16.07,7.28,12,5.31,5.91,3.47,5.59,7,13.29,5.32,0,0,6.68,9.17,13.28,2.66,0,0,5.24,6,10,2,0,0,6,4.66,11.29,0,0,0,7.39,4,9.3-.67,1.57-.76,4.84.73,11.29-6.64A12,12,0,0,1,710.89,563.87Z"/></g><g id="Forma_6569-2" data-name="Forma 6569"><path class="cls-10" d="M778.65,463.56c8.88-5.73-1.33-17.27-1.33-17.27,11.3-7.19-2-23.25-2-23.25,11.25-4.91-3.33-14-3.33-14,10.71-16.34-4-21.92-4-21.92,8.79-14.59-8-13.29-8-13.29,9.09-20.69-8-10-8-10,4.74-31.72-10-16.61-10-16.61C744,317.55,726.17,330,726.17,330c-2.21-15.35-18.6-5.32-18.6-5.32-4.22-12-11.3-1.33-11.3-1.33-1.64-5.87-4.19-8-6.89-8.29-6.17,4.43-3.07,9.62-3.07,9.62-5.33-.5-7.12,4.37-8.64,4.65-8.48-.92-4,8-4,8-6.86-.23-6.64,4-6.64,4-7.51-1-3.3,4.56-1.33,5.31s-2.29,2.48-2,4.65-8.63,4-8.63,4c-8.25,2.67-1.33,7.31-1.33,7.31-4.82,2-3.32,13.28-3.32,13.28-7.54,5.92-5.16,22.54-5.32,25.25-7.1,3.81-2,11.95-2,11.95-6.59,2.1-2.66,9.3-2.66,9.3-4.75,4-.66,10.63-.66,10.63-1.75.27-3.86,8.32.66,10.63s-.32,17.15-3.32,18.6-.6,8.39,3.32,8.64-2,10.63-2,10.63c-5.74,6.91,8,7.3,8,7.3-9.31,5.41,0,8,0,8-2.81,3.07,3.32,8,3.32,8-1.91,6.61,10.63,14,10.63,14,.74,4.24,8.34,4.44,10.63,4.65.63,7.43,7.31,3.32,7.31,3.32,3.18,9.19,9.3,2,9.3,2a9.93,9.93,0,0,0,6,5.32c2.07,6.4,11.29,4.65,11.29,4.65,1.19,3.13,1.84-.51,6-6.65,2.25,2.9,8,0,8,0,3.66,11.28,8,0,8,0,2.9,5.86,9.3,0,9.3,0,3.61,8.1,9.23,4.61,10,3.32,6.3,10,4.65-8,4.65-8,2.89,2.15,5.69,5.56,8.65,8.74l0-.1c13,1.26,9.3-17.27,9.3-17.27,13.57-2.05,6-19.93,6-19.93,11.48,0,3.32-17.27,3.32-17.27C786.42,476.25,778.65,463.56,778.65,463.56Z"/></g><g id="Forma_6570-2" data-name="Forma 6570"><path class="cls-11" d="M777.32,446.29c11.3-7.19-2-23.25-2-23.25,11.25-4.91-3.33-14-3.33-14,10.71-16.34-4-21.92-4-21.92,8.79-14.59-8-13.29-8-13.29,9.09-20.69-8-10-8-10,4.74-31.72-10-16.61-10-16.61C744,317.55,726.17,330,726.17,330c-2.21-15.35-18.6-5.32-18.6-5.32-2-5.56-4.54-6.24-6.74-5.38-1.37,4.33-.57,10-.57,10-7.2-8.12-6.64,9.3-6.64,9.3-9.89-6.5-6.65,8-6.65,8-13.39-8.51-10.62,8-10.62,8-8.65-2.57-6,11.95-6,11.95-7.72.67-6,16.61-6,16.61-2.46,3.59,2,9,3.32,12-2.34,4.12,7.31,12,7.31,12-5,2.82-7.42,8.94-8.64,12.62a18.12,18.12,0,0,0-.66,15.94C661.63,443,669,451.6,669,451.6c-3.24,6.08,4.65,13.29,4.65,13.29-2.45,9.45,12,9.3,12,9.3.94,1.62,0,9.3,0,9.3-3.29,11.33,7.3,13.28,7.3,13.28-3.21,8.45,10.31,11,12.62,9.3,5,11.54,17.94,6.65,17.94,6.65,6.23,5.47,11.29-6,11.29-6,10.21,9.44,10.63-2.66,10.63-2.66,8.41,4.69,8-4,8-4,8.12,4.69,6-10,6-10,8.87,3.35,6-10,6-10,6.65,3.71,10.75,3.91,13.28,2.86-.38-.95-.66-1.53-.66-1.53,8.44-5.25.67-17.94.67-17.94C787.53,457.83,777.32,446.29,777.32,446.29Z"/></g><g id="Forma_6574-2" data-name="Forma 6574"><path class="cls-11" d="M659.74,431c7.08-.3,3.37-6.93-1.33-7.31S647.43,431.53,659.74,431Zm2-35.21c-6.3-.38-13.62,6.91,1.33,6C668.63,401.44,668,396.19,661.73,395.8Zm-1.33,53.81c-6.47.16-20.09,11.29.67,6.64C670.09,454.24,666.87,449.45,660.4,449.61Zm3.17-83.46c-6.14-1.46-14.62,4.45.27,6.12C669.38,372.9,669.71,367.62,663.57,366.15ZM758.16,513c-2.15-5.15-11.59-8.59-3.68,3.13C758.35,521.83,760.3,518.1,758.16,513Zm-85.8-34.12c-3.79,4.07-9,19.7,6,6C684.43,479.24,676.15,474.76,672.36,478.84Zm30.56,32.55c-3.15,4.67-.82,17.61,6.64,2.66C713,507.17,706.07,506.72,702.92,511.39ZM677.67,346c-4.63-3.1-14.4-.74-1.32,4.65C682.74,353.26,682.31,349.08,677.67,346Z"/></g><g id="Forma_6574_copia-2" data-name="Forma 6574 copia"><path class="cls-10" d="M638.91,442.29c7.2-.3,4-6.91-.79-7.29S626.39,442.81,638.91,442.29Zm105.7,104c-.37-6.7-8.45-12.84-4.65,3C741.81,557.14,745,553,744.61,546.33ZM645.4,499.46c-4.1,5.13-10.5,24.79,5.52,7.52C657.43,500,649.49,494.34,645.4,499.46Zm-.85-94.27c5.59-.43,5.39-7-.88-7.52S629.54,406.36,644.55,405.19Zm3-37.12c5.49.79,6.21-5.85.19-7.69S632.8,366,647.55,368.07Zm-9.25,97.28c-6.47.2-20.93,14.2.17,8.36C647.63,471.17,644.78,465.15,638.3,465.35Zm75.19,89.57c.21,8,4.16,4.61,5.18-2S713.05,538.59,713.49,554.92Zm-37.35-11.86c-3.5,5.87-2.15,22.16,6.44,3.35C686.53,537.75,679.64,537.19,676.14,543.06ZM657,524.15c-2.94,3.67-7.53,17.78,4,5.39C665.59,524.51,659.9,520.47,657,524.15ZM663.35,335c-4.4-3.9-14.34-.93-1.68,5.85C667.86,344.16,667.75,338.9,663.35,335Z"/></g><g id="Forma_6573-2" data-name="Forma 6573"><path class="cls-10" d="M687.64,379.19c5,13.75,10.77,4.46,6.64-1.32S682.6,365.45,687.64,379.19Zm16.61,72.41c-2.61,11.18,5.73,6.79,7.3,1.33S705.22,447.42,704.25,451.6Zm10,33.22c-2.74,4.41-1.52,3.33-1.33,7.3s4.68,7.89,6,0S717,480.32,714.21,484.82ZM683,438.32c-8,13.88.54,9.61,5.31,5.31S686.27,432.6,683,438.32Zm69.09-48.5c-1.73,2.58-2.05,8.23,4,3.33C761.32,388.87,753.8,387.25,752.08,389.82ZM726.17,460.9c-.52,4.5,5.94,12.77,5.31-3.32C731.22,450.9,726.69,456.41,726.17,460.9Zm14.61-2c.73,2,.5,2.92,2.66,8s6.46-3.71,2.66-12.62S737.91,450.79,740.78,458.91Zm-8,30.56c-.37,3.15,4.13,8.12,6,6.64s1.23-5.45,0-8.64C737,482.72,733.19,486.32,732.81,489.47Zm-4-115.59c-8.24,11.34,2.43,15,6,6S737.06,362.54,728.83,373.88Z"/></g></svg>