<svg id="Assets" xmlns="http://www.w3.org/2000/svg" viewBox="0 0 800 800"><defs><style>.cls-1{fill:#e6e5e6;}.cls-2{fill:#cec3cc;}.cls-3{fill:#fff;}.cls-4{fill:#00c5ba;}.cls-5{fill:#00d6cb;}.cls-6{opacity:0.7;}.cls-7{fill:#00958b;}.cls-8{opacity:0.29;}.cls-9{fill:#00857a;}.cls-10{opacity:0.55;}.cls-11{fill:#00c2b7;}.cls-12{opacity:0.82;}.cls-13{fill:#00b0a4;}.cls-14{opacity:0.62;}.cls-15{fill:#58f4eb;}.cls-16{opacity:0.67;}</style></defs><g id="Forma_3264" data-name="Forma 3264"><path class="cls-1" d="M495.6,112.16s11.59-1.43,11.93-16.34S491.3,79.46,491.3,79.46s14.84-15.1-9.21-23.55c0,0,12.22-18.55-16.51-22.74,0,0,.17-14.87-13.25-21.72s-23.83,2.83-23.83,2.83-9-23.15-24.41-8.25c0,0-17.61-15.59-28.14,3.37,0,0-23.5-18.61-30.31,12.62,0,0-22.44-7.46-19.5,14.15,0,0-24.63,4.26-11.9,23.12,0,0-11.12,4.89-11.8,17S312,91.62,312,91.62s-17.64,20.28,9.36,27.59c0,0-8.4,27,18.87,27.69,0,0-6.41,7.21,1.62,14.59s16,2.16,16,2.16-3.76,15.57,10.37,20.94,18.9-.46,18.9-.46,4.35,14.24,17.4,17.13,13.53-6.83,13.53-6.83,14.18,21.13,26.46,1.73c0,0,28,25.24,36.82-17.35,0,0,11.27,3.49,17.68-11.4s-5.67-17.84-5.67-17.84,15-1.23,15.56-18.43S495.6,112.16,495.6,112.16Z"/></g><g id="Forma_3264_copia_2" data-name="Forma 3264 copia 2"><path class="cls-2" d="M475.82,53.46a16,16,0,0,1,6.53,2.06c1.57-2.85,6.87-14.52-7.62-20.1C483.23,42.32,475.82,53.46,475.82,53.46Zm-16.63-21.7a21.51,21.51,0,0,1,6.13,1.8c.06-5.56-2.58-16.79-13-22.11a23.76,23.76,0,0,0-2.46-1.09C460.31,17.6,459.19,31.76,459.19,31.76ZM321.25,119.39a25.83,25.83,0,0,1,.64-2.76c-4.66-1.27-12-4.47-14.31-6.34C309.05,113.13,315.75,118.52,321.25,119.39ZM489.8,108.1a15.87,15.87,0,0,1,7.57,3.62c3.26-1.09,9.9-4.67,10.16-15.9.2-8.8-5.49-12.91-10.19-14.8a14.05,14.05,0,0,1,4.23,11C501.24,106.69,489.8,108.1,489.8,108.1ZM484,78.58a44.08,44.08,0,0,1,8.35,1c4.15-5.51,8.31-15.54-6.92-22.35C495.7,65.51,484,78.58,484,78.58Zm-145.27,78.8a17.42,17.42,0,0,0,3.14,4.11c5.15,5.6,12.85,3.74,15.91,3.2.47-3.34,1.07-6.43,1.07-6.43S346.42,163.8,338.73,157.38Zm160-44.31c2.5,2.78,4.48,7.1,4.25,13.76-.59,17-15.37,18.2-15.37,18.2a10.72,10.72,0,0,1,6.05,4.51c2-.26,14.75-2.56,15.29-18.4C509.38,119.23,502.82,114.72,498.74,113.07Zm-5,36.61c1.56,2.67,2.13,6.76-.53,12.95-6.32,14.71-17.45,11.26-17.45,11.26C467,215.93,439.43,191,439.43,191c-7.5,11.85-15.71,8.39-20.89,4,2.46,3.31,15,18.53,26,1.12,0,0,28,25.24,36.82-17.35,0,0,11.27,3.49,17.68-11.4C504.81,154,495.69,150.31,493.75,149.68Zm-80.44,39.63s-.48,9.6-13.35,6.75a20.44,20.44,0,0,1-9.14-4.7c2.7,4,7.09,8.43,13.76,9.9,11.9,2.64,13.34-5.21,13.51-6.61A31.48,31.48,0,0,1,413.31,189.31Zm-49.17-9.71a17.5,17.5,0,0,1-4.72-2.63,16.17,16.17,0,0,0,8.86,7.62c9.69,3.84,15.62,2.81,19.68,0a49,49,0,0,1,1.66-8.47S378.08,184.9,364.14,179.6Zm-21.41-36.44c-6.61-.15-17.35-2.64-20.36-5.16,2,3.77,7.69,9.24,17.23,9C340.9,145.19,342.73,143.16,342.73,143.16Z"/></g><g id="Forma_3264_copia_3" data-name="Forma 3264 copia 3"><path class="cls-3" d="M302.44,76.28a15.32,15.32,0,0,0,2.73,10.16,17.2,17.2,0,0,1-.16-3.65c.65-11.62,11.33-16.32,11.33-16.32a21,21,0,0,1-3.14-6.64C310.42,61.39,303,66.46,302.44,76.28ZM452.33,11.45c-13.41-6.85-23.83,2.83-23.83,2.83s-9-23.15-24.41-8.25c0,0-17.61-15.59-28.14,3.37,0,0-23.5-18.61-30.31,12.62,0,0-22.44-7.46-19.5,14.15,0,0-22.59,3.91-13.31,20.82,0-10.15,14.94-12.73,14.94-12.73C325,23.5,346.5,30.67,346.5,30.67c6.55-30,29.13-12.13,29.13-12.13,10.11-18.22,27-3.24,27-3.24C417.47,1,426.1,23.23,426.1,23.23s10-9.3,22.91-2.72,12.72,20.86,12.72,20.86c3-2.23,3.35-7.39,3.85-8.2C465.58,33.17,465.75,18.3,452.33,11.45ZM371.41,32.93a9.71,9.71,0,0,0-5.26,6.15c-13.13-5.54-18-.31-20.33,3.84-2.19,4.56-1.82,8-1.71,8.43-9.84,10.13-12.52,15.48-11.94,20.54.45,4.7,4.17,9.1,4.21,9.21C335.08,69,338.22,63.44,341.33,60c3.17-3.32,6.3-4.61,6.42-4.27,1.41-12.17,10.75-17.75,26.28-8.63,1.13-9.64,7.13-11.5,11.62-11A14.84,14.84,0,0,1,393,39C383.57,30.35,375.6,30.88,371.41,32.93Zm68.1,22.67s-6.34-12.31-19.05-7a14.46,14.46,0,0,0-8.24,13.7s-10-2.21-13.45,9.77a94.32,94.32,0,0,1,16.47-3.26s-.57-12.09,9.42-11.67,12.46,6.68,12.46,6.68,9-5.57,22.37,6.9C459.49,70.74,454.5,52.19,439.51,55.6ZM393,39l.54.5A2.73,2.73,0,0,0,393,39Z"/></g><g id="Forma_3256_copia" data-name="Forma 3256 copia"><path class="cls-4" d="M679.88,206.57c-120-148.38-416.63-148.38-536.67,0C42,331.75,97.12,383.43,97.77,390.43c0,0,88.43-138.39,313.78-138.39C666.64,259.12,718,402.92,718,402.92,718.69,395.92,781.14,331.75,679.88,206.57Z"/></g><g id="Forma_3256_copia_3" data-name="Forma 3256 copia 3"><path class="cls-5" d="M143.21,206.57C42,331.75,97.12,383.43,97.77,390.43c0,0,5.43-8.5,17-21.28-9.78-25.85-14.4-77.23,55.48-163.62,54.18-67,144.32-103.71,238-110.23C305.18,96.08,202.59,133.16,143.21,206.57Z"/></g><g id="Forma_3261" data-name="Forma 3261" class="cls-6"><path class="cls-7" d="M679.88,206.57c-28.83-35.63-67.84-62.7-112.13-81.22C603,143.15,634,166.86,658,196.51,710.68,261.59,717.5,316.8,713.45,351c-37.37-36.71-200.62-179.76-400.25-96.51,0,0,275.11-30.29,387.54,132.49-.09.85.14,1.13.6.88l1.09,1.58,4.66-7.38c8,12.65,10.95,20.91,10.95,20.91C718.69,395.92,781.14,331.75,679.88,206.57Z"/></g><g id="Forma_3261_copia_14" data-name="Forma 3261 copia 14" class="cls-8"><path class="cls-9" d="M242.27,131.14a16.76,16.76,0,0,0,4.52-2.08Q244.53,130.08,242.27,131.14Zm70.79,63.34q6.79,4.38,14.12,9s9.14,3.93,17.59-.48.85-11.43.89-11.42q-6.89-3.66-13.36-7.14c-.05,0-7.79-7.85-18.12,1C305.9,192.38,313,194.47,313.06,194.48Zm13.61,36.33s10.72,2.07,18.17-2,.49-8.85.51-8.85q-8.85-5.41-17.06-10.57c-.07,0-12.05-4.88-18.51.85s-2.61,9.14-1,10.9C310.13,222.81,326.52,230.75,326.67,230.81ZM200.58,211.6q4,3.22,8.37,6.62s5.7,2.59,12-2.52S223.12,205,223.15,205q-4.14-2.52-8-4.92s-4-6.18-12.45,3.1C196,210.51,200.58,211.59,200.58,211.6Zm20.7-36.11A19.28,19.28,0,0,0,233.22,171c5.65-4.74,2.56-7.92,2.58-7.9q-4.12-3.42-7.67-6.59s-5.95-2.28-11.67,3.69-4.32,8.27-3.83,9.56C213,171,221.16,175.44,221.28,175.49Zm2.26-29.28c1.75,1.72,3.64,3.5,5.69,5.36,0,0,4.44,1.93,11-3.29s4.1-10.13,4.14-10.11q-3-2-5.7-3.87a2.69,2.69,0,0,0-.85-1c-3.7,1.8-7.36,3.65-11,5.58C220.1,145.68,223.53,146.2,223.54,146.21Zm-9.1,50.73s6.16,1.5,12.15-4.27,1.94-9.43,2-9.42q-4.1-2.31-7.84-4.46c-.06,0-6.46-2.83-11.09,1.78s-6.52,8.7-4,10.89S214.4,196.92,214.44,196.94Zm126.35-86.06c-.07,0,8.23,2.58,14.89-2.26,6.51-4.86.62-9.4.68-9.39l-.63-.36q-13.82,1.8-27.42,4.48c.14.12.26.24.42.36C332.14,106.36,340.72,110.85,340.79,110.88ZM324.63,124q5.53,3.91,11.67,8.09c-.05,0,7.87,3.51,15.6-.73s1.32-10.71,1.39-10.69q-5.78-3.33-11.07-6.46c-.1,0-6-7.16-15.69,1.27C318.61,122.25,324.59,124,324.63,124Zm63.25-4.88c-6.21-3.74-14.17,1.25-14.21,1.26q-4.85,2.76-9.74,5.62c-5.88,3.78-11.56,6.76-5.85,11.88s16.91-.59,16.87-.57,13.56-6.31,16.81-7.85S394.16,122.9,387.88,119.15ZM133.59,330.36c-6.79-2.53-9,6.53-17,13.82-4.58,5.47-1.55,7.55.9,9.33a7,7,0,0,0,8.55-.28,148.86,148.86,0,0,0,11-11.45C141.54,336.36,139,332.38,133.59,330.36ZM333.91,157.93c-.05,0,9.74,1.77,16.75-2.19s.86-8.38.9-8.38q-7.74-5-14.7-9.7c-.1,0-10.34-4.36-16.64,1.21s-3.22,8.68-1.94,10.3C319.35,150.7,333.73,157.85,333.91,157.93Zm-18.73,14.73c4.48,3,15.06,8.08,15.12,8.1s9.83,3,17.32-2.15.08-10.14.12-10.13q-7-3.55-13.54-6.91c-.09,0-11-4.8-16.49-.55S310.63,169.62,315.18,172.66ZM205.72,243.54s7.1.83,12.47-3.78,1.18-8.32,1.19-8.31q-5.44-4-10.4-7.9s-7.6-3.12-12.69,2.81-2.8,8.63-1.9,10.09S205.61,243.49,205.72,243.54ZM90,342.06a122.59,122.59,0,0,0,11.26,6.65s6.88,2.16,11.17-3a6.25,6.25,0,0,0-.62-9.14l-9.25-5.36s-7.67-3.74-11.49.26S86.4,339.47,90,342.06Zm.46,33.52-.26.35c2.73,5.87,5.44,9.94,6.77,12.41l1.66.86c1.36-2,4.41-6.23,9.27-12.07l-4.52-3S94.38,370.39,90.42,375.58ZM102.17,328s6.6,1,10.92-3.14.41-7.74.43-7.73q-5-3.93-9.7-7.78s-7-3.34-11.6,1.94-2.2,8-1.24,9.47S102.11,328,102.17,328Zm.75,23.91s-5.92-6.57-12.53,1.6c-5.32,6.48.21,8.12.21,8.13q5.49,3.67,11.12,7.4s6.77,3.07,11.47-1.34-.84-10.21-.82-10.2ZM361.05,117.11c5.51,3.79,12.06.76,12,.76s10.36-5.22,17.34-9.7,3.13-9-4.26-12l-.25-.09c-3,.17-6,.38-9,.62-4.09,2.3-8.19,6.92-15.4,10.79C354.48,112.56,358,115,361.05,117.11ZM126.73,355.61q-3,3.12-5.93,6.2a25.94,25.94,0,0,0-4,5.14c4.1-4.43,8.9-9.3,14.41-14.47A12.91,12.91,0,0,0,126.73,355.61ZM95.38,298.39q3.86,3.39,8,6.83a9.51,9.51,0,0,0,10.44-1.89c5.06-4.65,1.31-10.06,1.35-10q-3.64-2.52-7.08-5c-.06,0-3.64-6.09-11,2.16C91.07,297,95.37,298.39,95.38,298.39Zm96.26-39.14a102.85,102.85,0,0,0,11,6.65,13.08,13.08,0,0,0,12.5-3.54c5.44-5.69.34-9.89.35-9.87q-5-2.79-9.69-5.45c-.05,0-8-3.65-12.17.86S188.3,256.66,191.64,259.25Zm-51.58-48.09-.31-.25q-5.12,6.45-9.67,12.66a13.88,13.88,0,0,0,6.6-4.12C141.89,214.09,140,211.15,140.06,211.16Zm-11.71,28.77c5.29-4.8,3.47-9.57,3.51-9.55-1.44-1.23-2.8-2.45-4.09-3.64Q122.51,234,118,240.93q.66.8,1.35,1.59S123,244.7,128.35,239.93Zm-21,45.35s5.45,1.77,10.28-3.51,1.36-8.88,1.38-8.87q-3.47-2.34-6.71-4.64s-5.56-3.14-9.61.89a22.12,22.12,0,0,0-2.79,3.29c-.51,1-1,2.07-1.49,3.1a3.82,3.82,0,0,0,.93,3.84C101.6,281.72,107.28,285.28,107.31,285.28Zm15.32-23.86c4.58-4.33,2-7.47,2.06-7.46q-3.37-3.41-6.31-6.71a7.36,7.36,0,0,0-4.06-.6q-4.38,7-8,13.55a65.06,65.06,0,0,0,6.43,4.93A13.47,13.47,0,0,0,122.63,261.42ZM352.11,210c6.74,5.53,19-.49,19-.47s15.3-6.67,19.12-8.34,2.92-7-4.43-11-16.55,1.31-16.57,1.31q-5.55,2.94-11,5.95C351.6,201.39,345.42,204.49,352.11,210Zm255.07,13.54q-5,3.85-10.4,7.9s-4.17,3.68,1.18,8.31,12.49,3.77,12.47,3.78,10.56-5.69,11.33-7.09,3.24-4.19-1.89-10.09S607.23,223.53,607.18,223.55Zm62.94-23.2c3.75,3.42,7,4.23,8.29,4.43q-5.35-6.48-11.16-12.59l-.8,1.24S665.3,195.9,670.12,200.35Zm18.68,26c-1.41,1.32-2.92,2.66-4.5,4,0,0-1.79,4.75,3.5,9.55s9.05,2.58,9,2.59c1.69-2,3.25-3.86,4.69-5.75a1,1,0,0,0,.36-.24q-3.24-4.92-6.83-10C689.8,222.53,688.85,226.33,688.8,226.36Zm-93.35-47.57q-3.75,2.16-7.85,4.46s-4,3.63,2,9.42,12.17,4.26,12.14,4.27,6.36-3.32,8.83-5.48.67-6.31-4-10.89S595.51,178.76,595.45,178.79ZM610.34,247q-4.7,2.67-9.69,5.45s-5.09,4.18.35,9.87a13.1,13.1,0,0,0,12.51,3.54,104.08,104.08,0,0,0,11-6.65c3.34-2.59,2.25-6.86-2-11.35S610.39,247,610.34,247Zm-9.38-47q-3.83,2.4-8,4.92s-4,5.59,2.2,10.73,12,2.51,12,2.52q4.38-3.39,8.36-6.62s4.58-1.09-2.16-8.45C605,193.87,601,200,601,200.05Zm78.52,19.4c5.26,5.34,9.19,4.21,9.17,4.21a30.5,30.5,0,0,0,2.68-2.26q-5-6.81-10.7-13.9c-.27.11-.42.2-.43.2q-1.92,1.7-4.11,3.46S674.26,214.09,679.48,219.45Zm34.15,111.79q-4.56,2.65-9.25,5.36s-4.88,4-.61,9.14,11.16,3,11.16,3a123.69,123.69,0,0,0,11.27-6.65c3.56-2.59,2.75-6.57-1.08-10.56S713.66,331.23,713.63,331.24Zm-1.29-21.93q-4.7,3.85-9.71,7.78s-3.87,3.53.43,7.73S714,328,714,328s10.29-5.82,11.18-7.24,3.37-4.2-1.24-9.47S712.37,309.3,712.34,309.31Zm-4.27-21q-3.44,2.49-7.07,5s-3.72,5.39,1.35,10a9.49,9.49,0,0,0,10.43,1.89q4.14-3.44,8-6.83s4.31-1.4-1.65-7.95C711.72,282.19,708.13,288.26,708.07,288.28Zm-10.3-41c-1.95,2.2-4.06,4.44-6.3,6.71,0,0-2.52,3.13,2,7.46a13.48,13.48,0,0,0,9.93,3.71c.09,0,7.2-5,7.52-6.25s1.68-3.76-3.32-9S697.82,247.23,697.77,247.25Zm6.12,21q-3.24,2.3-6.71,4.64s-3.4,3.58,1.38,8.87,10.3,3.5,10.28,3.51,5.72-3.56,8-5.9.73-6.2-3.36-10.23S703.94,268.26,703.89,268.26ZM482,161.57q-6.52,3.36-13.54,6.91s-7.27,5,.13,10.13,17.36,2.14,17.31,2.15,10.65-5.1,15.12-8.1,3.08-7.41-2.52-11.64S482,161.54,482,161.57Zm-8-47.33c-3.54,2.09-7.22,4.24-11.08,6.46.07,0-6.21,6.45,1.4,10.69s15.65.72,15.59.73Q486,128,491.52,124s6-1.78-1.89-8.52C479.89,107.08,474,114.23,473.94,114.24Zm5.35,23.42q-7,4.69-14.69,9.7s-6,4.41.9,8.38,16.79,2.17,16.74,2.19c.18-.08,14.57-7.23,15.63-8.76,1.29-1.62,4.49-4.76-1.93-10.3S479.39,137.62,479.29,137.66Zm-18.81-29c6.66,4.84,14.95,2.24,14.88,2.26s8.66-4.52,12.07-7.17a5.05,5.05,0,0,0,1.34-1.51q-13.44-2.45-27.11-4l-1.87,1.06C459.86,99.22,454,103.76,460.48,108.62ZM458,197.41q-5.49-3-11-5.95s-9.26-5.31-16.57-1.31-8.23,9.35-4.43,11,19.18,8.3,19.13,8.34,12.26,6,19,.47S464.55,201.39,458,197.41ZM452.22,126q-4.89-2.85-9.73-5.62c-.05,0-8-5-14.21-1.26s-7.17,8.76-3.88,10.34,16.8,7.8,16.81,7.85,11.06,5.7,16.87.57S458.11,129.81,452.22,126Zm-3.61-29.17c-1.74-.15-3.48-.28-5.21-.41A17.73,17.73,0,0,0,448.61,96.86ZM566.15,126.6c6.39,5.75,11.28,4.92,11.24,4.93s.86-.46,1.92-1.1q-7.83-3.63-15.91-6.87A19.23,19.23,0,0,0,566.15,126.6Zm11.34,7.7q-2.67,1.86-5.7,3.87c.05,0-2.35,4.86,4.14,10.11s11,3.27,11,3.29c2.05-1.86,4-3.64,5.7-5.36,0,0,3.62-.56-3.88-7.92C579.37,129,577.55,134.27,577.49,134.3ZM425.73,108.17c7,4.48,17.35,9.69,17.34,9.7s6.53,3,12-.76c3-2.08,6.58-4.55-.45-9.66-7.87-4.22-12-9.33-16.51-11.35-2.33-.15-4.66-.27-7-.38-.37.12-.75.25-1.15.41C422.61,99.21,418.72,103.7,425.73,108.17ZM588,156.52q-3.56,3.16-7.66,6.59s-3.08,3.16,2.57,7.9a19.32,19.32,0,0,0,11.94,4.48c.13-.05,8.32-4.51,8.66-5.72s1.93-3.62-3.84-9.56S588.08,156.49,588,156.52Zm-86,28.85c-10.32-8.8-18.07-1-18.12-1q-6.47,3.48-13.36,7.14s-7.5,7,.9,11.42,17.62.47,17.59.48q7.32-4.59,14.12-9S510.26,192.38,502,185.37Zm-14.11,24q-8.21,5.16-17.06,10.57s-6.88,4.76.52,8.85,18.2,2,18.16,2c.16-.06,16.55-8,17.93-9.68,1.58-1.76,5.51-5.19-1-10.9S487.94,209.35,487.86,209.38Zm200,97s6.94,6.6,10.59,2.39-.18-7.45-4.14-11.65q-3.29-3.22-6.56-6.48s-5.54-5.84-9.06-3.27-3.6,7.27-1.51,9.3S687.91,306.39,687.91,306.38Zm-92-59.29c3.46-3.13-2.23-8.56-2.23-8.57q-7.07-6.54-14.46-13.1S572,219.19,567,223.08s.57,9.47.57,9.46,7.07,7.14,12.8,11.68S592.47,250.24,595.92,247.09Zm-24.6,10.76c6.41,5.83,15,12.43,15,12.43s5.33,3.86,10,.41c2.53-1.89,5.69-4.08-.18-10.12-10.19-8-13.9-17.84-21.93-15.09C567.69,247.68,564.9,252,571.32,257.85Zm43.15,34.6-5.6,4.11q9.12,4.67,17.31,9.56a8.24,8.24,0,0,0,1.67-1.35c1.22-1.59,4.24-4.62-.22-10.38S614.51,292.43,614.47,292.45Zm-20.82-12.76q-3.85-3.4-7.83-6.81s-6.69-6.13-11.75-3c-4.73,3-5.42,7.74-3.3,10,9.88,3.63,19.14,7.51,27.8,11.57C602,287.15,598,283.86,593.65,279.69Zm21.82,8.23q5.32-3.92,10.36-7.67s5.28-1.55-.65-8.77c-7.46-9.1-13.09-2.24-13.11-2.21q-4.67,2.85-9.56,5.82s-5.3,6.17.54,11.1S615.48,287.9,615.47,287.92Zm-477.9,21.62c-4.15-3.58-9.66,2.2-9.67,2.19q-5.62,6.06-11.19,12s-4.53,4.94-1.25,7.92,8.61,1.71,12.94-2.48a113.52,113.52,0,0,0,9.38-10.86S141.76,313.14,137.57,309.54Zm453.54-88.16c3.87-4.36-.73-8-5.76-12.55q-4.15-3.51-8.39-7s-7.17-6.29-11.52-3.51-4.17,7.81-1.34,9.95,14.14,10.37,14.09,10.38S587.2,225.77,591.11,221.38Zm-8.75-43.57c2.61-2.74-3.51-8.25-3.51-8.26q-7.54-6.66-15.3-13.28s-7.55-6.29-11.4-2.91,2,9,2,9,7.53,7.13,13.51,11.78S579.73,180.56,582.36,177.81Zm-75.51,55.86c-5.61-4.32-17.89,1-18,1q-7.35,3.68-15.12,7.5s-8.08,5.35-.42,10.62,18.35,1.93,18.31,1.94,11.72-5.57,16.82-8.88S512.53,238,506.85,233.67Zm1.56,25.46c-10.22-8.9-19.11-.56-19.13-.55l-.74.39q12,1.92,23.22,4.26A12.33,12.33,0,0,0,508.41,259.13Zm65-105.86c2.59-3.79-2.2-7.48-7.49-12.09q-4.32-3.56-8.68-7.09s-7.4-6.29-10.66-4-2.29,7,.56,9.17,14.32,10.53,14.29,10.54S570.77,157.1,573.43,153.27Zm-8.25-19.87c1.45-1.36,3.21-2.91-3.59-9-1.26-1-2.46-2-3.59-2.92q-10.68-4.09-21.69-7.54a17,17,0,0,0,4.47,5.14c6.92,5.84,16.08,12.77,16.07,12.78S562.51,135.9,565.18,133.4Zm116,131.22c4.67,4.38,9.6,6,11.82,3.28s-2.76-7.74-2.75-7.75Q684.13,254,678,247.78s-6-6-8.91-2.86,1.56,8.5,1.57,8.49S676.46,260.26,681.13,264.62Zm18.44,79.56c-8.05-7.29-10.22-16.35-17-13.82-5.38,2-8,6-3.45,11.42a151,151,0,0,0,11,11.45,7,7,0,0,0,8.56.28C701.12,351.73,704.16,349.65,699.57,344.18Zm14.72,50.44a82.41,82.41,0,0,1,3.75,8.3c.1-1.05,1.58-3.39,3.7-7C720.08,394.08,717,394.11,714.29,394.62Zm-24.87-39A12,12,0,0,0,684,352.2a214.31,214.31,0,0,1,15.49,18.64c1.49-3.19-1.28-5.82-4.08-9Q692.39,358.72,689.42,355.61Zm23.82-3.74-9.46,5.59s-5.49,5.77-.82,10.2S714.44,369,714.43,369q5.63-3.72,11.12-7.4s5.53-1.65.22-8.13C719.16,345.3,713.28,351.85,713.24,351.87ZM687.75,329.2c4.33,4.19,9.64,5.48,12.94,2.48s-1.25-7.92-1.24-7.92q-5.6-6-11.19-12s-5.53-5.77-9.68-2.19-.22,8.81-.21,8.8A115.14,115.14,0,0,0,687.75,329.2ZM659.4,184.56a2.06,2.06,0,0,0,0-.26,266.6,266.6,0,0,0-23.95-20.44A11,11,0,0,0,639,170c2.45,2.2,12,10.57,12,10.55S658.78,187.58,659.4,184.56Zm53.41,189.6-7.57,5c3.13,4.75,5.6,9,7.49,12.5,3.88-1.92,10.87-5.46,11.93-6.51,1.48-1.49,5-4.38,1.08-9.55S712.82,374.15,712.81,374.16Zm-51.92-172.3c5,4.53,9.41,6.5,10.5,4.29s-4.27-7.32-4.27-7.34q-6.51-6.24-13.16-12.63s-6.45-6.13-8-3.68,3.47,7.93,3.48,7.91S656,197.34,660.89,201.86Zm18,24.14c1.11-1.34,2.47-2.87-3.13-8.57-8.93-7.91-14.22-16.58-18.33-15.32-3.3,1-3.84,4.32,1.81,10.09s13,12.38,13,12.37S676.85,228.46,678.91,226Zm6.92,18.79c2.06-3.7-1.86-7.07-6.14-11.37l-7-6.68s-6-6-8.44-3.9-1.53,6.59.73,8.69,11.33,10.17,11.32,10.15S683.7,248.53,685.83,244.79ZM688,288.33s4.38,3.72,7.71.78c1.81-1.61,4-3.48-1.11-9.11-8.58-7.62-12.27-16.6-17.81-14.6-4.42,1.59-6,5.31-.93,10.94S688,288.33,688,288.33ZM466.11,251.64c-14.62-7-19-16.84-31.46-12.48-10,3.49-14.78,8.53-5.68,13.6,14.55.78,28.39,2,41.57,3.67C470.19,255.08,468.9,253.51,466.11,251.64Zm120.35-51.3c2.09-1.65,4.66-3.55-1.75-9.69-10.74-8.34-15.63-17.86-22.63-15.71-5.62,1.74-7.67,5.74-.87,11.64s15.85,12.76,15.83,12.76S582.64,203.36,586.46,200.34ZM204.08,269.27s-5.65-6.89-13.1,2.21c-5.93,7.22-.65,8.76-.66,8.77q5,3.76,10.36,7.67s6.58,3.16,12.43-1.73.52-11.12.53-11.1Zm-15.55,25.12c-4.47,5.76-1.44,8.79-.23,10.38a19,19,0,0,0,3.63,2.63q8.22-4.83,17.22-9.49c-2.53-1.84-5-3.66-7.47-5.46C201.65,292.43,193,288.6,188.53,294.39Zm62.19-96.09c-4.36-2.78-11.52,3.51-11.52,3.51q-4.24,3.51-8.39,7c-5,4.58-9.64,8.19-5.76,12.55s12.9-2.74,12.91-2.75,11.22-8.25,14.09-10.38S255.09,201.1,250.72,198.3ZM242,245.48c-8-2.75-11.74,7.06-21.93,15.09-5.87,6-2.72,8.23-.19,10.12,4.63,3.45,10-.4,10-.41s8.57-6.6,15-12.43S248.46,247.68,242,245.48Zm-79.82-59.3-7.37,7.07q-5.22,5.56-10.08,11.45a2,2,0,0,0,0,1.45c1.09,2.21,5.54.24,10.49-4.29s11.49-11.45,11.49-11.45,5.11-5.42,3.48-7.91S162.21,186.19,162.2,186.18Zm87,36.9c-5-3.89-12.24,2.35-12.24,2.34q-7.39,6.56-14.46,13.1s-5.68,5.44-2.23,8.57,9.81,1.68,15.57-2.87,12.78-11.68,12.79-11.68S254.17,227,249.16,223.08Zm-7.08,46.84c-5.05-3.17-11.75,3-11.74,3q-4,3.4-7.83,6.81c-4.65,4.44-8.92,7.9-4.14,12.71a6,6,0,0,0,.68.58q10.5-5,22-9.71l3.85-2.88C247.58,278.32,247.14,273.11,242.08,269.92ZM158.7,202.11c-4.11-1.26-9.39,7.41-18.32,15.32-5.61,5.7-4.25,7.23-3.13,8.57,2.05,2.46,6.62-1.42,6.61-1.43s7.38-6.6,13-12.37S162,203.1,158.7,202.11Zm-21.29,85.26c-3.52-2.57-9,3.28-9,3.27l-6.56,6.48c-4,4.2-7.73,7.47-4.14,11.65s10.6-2.37,10.59-2.39,8.56-7.67,10.67-9.71S141,290,137.41,287.37Zm2-22c-5.54-2-9.24,7-17.82,14.6-5.14,5.63-2.92,7.5-1.1,9.11,3.33,2.94,7.72-.78,7.71-.78s7-6.35,12.13-12S143.81,267,139.4,265.4Zm-1.24-17.62Q132,254,126,260.15s-4.95,5.07-2.76,7.75,7.15,1.1,11.82-3.28,10.47-11.21,10.48-11.21,4.54-5.34,1.57-8.49S138.17,247.79,138.16,247.78Zm5.31-21q-3.51,3.36-7,6.68c-4.28,4.3-8.2,7.67-6.14,11.37s9.56-3.09,9.55-3.11,9-8,11.31-10.15,3.19-6.56.73-8.69S143.48,226.75,143.47,226.74Zm283.75-48.4c8.51,4.85,20.47,10.39,20.45,10.4s7.47,3.21,14.05-.93c3.6-2.26,8-5,0-10.38-14-6.87-18.09-16.21-29.45-12.09C423.15,168.66,418.69,173.5,427.22,178.34Zm-36.56-34.41c-7.29-4.89-16.08.13-16.12.14q-9.06,5.38-18.16,11s-7.34,4.74-2.42,8.47,13.7,3.15,21.22-.54a158.77,158.77,0,0,0,16.16-9.66S398.07,148.82,390.66,143.93Zm-136.59,31c-7-2.15-11.88,7.37-22.62,15.71-6.42,6.14-3.84,8-1.75,9.69,3.82,3,9.42-1,9.41-1s9-6.85,15.83-12.76S259.69,176.68,254.07,174.94Zm127.44,64.22C369,234.8,364.67,244.61,350,251.64c-2.64,1.78-3.94,3.28-4.37,4.58,13.33-1.74,27.26-3,41.81-3.63C396.17,247.58,391.41,242.61,381.51,239.16Zm7.39-22.61c-8.25-5.16-18.09.13-18.1.13q-10,5.67-19.72,11.53s-7.78,4.91-2.23,8.9,15,3.45,23.1-.4a186.62,186.62,0,0,0,17.7-10.15S397.21,221.73,388.9,216.55Zm35.92-63.17A157.51,157.51,0,0,0,441,163c7.52,3.69,16.27,4.28,21.22.54s-2.44-8.48-2.43-8.47c-6-3.77-12.12-7.45-18.16-11,0,0-8.83-5-16.11-.14S424.77,153.38,424.82,153.38Zm1.69,73.18a187.27,187.27,0,0,0,17.69,10.15c8.14,3.85,17.54,4.39,23.1.4s-2.22-8.91-2.23-8.9q-9.69-5.86-19.72-11.53s-9.85-5.29-18.09-.13S426.49,226.56,426.51,226.56Zm-42.62-61.22c-11.36-4.12-15.48,5.22-29.45,12.09-8,5.42-3.61,8.12,0,10.38,6.57,4.14,14.06.93,14,.93s11.94-5.55,20.45-10.4S393,168.66,383.89,165.34ZM269.56,130.13c-3.26-2.33-10.66,4-10.67,4q-4.37,3.54-8.67,7.09c-5.29,4.61-10.08,8.3-7.49,12.09s12-3.42,12-3.43,11.41-8.4,14.29-10.54S272.84,132.47,269.56,130.13ZM264,153.36c-3.85-3.38-11.38,2.92-11.4,2.91q-7.75,6.61-15.3,13.28s-6.12,5.52-3.51,8.26,8.74.95,14.74-3.71S262,162.32,262,162.32,267.91,156.78,264,153.36Zm78.38,88.8q-7.75-3.82-15.11-7.5c-.08,0-12.36-5.31-18-1s-6.79,8.85-1.63,12.17,16.77,8.86,16.82,8.88,10.61,3.32,18.32-1.94S342.36,242.16,342.38,242.16Zm-34.63,17a11.45,11.45,0,0,0-3.49,4.44Q315.57,261,327.57,259l-.7-.37S318,250.23,307.75,259.13ZM251,133.4c2.66,2.5,8.34-1.58,8.32-1.58s9.15-6.94,16.07-12.78a27.91,27.91,0,0,0,2.31-2.16q-13,4.44-25.49,9.8C248.26,130.92,249.72,132.23,251,133.4Z"/></g><g id="Forma_3255_copia" data-name="Forma 3255 copia"><path class="cls-5" d="M716,385.57c-111.28-203.71-517.32-203.71-628.6,0,0,0-12.41,19-2.08,31.57S96.34,442.78,96,454.26s-8.47,131.28,8.68,214.39c0,0,22.14,24.14,31.57.69s26.82-118.08,25-190.8S171,381.1,232.72,352.62c56.86-26.25,113.43-34.17,168.94-35.25,55.51,1.08,112.08,9,168.94,35.25,61.73,28.48,73.31,53.2,71.47,125.92s15.55,167.35,25,190.8,31.57-.69,31.57-.69c17.15-83.11,9-202.91,8.67-214.39s.43-24.55,10.76-37.12S716,385.57,716,385.57Z"/></g><g id="Forma_3261_copia_6" data-name="Forma 3261 copia 6" class="cls-10"><path class="cls-11" d="M128.32,493.65s7,2.32,11.35-1.62,0-8.67,0-8.67l-11.35-10.84s-8.29-5.34-12.45,0-1.18,9,0,10.84S128.32,493.65,128.32,493.65Zm24.88-37.37-6.49,6c-3.91,3.94-7.61,6.95-3.25,12.47s11.36-.54,11.36-.54,3.26-2.56,6.27-5c0-5.47,0-10.65.17-15.56C157.34,452.17,153.2,456.28,153.2,456.28ZM128.32,566.79s7,2.32,11.35-1.62,0-8.67,0-8.67l-11.35-10.84s-8.29-5.34-12.45,0-1.18,9,0,10.84S128.32,566.79,128.32,566.79ZM138.59,505l-9.73-7.58s-8.25-5.59-11.9-1.63-4.19,8.43-.55,11.92S127.77,517,127.77,517s6.85,3.43,11.36-1.63S138.59,505,138.59,505Zm0-72-9.73-7.59s-8.25-5.59-11.9-1.62-4.19,8.42-.55,11.92,11.36,9.21,11.36,9.21,6.85,3.44,11.36-1.62S138.59,433,138.59,433Zm-9.19,87.77s-5.87-8.28-12.44,0c-5.25,6.61,0,9.21,0,9.21l10.27,9.76s6.27,4.25,11.36,0,0-11.38,0-11.38Zm0-72.05s-5.87-8.28-12.44,0c-5.25,6.6,0,9.21,0,9.21l10.27,9.75s6.27,4.26,11.36,0,0-11.38,0-11.38Zm-1.08-27.1s7,2.31,11.35-1.62,0-8.68,0-8.68l-11.35-10.83s-8.29-5.34-12.45,0-1.18,9,0,10.83S128.32,421.6,128.32,421.6Zm15.14,20.59c-4.84,5.37-1.86,8.15.51,10.46a6.64,6.64,0,0,0,8.69.92s4.62-3.73,9-7.9c.33-5.23.83-10.14,1.51-14.77a19.32,19.32,0,0,0-1.84-1.17C154.25,425.79,152,435.37,143.46,442.19Zm17.85-85.6c-7.06-3.94-9.36,5.64-17.85,12.46-4.84,5.37-1.86,8.15.51,10.46a6.64,6.64,0,0,0,8.69.92,142.51,142.51,0,0,0,11.9-10.83C169.44,364.41,166.9,359.71,161.31,356.59Zm-33.54,15.17s6.85,3.44,11.36-1.62-.54-10.3-.54-10.3l-9.73-7.59s-8.25-5.59-11.9-1.62-4.19,8.42-.55,11.92S127.77,371.76,127.77,371.76Zm1.63,3.8s-5.87-8.28-12.44,0c-5.25,6.61,0,9.21,0,9.21l10.27,9.75s6.27,4.26,11.36,0,0-11.38,0-11.38Zm33.54,6c-4.31-3.78-9.74,1.62-9.74,1.62l-6.49,6c-3.91,3.93-7.61,6.94-3.25,12.46s11.36-.54,11.36-.54,8.72-6.85,10.82-8.67S167.24,385.29,162.94,381.52ZM138.59,578.17l-9.73-7.58S120.61,565,117,569s-4.19,8.42-.55,11.92,11.36,9.22,11.36,9.22,6.85,3.43,11.36-1.63S138.59,578.17,138.59,578.17Zm4.87,41.73a5.62,5.62,0,0,0,4.54,2.32c1.13-6,2.24-12.37,3.32-19l-4.61,4.24C142.8,611.38,139.1,614.38,143.46,619.9Zm9.74-91.56-6.49,6c-3.91,3.94-7.61,6.94-3.25,12.46s11.36-.54,11.36-.54l4-3.18c.51-5.86,1-11.75,1.33-17.62C156.62,524.94,153.2,528.34,153.2,528.34Zm-9.74,59c-4.84,5.37-1.86,8.14.51,10.45a6.58,6.58,0,0,0,8,1.35c1.22-7.79,2.38-15.93,3.45-24.28C152,577.1,149.1,582.85,143.46,587.39Zm0-22.76s-4.56,4.76-1.08,8.67,8.78,3.35,13.27-.34c.89-7.12,1.71-14.39,2.43-21.73a11.09,11.09,0,0,0-3.26,2Zm17.77-87c-3.42-.32-6.41,2.52-6.41,2.52l-11.36,11.38s-4.56,4.76-1.08,8.67,9,3.33,13.52-.55a65.92,65.92,0,0,0,5.47-5.37q.07-8-.12-15.7C161.25,478.22,161.24,477.91,161.23,477.59Zm-17.77,36.66c-4.84,5.37-1.86,8.14.51,10.45a6.64,6.64,0,0,0,8.69.93s3.9-3.15,7.91-6.9c.31-5.7.53-11.38.67-17C154.23,497.91,151.92,507.45,143.46,514.25ZM129.4,593.89s-5.87-8.28-12.44,0c-5.25,6.61,0,9.21,0,9.21l10.27,9.76s6.27,4.25,11.36,0,0-11.38,0-11.38Zm25.42-266s8.72-6.85,10.82-8.67,1.6-7.07-2.7-10.84S153.2,310,153.2,310l-6.49,6c-3.91,3.94-7.61,6.94-3.25,12.46S154.82,327.89,154.82,327.89Zm-26.5,312s7,2.32,11.35-1.62,0-8.67,0-8.67L128.32,618.8s-8.29-5.34-12.45,0-1.18,9,0,10.84S128.32,639.93,128.32,639.93Zm14.06,6.51c.14.15.28.3.43.44.81-3.39,1.62-7,2.44-10.91l-1.79,1.79S138.9,642.53,142.38,646.44ZM117,667c-5.25,6.61,0,9.21,0,9.21l2.75,2.62c5.5,1.7,11.36.82,15.45-7.08L129.4,667S123.53,658.75,117,667Zm11.9-23.3s-8.25-5.59-11.9-1.63-4.19,8.42-.55,11.92,11.36,9.21,11.36,9.21,6.53,3.27,11-1.29q.94-3.08,1.93-6.8a10,10,0,0,0-2.15-3.83Zm10.81-296.89c4.4-3.94,0-8.67,0-8.67l-9.33-8.91Q124.46,335,119,341.1c3.72,3.13,9.35,7.36,9.35,7.36S135.28,350.78,139.67,346.84Zm534.79-16.11q-3.45-3.44-7.05-6.74a7.82,7.82,0,0,0,2,4.44A5.63,5.63,0,0,0,674.46,330.73Zm-19.15,44.83s-5.87-8.28-12.44,0c-5.25,6.61,0,9.21,0,9.21l10.27,9.75s6.27,4.26,11.36,0,0-11.38,0-11.38Zm-12.44-63.93,10.27,9.75s6.27,4.26,11.36,0l0,0a281.86,281.86,0,0,0-22.35-18C638.12,309.27,642.87,311.63,642.87,311.63ZM668.29,355c3.48,3.91,9,3.34,13.52-.54a77.1,77.1,0,0,0,7.48-7.63q-4.66-5.52-9.66-10.77l-10.26,10.27S664.81,351.06,668.29,355Zm-80.18-82.23.77-.61q-6.64-3.11-13.46-6c-1,2-1,4.23,1.33,7.13C581.11,278.79,588.11,272.73,588.11,272.73Zm66.12,75.73s7,2.32,11.36-1.62,0-8.67,0-8.67l-11.36-10.84s-8.29-5.34-12.45,0-1.18,9,0,10.84S654.23,348.46,654.23,348.46Zm33,81.27c-7.06-3.94-9.36,5.64-17.85,12.46-4.84,5.37-1.85,8.15.51,10.46a6.64,6.64,0,0,0,8.69.92,142.51,142.51,0,0,0,11.9-10.83C695.36,437.55,692.81,432.85,687.22,429.73Zm-486-109.33s-5.87-8.28-12.44,0c-5.25,6.61,0,9.21,0,9.21L199,339.37s6.27,4.25,11.36,0,0-11.38,0-11.38Zm370.67-54.17a7.32,7.32,0,0,0,1.06-1.11q-11.06-4.56-22.51-8.46l10.09,9.57S566.79,270.48,571.88,266.23ZM691,407.51c-4.65-4.79-10.28.54-10.28.54l-11.36,11.38s-4.56,4.77-1.08,8.67,9,3.34,13.52-.54a93.78,93.78,0,0,0,9.74-10.29S695.66,412.31,691,407.51Zm-21.64-38.46c-4.84,5.37-1.85,8.15.51,10.46a6.64,6.64,0,0,0,8.69.92,142.51,142.51,0,0,0,11.9-10.83c4.89-5.19,2.34-9.89-3.25-13C680.16,352.65,677.86,362.23,669.37,369.05Zm-4.87-9.21-9.73-7.59s-8.25-5.59-11.9-1.62-4.19,8.42-.55,11.92,11.36,9.21,11.36,9.21,6.85,3.44,11.36-1.62S664.5,359.84,664.5,359.84ZM680.73,401s8.72-6.85,10.82-8.67,1.6-7.07-2.7-10.84-9.74,1.62-9.74,1.62l-6.49,6c-3.9,3.93-7.61,6.94-3.25,12.46S680.73,401,680.73,401Zm8.12,53.63c-4.31-3.78-9.74,1.62-9.74,1.62l-6.49,6c-3.9,3.94-7.61,6.95-3.25,12.47s11.36-.54,11.36-.54,8.72-6.86,10.82-8.67S693.15,458.43,688.85,454.66ZM283.58,274.9s-8.25-5.6-11.9-1.63-4.19,8.42-.55,11.92,11.36,9.21,11.36,9.21,6.85,3.44,11.36-1.62-.54-10.3-.54-10.3Zm-.54-3.8s7,2.32,11.36-1.62,0-8.67,0-8.67L283,250a18.12,18.12,0,0,0-3.14-1.52q-5.14,1.38-10.23,2.87c-2.72,4.61-.16,7.81.92,9.49S283,271.1,283,271.1Zm-56.41,1.63s8.72-6.85,10.82-8.67a3.72,3.72,0,0,0,1.12-2.21q-12.31,4.74-24.11,10.27a13.69,13.69,0,0,0,.81,1.15C219.63,278.79,226.63,272.73,226.63,272.73Zm82.91-22.2s8.72-6.85,10.82-8.67a3.8,3.8,0,0,0,1.15-2.44q-12.52,2.12-24.83,4.89c-.84,1.92-.65,4,1.5,6.76C302.54,256.59,309.54,250.53,309.54,250.53Zm-110,66.08s6.85,3.43,11.36-1.63-.54-10.3-.54-10.3l-9.73-7.58s-8.25-5.59-11.9-1.63-4.19,8.43-.55,11.92S199.58,316.61,199.58,316.61Zm11.9-24.93c4.4-3.94,0-8.67,0-8.67l-6.55-6.26q-7.78,3.93-15.29,8.22c3.56,3.13,10.48,8.33,10.48,8.33S207.09,295.62,211.48,291.68ZM370.9,233.75c-1.94.12-3.88.26-5.82.4A8.73,8.73,0,0,0,370.9,233.75ZM389,239.08s4.57-3.59,7.89-6.26q-10.5.09-21,.65c-.54,1.76-.2,3.71,1.73,6.15C382,245.14,389,239.08,389,239.08ZM464.34,244a6.49,6.49,0,0,0,2-6.93q-11.62-1.56-23.36-2.56L453,244S459.25,248.28,464.34,244Zm16.23,6.51s8.71-6.85,10.82-8.67a2.91,2.91,0,0,0,.52-.63q-9.36-1.78-18.84-3.19l-.62.57c-3.9,3.93-7.6,6.94-3.24,12.46S480.57,250.53,480.57,250.53Zm-118.09,9.12s7,2.32,11.36-1.62,0-8.67,0-8.67l-11.36-10.84s-8.29-5.34-12.44,0-1.19,9,0,10.84S362.48,259.65,362.48,259.65Zm.54,3.8s-8.25-5.59-11.9-1.63-4.19,8.43-.54,11.92S361.94,283,361.94,283s6.84,3.43,11.36-1.63-.55-10.3-.55-10.3ZM665.59,565.17c4.39-3.94,0-8.67,0-8.67l-11.36-10.84s-5.43-3.49-9.7-2c.5,5.66,1.06,11.3,1.68,16.87,3.59,2.94,8,6.26,8,6.26S661.19,569.11,665.59,565.17Zm-11.36-71.52s7,2.32,11.36-1.62,0-8.67,0-8.67l-11.36-10.84s-7.77-5-12-.48q-.06,3.18-.13,6.5c-.05,1.68-.08,3.36-.1,5.06C643.82,485.83,654.23,493.65,654.23,493.65Zm-11.36-35.74,10.27,9.75s6.27,4.26,11.36,0,0-11.38,0-11.38l-9.19-7.58s-5.87-8.28-12.44,0a15.24,15.24,0,0,0-1,1.32q.17,3.6.24,7.41A4.78,4.78,0,0,0,642.87,457.91Zm10.81-13s6.85,3.44,11.36-1.62-.54-10.3-.54-10.3l-9.73-7.59s-8.25-5.59-11.9-1.62a10.66,10.66,0,0,0-2.94,5.54c.2,1.27.38,2.56.56,3.86a8.29,8.29,0,0,0,1.83,2.52C646,439.19,653.68,444.9,653.68,444.9Zm.55-23.3s7,2.31,11.36-1.62,0-8.68,0-8.68l-11.36-10.83s-8.29-5.34-12.45,0-1.18,9,0,10.83S654.23,421.6,654.23,421.6ZM665,515.33c4.52-5.06-.54-10.3-.54-10.3l-9.73-7.58s-8.25-5.59-11.9-1.63c-.32.35-.61.7-.88,1.06q.07,5.36.27,10.79l.06.07c3.65,3.5,11.36,9.22,11.36,9.22S660.53,520.39,665,515.33Zm22.18-13.55c-7.06-3.94-9.36,5.65-17.85,12.47-4.84,5.37-1.85,8.14.51,10.45a6.64,6.64,0,0,0,8.69.93,143.51,143.51,0,0,0,11.9-10.84C695.36,509.6,692.81,504.9,687.22,501.78Zm-110-177.43a6.63,6.63,0,0,0,8.68.93,141.77,141.77,0,0,0,11.9-10.84c4.89-5.19,2.35-9.89-3.24-13-7.06-3.94-9.37,5.65-17.85,12.47C571.91,319.27,574.89,322,577.26,324.35Zm-422.44,83.7-11.36,11.38s-4.56,4.77-1.08,8.67,9,3.34,13.52-.54a93.78,93.78,0,0,0,9.74-10.29,6,6,0,0,0,.46-.67c.38-1.37.78-2.72,1.21-4a7.06,7.06,0,0,0-2.21-5.05C160.45,402.72,154.82,408.05,154.82,408.05ZM562.68,320.4s-5.86-8.28-12.44,0c-5.25,6.61,0,9.21,0,9.21l10.28,9.76s6.27,4.25,11.36,0,0-11.38,0-11.38Zm-12.23,23.66q8.79,3.42,17.58,7.38l-6.43-6.13S554.82,340.94,550.45,344.06Zm138.4,182.65c-4.31-3.77-9.74,1.63-9.74,1.63l-6.49,6c-3.9,3.94-7.61,6.94-3.25,12.46s11.36-.54,11.36-.54,8.72-6.85,10.82-8.67S693.15,530.48,688.85,526.71ZM598.93,337.2c2.1-1.82,1.6-7.07-2.71-10.84s-9.74,1.63-9.74,1.63L580,334c-3.9,3.94-7.6,6.94-3.24,12.46s11.36-.54,11.36-.54S596.82,339,598.93,337.2Zm-10.82,15.7-5.53,5.53c4.75,2.44,9.15,4.87,13.21,7.34,1.85-2.08,3.14-3.66,3.14-3.66s4.11-5-.54-9.76S588.11,352.9,588.11,352.9Zm0-73.14-11.36,11.38s-4.57,4.76-1.08,8.67,9,3.33,13.52-.55A94.87,94.87,0,0,0,598.93,289s4.11-5-.54-9.76S588.11,279.76,588.11,279.76Zm76.39,260c5.09-4.26,0-11.38,0-11.38l-9.19-7.59s-5.87-8.28-12.44,0h0q.27,4.89.62,9.78l9.66,9.18S659.41,544,664.5,539.72ZM688.85,673c-4.31-3.78-9.74,1.62-9.74,1.62l-4.4,4c5.31,2.4,11.43-.26,16.15-3.44A12.21,12.21,0,0,0,688.85,673Zm-8.12-46.61-11.36,11.38s-4.56,4.77-1.08,8.68,9,3.33,13.52-.55a93.78,93.78,0,0,0,9.74-10.29s4.11-5-.54-9.76S680.73,626.38,680.73,626.38Zm0-73.13-11.36,11.38s-4.56,4.76-1.08,8.67,9,3.33,13.52-.55a93.78,93.78,0,0,0,9.74-10.29s4.11-5-.54-9.76S680.73,553.25,680.73,553.25Zm0-73.14-11.36,11.38s-4.56,4.76-1.08,8.67,9,3.33,13.52-.55a93.78,93.78,0,0,0,9.74-10.29s4.11-5-.54-9.76S680.73,480.11,680.73,480.11ZM664.5,651.31l-3.6-2.81c1.26,5.23,2.49,9.8,3.66,13.61.16-.16.32-.32.48-.5C669.56,656.55,664.5,651.31,664.5,651.31Zm22.72-3.25c-7.06-3.94-9.36,5.64-17.85,12.46-4.84,5.38-1.85,8.15.51,10.46a6.64,6.64,0,0,0,8.69.92,142.51,142.51,0,0,0,11.9-10.83C695.36,655.88,692.81,651.18,687.22,648.06Zm-21.63-18.42-10.81-10.31c1.42,7.7,2.86,14.84,4.29,21.27a9.83,9.83,0,0,0,6.52-2.29C670,634.37,665.59,629.64,665.59,629.64Zm21.63-54.72c-7.06-3.94-9.36,5.64-17.85,12.47-4.84,5.37-1.85,8.14.51,10.45a6.64,6.64,0,0,0,8.69.93,143.51,143.51,0,0,0,11.9-10.84C695.36,582.74,692.81,578,687.22,574.92ZM665,588.47c4.52-5.06-.54-10.3-.54-10.3l-9.73-7.58s-4.07-2.76-7.76-3c.78,6.59,1.63,13.06,2.52,19.37,2.31,1.8,4.15,3.17,4.15,3.17S660.53,593.53,665,588.47Zm-.54,24.39c5.09-4.26,0-11.38,0-11.38l-9.19-7.59s-2.15-3-5.29-3.59c1.16,8,2.39,15.63,3.66,22.88C655.3,614.08,660.3,616.37,664.5,612.86Zm24.35-13c-4.31-3.77-9.74,1.63-9.74,1.63l-6.49,6c-3.9,3.94-7.61,6.94-3.25,12.46s11.36-.54,11.36-.54,8.72-6.85,10.82-8.67S693.15,603.62,688.85,599.85ZM561.06,316.61S567.9,320,572.42,315s-.54-10.3-.54-10.3l-9.74-7.58s-8.24-5.59-11.9-1.63-4.18,8.43-.54,11.92S561.06,316.61,561.06,316.61ZM309.54,257.55l-11.36,11.38s-4.56,4.77-1.08,8.67,9,3.34,13.52-.54a93.78,93.78,0,0,0,9.74-10.29s4.11-5-.54-9.76S309.54,257.55,309.54,257.55ZM284.12,298.2s-5.87-8.28-12.44,0c-5.25,6.61,0,9.21,0,9.21L282,317.16s6.27,4.26,11.36,0,0-11.38,0-11.38Zm-57.49-18.44-11.36,11.38s-4.56,4.76-1.08,8.67,9,3.33,13.52-.55A93.78,93.78,0,0,0,237.45,289s4.11-5-.54-9.76S226.63,279.76,226.63,279.76Zm89.4-.53c-7.06-3.94-9.36,5.64-17.85,12.46-4.84,5.37-1.85,8.15.51,10.46a6.64,6.64,0,0,0,8.69.92,142.51,142.51,0,0,0,11.9-10.83C324.17,287.05,321.62,282.35,316,279.23Zm-82.91,22.2c-7.06-3.94-9.36,5.65-17.85,12.47-4.84,5.37-1.86,8.14.51,10.45a6.64,6.64,0,0,0,8.69.93,143.51,143.51,0,0,0,11.9-10.84C241.25,309.25,238.71,304.55,233.12,301.43Zm84.54,2.73c-4.31-3.78-9.74,1.62-9.74,1.62l-6.49,6c-3.9,3.94-7.61,6.95-3.25,12.47s11.36-.54,11.36-.54,8.72-6.85,10.82-8.67S322,307.93,317.66,304.16Zm-47.07,18.95c-4.15,5.33-1.18,9,0,10.83a20.55,20.55,0,0,0,2.94,2.81q9.14-2.91,18.24-5.31L283,323.11S274.75,317.77,270.59,323.11Zm-81.82,45.5c-3.56,3.86-4.15,8.18-.82,11.63a106.64,106.64,0,0,1,12.67-10C200,369.79,192.27,364.81,188.77,368.61ZM561.6,293.3s7,2.32,11.36-1.62,0-8.67,0-8.67L561.6,272.17s-8.29-5.34-12.44,0-1.18,9,0,10.84S561.6,293.3,561.6,293.3ZM154.82,334.91l-11.36,11.38s-4.56,4.77-1.08,8.67,9,3.34,13.52-.54a93.78,93.78,0,0,0,9.74-10.29s4.11-5-.54-9.76S154.82,334.91,154.82,334.91Zm45.3,10.4s-8.28-5.34-12.44,0-1.18,9,0,10.84,12.44,10.29,12.44,10.29a16.17,16.17,0,0,0,5.24.66q3.69-2.31,7.77-4.6c1.22-3.26-1.65-6.35-1.65-6.35Zm26.51,7.59L221.49,358c3.55-1.8,7.28-3.6,11.23-5.42l2.91-1.33C231.28,348.48,226.63,352.9,226.63,352.9Zm8.12-26.54C230.44,322.59,225,328,225,328l-6.49,6c-3.91,3.94-7.61,6.94-3.25,12.46s11.36-.54,11.36-.54,8.72-6.85,10.82-8.67S239.05,330.13,234.75,326.36ZM455.14,298.2s-5.86-8.28-12.44,0c-5.25,6.61,0,9.21,0,9.21L453,317.16s6.27,4.26,11.36,0,0-11.38,0-11.38Zm-1.62-3.8s6.84,3.44,11.36-1.62-.54-10.3-.54-10.3l-9.74-7.58s-8.25-5.6-11.9-1.63-4.18,8.42-.54,11.92S453.52,294.4,453.52,294.4Zm35.16,9.76c-4.3-3.78-9.74,1.62-9.74,1.62l-6.49,6c-3.5,3.54-6.84,6.33-4.33,10.86q5.7.84,11.41,1.84c.65-.44,1-.77,1-.77s8.71-6.85,10.82-8.67S493,307.93,488.68,304.16Zm-1.62-24.93c-7.06-3.94-9.37,5.64-17.85,12.46-4.84,5.37-1.86,8.15.51,10.46a6.62,6.62,0,0,0,8.68.92,140.8,140.8,0,0,0,11.9-10.83C495.19,287.05,492.65,282.35,487.06,279.23Zm-6.49-21.68-11.36,11.38s-4.57,4.77-1.09,8.67,9,3.34,13.53-.54a94.87,94.87,0,0,0,9.74-10.29s4.11-5-.55-9.76S480.57,257.55,480.57,257.55ZM454.06,271.1s7,2.32,11.36-1.62,0-8.67,0-8.67L454.06,250s-8.29-5.34-12.44,0-1.19,9,0,10.84S454.06,271.1,454.06,271.1Zm-57,21.61c-4.31-3.77-9.74,1.63-9.74,1.63l-6.49,6c-3.9,3.94-7.6,6.94-3.25,12.46s11.36-.54,11.36-.54,8.72-6.85,10.82-8.67S401.4,296.48,397.1,292.71Zm-5.8,24.94c2.13-.07,4.25-.14,6.37-.19A6.55,6.55,0,0,0,391.3,317.65Zm-27.74-30.9s-5.87-8.28-12.44,0c-5.25,6.61,0,9.21,0,9.21l10.28,9.76s6.26,4.25,11.35,0,0-11.38,0-11.38Zm31.91-19c-7.06-3.94-9.36,5.64-17.85,12.47-4.83,5.37-1.85,8.14.51,10.45a6.64,6.64,0,0,0,8.69.93,143.51,143.51,0,0,0,11.9-10.84C403.61,275.6,401.07,270.9,395.47,267.78ZM389,246.11l-11.36,11.38s-4.56,4.76-1.08,8.67,9,3.33,13.53-.55a94.32,94.32,0,0,0,9.73-10.29s4.11-5-.54-9.76S389,246.11,389,246.11ZM350,311.66c-3.12,4-2.23,7.07-1.09,9.12q10.53-1.21,21-2l-7.48-7.14S354.19,306.32,350,311.66Z"/></g><g id="Forma_3255_copia_4" data-name="Forma 3255 copia 4" class="cls-12"><path class="cls-13" d="M223.7,350.88c-61.73,28.49-73.31,53.21-71.47,125.93s-15.55,167.34-25,190.8c-2.71,6.72-6.46,9.53-10.43,10.12,6.74,3.16,14.7,3.41,19.45-8.39,9.42-23.45,26.82-118.08,25-190.8S171,381.1,232.72,352.62c56.86-26.25,113.43-34.17,168.94-35.25a501.92,501.92,0,0,1,79.82,7.42c-29.84-6.1-59.49-8.58-88.84-9.16C337.13,316.72,280.56,324.64,223.7,350.88ZM716,385.57c-43.1-78.89-130.4-127.22-227.67-145,93.62,19.07,176.89,66.83,218.65,143.28,0,0,12.41,19,2.08,31.57S698,441,698.26,452.52s8.48,131.29-8.67,214.39c0,0-8.2,9-16.75,10.66,10.57,7.65,25.77-8.92,25.77-8.92,17.15-83.11,9-202.91,8.67-214.39s.43-24.55,10.76-37.12S716,385.57,716,385.57Z"/></g><g id="Forma_3255_copia_3" data-name="Forma 3255 copia 3" class="cls-14"><path class="cls-15" d="M87.36,385.57s-12.41,19-2.08,31.57S96.34,442.78,96,454.26s-8.47,131.28,8.68,214.39c0,0,11.84,12.91,21.89,10.67a45.37,45.37,0,0,1-11.83-8.94c-17.15-83.1-9-202.9-8.67-214.39s-.43-24.55-10.76-37.11,2.08-31.57,2.08-31.57C164.17,265.12,337,216.23,488.57,240.61,334.61,212.36,155.59,260.67,87.36,385.57ZM677.1,671.08c-9.42-23.46-26.82-118.08-25-190.8s-9.74-97.44-71.47-125.93a369.24,369.24,0,0,0-97.41-29.24,365.9,365.9,0,0,1,87.35,27.51c61.73,28.48,73.31,53.2,71.47,125.92s15.55,167.35,25,190.8c3.87,9.63,9.88,11.23,15.62,9.78A18.51,18.51,0,0,1,677.1,671.08Z"/></g><g id="Forma_3282_copia_3" data-name="Forma 3282 copia 3" class="cls-16"><path class="cls-3" d="M477.14,200.22c-.23-2.31-.46-4.65-.71-7-4.21-3.17-8.45-6.32-12.77-9.37l-1.72-2.46q5.34-.63,10.23-1c.85-1.56,1.07-3.19.53-6.74q-3.49-3.24-7.11-6.35c-6,.95-12.52,2.13-19.45,3.61a206.83,206.83,0,0,0-21.87-12.62l-1.72-.15c7.78-2.78,15.18-5.19,22.05-7.35A183.61,183.61,0,0,1,466,164.87c4.53-.43,5.66-.77,4-8-4.05-3.14-8.25-6.08-12.55-8.8,0-.21-.08-.43-.13-.64q6-1.5,11.3-2.72c-.66-2.65-1.35-5.28-2.1-7.89q-3.06-2.15-6.2-4.09c-3.52,1.07-7.25,2.2-11.2,3.42-1.14-3.7-2.37-7.33-3.66-10.86q-2.94-1.82-5.87-3.5-3.6.7-7.36,1.5,2,8.07,3.6,16.65c-6.78,2.46-14.08,5.15-21.75,8.19-.54-6.39-1.19-12.57-1.9-18.58,5.79-2.15,11.3-4.12,16.49-6,.78-1.72.64-3.89-.31-7-8.59-2.74-10.21-.71-17.52,2.21q-.74-5.55-1.52-10.91-3.24-1.52-6.28-3l-3.82,1.61c-1.52,2.68-1.3,7.81-.93,12.06-4.7-1.22-9.26-2.36-13.63-3.5l-3.7,1.89c-6.17,8.42,9.33,10.86,17,12.89.22,5.79.46,11.71.68,17.8-8.13-2.54-16-4.58-23.51-6.35q.59-8.25,1.4-16.28c-2.14-.87-4.21-1.73-6.23-2.61-2.08,1.18-4.19,2.39-6.32,3.65q-1,5.54-1.79,11.12c-4.91-1-9.57-1.95-14-3q-3.21,1.92-6.44,4-.88,3.63-1.74,7.28c3.81.69,7.84,1.34,12.08,2,.19.35.39.69.59,1-4.62,2.95-9.31,6.15-14.07,9.65-.42,2-.82,4-1.22,5.94l7,1.21c7.39-5.27,14.61-9.88,21.66-14,7.93,1.35,16.32,3.07,24.9,5.38v.59c-7.67,3.7-15.56,7.9-23.64,12.77a214.06,214.06,0,0,0-25.06-1.63q-2.34,1.72-4.7,3.53c-6.28,9,1.29,9.57,9.19,8.4l1.68,1.32c-5.75,3.87-11.59,8.09-17.49,12.6q-.36,3.56-.59,7.08c2.19-.28,4.4-.51,6.61-.7,5.68-1.34,13.93-8.53,19.32-11.83q-.24,5.79-.32,11.74,3.3.83,6.59,1.81,5.21-2.44,10.37-4.58c.14-6.77.29-13.27.48-19.58a268.58,268.58,0,0,1,24.83-11.72c.38,6.31.69,12.86.84,19.71-7.71,3.44-15.53,7.39-23.37,11.86q-.07,3.74-.17,7.6,3.19.63,6.35,1.41c4.74.39,11-3.87,15.68-5.8,3.54,9.56-2.87,14.51,7.2,19.21,2.44-1,4.9-1.87,7.36-2.74q1.49-8.23,2.52-16c4.91,2.23,9.74,4.65,14.55,7.15,1.86-.73,3.72-1.43,5.56-2.11,2.19-1.31,2.36-3.89,2.33-7.34-7.09-4.39-14.3-8.53-21.71-12.17.19-7.14.12-14-.13-20.62a204.2,204.2,0,0,1,23,11.54c5.5,10.2-2.51,18.88,9.13,25.85,1.77-.34,3.53-.65,5.27-.95,2-2.61,2.12-8,1.79-12.88,5.58,3.59,11.07,7.33,16.6,11Q474.16,200.75,477.14,200.22Z"/></g><g id="Forma_3282_copia" data-name="Forma 3282 copia" class="cls-16"><path class="cls-3" d="M308,157.51q.3-3.67.67-7.39-3.14-1.51-6.09-2.83c-4.94,1.8-9.75,3.6-14.41,5.49.25-3.39.59-6.7,1-9.9-1.47-.79-2.9-1.53-4.29-2.2q-4,1.41-7.92,2.87a142.11,142.11,0,0,0-3,15.23,194.19,194.19,0,0,0-19.2,11.51,159.13,159.13,0,0,1,3-17.42c5-2.93,10.29-5.7,15.78-8.37a16.36,16.36,0,0,0,3.12-6.29c-6.48-.54-9.1,1.65-16.23,5.55a55.53,55.53,0,0,1,3.62-8.18c-1.38-.19-2.73-.33-4.05-.44-1.36.68-2.72,1.37-4,2.06-2.44,2.13-4.11,5.67-5.16,9-3.14,0-6.17.21-9.11.43-1,.72-2.09,1.46-3.11,2.2-5.78,7.24,4.13,6.18,8.85,6.75a162.82,162.82,0,0,0-3.06,16.26,84.53,84.53,0,0,0-13.4-3.15c.89-4.62,1.91-8.95,3.12-13-1.27-.2-2.53-.37-3.76-.53-1.54,1.29-3.06,2.61-4.54,3.94-.73,2.68-1.39,5.39-2,8.17-2.83,0-5.58.24-8.29.53q-2,1.85-3.93,3.69c-.3,1.5-.59,3-.87,4.48a61.12,61.12,0,0,1,6.78-.09c.09.22.19.44.29.67-2.65,2.47-5.21,4.9-7.67,7.25-.22,1.28-.42,2.59-.63,3.93,1.11.35,2.24.76,3.38,1.22,3.78-3.57,7.76-7.29,11.95-11a93.79,93.79,0,0,1,13.54,3.52c0,.19-.05.38-.07.57-5.06,4.14-9.89,8.36-14.5,12.56a102.87,102.87,0,0,0-12.07-3.34l-2.31,2.24c-3,6,.1,8.25,3.64,8.53.21.5.42,1,.63,1.52-2.9,2.7-5.65,5.41-8.18,8.19-.29,2.33-.58,4.78-.88,7.38q1.17.66,2.4,1.32c2.18.13,6.52-5.94,9.42-8.52-.53,4-1.1,8.15-1.73,12.6.92.92,1.87,1.85,2.86,2.78,2-1.5,4-2.95,6.11-4.36.92-7.16,1.71-13.85,2.46-20.12q7.49-6.23,15.62-12.21c-.38,6.3-.68,12.9-1,19.74-5.32,4.09-10.53,8.35-15.57,12.94-.32,2.62-.67,5.3-1,8,1.22.41,2.48.82,3.78,1.22,3,.09,7.73-4.77,11.08-7.13,2.42,8.79-2.87,14.49,5.57,16.94q3-2,6.07-3.78c.41-5,.78-10,1.13-15q5.88,2,12.38,4.07c1.48-1,3-2,4.44-3,1.69-1.63,1.53-4.06,1.21-7.31-6.33-2.72-12.23-5.33-17.64-7.81.22-7.05.5-14,.91-20.61,5.23,2.26,10.92,4.81,17.07,7.57,4.38,9-1.88,18.93,8.91,23.07,1.5-.69,3-1.37,4.52-2,1.49-2.94,1.22-8.17.82-12.88,5.23,2.18,10.67,4.46,16.23,6.85,2.1-.93,4.24-1.83,6.4-2.68-.11-2.27-.2-4.52-.27-6.77-4.52-2.07-8.95-4.06-13.24-6-.55-.65-1.09-1.31-1.63-2,3.67-1.26,7.44-2.42,11.33-3.44,1.22-1.69,1.74-3.28,1.71-6.51l-7.35-4.46a161.28,161.28,0,0,0-20.15,7.75c-6-3.12-11.61-6-16.75-8.5l-1.29.12a183.69,183.69,0,0,1,19.75-11.17c5.95,2.73,12.4,5.9,19.33,9.44,5.5-1.37,7.09-1.88,7-8.34q-6.56-3.28-12.5-6c0-.2,0-.4.05-.6C297.88,160.54,302.85,159,308,157.51Z"/></g><g id="Forma_3282_copia_2" data-name="Forma 3282 copia 2" class="cls-16"><path class="cls-3" d="M640.15,223c-2.54-2.77-5.29-5.48-8.18-8.19l.62-1.51c3.54-.29,6.67-2.52,3.64-8.53l-2.31-2.24a100.32,100.32,0,0,0-12.06,3.34c-4.62-4.2-9.45-8.42-14.51-12.56,0-.2,0-.39-.07-.58a95,95,0,0,1,13.54-3.51c4.19,3.75,8.17,7.47,11.95,11,1.15-.46,2.27-.87,3.38-1.22q-.3-2-.63-3.93c-2.46-2.36-5-4.79-7.66-7.25.09-.23.19-.45.28-.68a58.77,58.77,0,0,1,6.78.1c-.28-1.49-.57-3-.87-4.48q-1.93-1.84-3.93-3.69c-2.71-.29-5.46-.5-8.28-.53-.61-2.79-1.27-5.5-2-8.17-1.48-1.33-3-2.65-4.53-3.94-1.24.16-2.49.33-3.77.53,1.21,4.09,2.23,8.43,3.13,13.05a85.65,85.65,0,0,0-13.41,3.14A160.54,160.54,0,0,0,598.2,167c4.72-.56,14.63.49,8.85-6.75-1-.74-2.06-1.47-3.1-2.19-3-.23-6-.4-9.12-.44-1.05-3.28-2.72-6.81-5.15-8.94-1.34-.69-2.7-1.38-4.06-2.06-1.32.11-2.67.25-4,.44a56.12,56.12,0,0,1,3.63,8.18c-7.14-3.9-9.76-6.1-16.24-5.56a16.29,16.29,0,0,0,3.12,6.29c5.49,2.67,10.76,5.44,15.78,8.38a156.37,156.37,0,0,1,3,17.42,192.28,192.28,0,0,0-19.2-11.51,139.69,139.69,0,0,0-3-15.23c-2.59-1-5.23-1.93-7.91-2.87-1.4.67-2.83,1.41-4.3,2.2q.63,4.8,1,9.89c-4.66-1.88-9.47-3.68-14.4-5.48q-3,1.32-6.1,2.83c.25,2.47.47,4.94.67,7.39,5.14,1.47,10.12,3,14.92,4.73,0,.2,0,.4,0,.59q-6,2.75-12.49,6c-.09,6.47,1.51,7,7,8.35,6.94-3.54,13.38-6.71,19.34-9.44a184.51,184.51,0,0,1,19.74,11.17l-1.28-.12c-5.15,2.51-10.73,5.38-16.76,8.5A159.15,159.15,0,0,0,548,191l-7.35,4.46c0,3.23.49,4.82,1.71,6.51q5.83,1.53,11.33,3.44c-.54.65-1.08,1.31-1.63,2-4.28,1.91-8.72,3.9-13.24,6q-.11,3.38-.27,6.78c2.16.85,4.3,1.74,6.4,2.67,5.56-2.38,11-4.67,16.23-6.84-.4,4.71-.67,9.93.82,12.87,1.52.67,3,1.35,4.53,2,10.78-4.14,4.52-14.11,8.9-23.07,6.15-2.76,11.84-5.31,17.07-7.57.41,6.65.69,13.55.91,20.6-5.41,2.49-11.31,5.1-17.64,7.81-.32,3.25-.48,5.69,1.21,7.31q2.22,1.47,4.44,3c4.33-1.39,8.47-2.74,12.38-4.06.36,5,.72,10,1.13,15,2,1.21,4,2.47,6.07,3.78,8.44-2.45,3.16-8.15,5.57-16.94,3.35,2.36,8,7.22,11.08,7.13q2-.6,3.78-1.23-.54-4.09-1-8c-5-4.6-10.25-8.85-15.57-12.94-.29-6.84-.59-13.45-1-19.74q8.14,6,15.62,12.21c.75,6.27,1.54,13,2.46,20.12q3.15,2.12,6.11,4.36c1-.93,1.94-1.86,2.86-2.79q-.93-6.66-1.73-12.59c2.9,2.58,7.25,8.65,9.42,8.52q1.23-.66,2.4-1.32Q640.57,226.53,640.15,223Z"/></g><g id="Forma_3264-2" data-name="Forma 3264"><path class="cls-1" d="M197.33,696.05c-2.12-11.78-10.75-8.67-10.75-8.67s8.72-6.85,2.08-17.69-16-6.25-16-6.25,6.55-5.59.7-14.91-16.66-3.47-16.66-3.47,3-15.35-15.26-10.76c0,0,0-16.39-19.43-7.28,0,0-6-9.22-17-8s-13.52,11.45-13.52,11.45-15-10.6-18.39,4.85c0,0-17.2-2.43-16,13.53,0,0-22-1.89-13.53,20.12,0,0-16.85,4.54-6.24,16.66,0,0-13.43,12.64,2.08,19.08,0,0-4.85,7.53-.35,15.26a10.91,10.91,0,0,0,12.14,5.55s-2.6,19.67,17,13.18c0,0,5.84,20.07,22.9,9.37,0,0-1,7,6.94,8.33a9.74,9.74,0,0,0,10.75-5.21s4,11.12,14.92,8.67,11.45-8,11.45-8,8.48,7,17.69,3.46,5.55-9.71,5.55-9.71,17.34,7.24,17-9.71c0,0,27.51,4.15,15.61-25.67C191.09,710.28,199.45,707.83,197.33,696.05Z"/></g><g id="Forma_3264_copia_2-2" data-name="Forma 3264 copia 2"><path class="cls-2" d="M76.55,749.89c2.77,1.5,8.5,2.56,14.28-1.45a35.09,35.09,0,0,1,.36-3.66C87.05,747.37,79.42,750.21,76.55,749.89Zm106.68-80.42c6.55,10.7-2.06,17.46-2.06,17.46a7.91,7.91,0,0,1,5.56.32c1.14-1,8-7.58,1.93-17.56-4.59-7.5-10.47-7.61-13.65-7C177.68,663.42,180.66,665.27,183.23,669.47ZM56.16,738.84c2.06,1.16,8.38,1.75,12.12,0a19.8,19.8,0,0,1-.73-2C64.16,738,58.33,739.06,56.16,738.84Zm112-90.26c5.79,9.2-.68,14.72-.68,14.72a11.77,11.77,0,0,1,6.13-.85c1.57-2,4.2-6.9-.21-13.92-3.46-5.5-8.64-5.72-12.3-5A10.38,10.38,0,0,1,168.16,648.58Zm-16.27-1.09a32.27,32.27,0,0,1,5.55-2.78c.31-5.09-1.21-13-13.36-11C153.77,634.67,151.89,647.49,151.89,647.49Zm-32.69,111a12.89,12.89,0,0,1-4,.3,11.92,11.92,0,0,0,8.56,1.08c7.53-1.58,10.76-4.62,12.14-8a36.24,36.24,0,0,1-2.43-5.9S130,756.09,119.2,758.5Zm78.13-62.45c-1.9-10.56-9-9.15-10.49-8.75,2,1,4.06,3.3,4.95,8.19,2.09,11.63-6.17,14-6.17,14,11.75,29.44-15.4,25.34-15.4,25.34.2,10.35-6.26,11.57-11.23,11,2.86,1,16.79,5.3,16.49-9.91,0,0,27.51,4.15,15.61-25.67C191.09,710.28,199.45,707.83,197.33,696.05Zm-43.89,48.41s3.61,6.1-5.48,9.59a15.21,15.21,0,0,1-7.54.83,16.77,16.77,0,0,0,12.51.49c8.4-3.22,6.09-8.64,5.62-9.57A23.22,23.22,0,0,1,153.44,744.46ZM122.05,627.37c-2.22-3.45-8.43-9.29-17-8.33a19.06,19.06,0,0,0-2,.33c9.38.21,14.45,9.38,14.45,9.38A16.21,16.21,0,0,1,122.05,627.37ZM94.51,755.16a13.13,13.13,0,0,0,3.61,1.26c5.45,1.35,9.43-2.94,11.1-4.51-1.07-2.25-2-4.4-2-4.4S101.86,756,94.51,755.16Zm34.1-130.48c8,.79,8,10.66,8,10.66a11.78,11.78,0,0,1,4.86-1.38C141.29,631.56,139.8,622.22,128.61,624.68Z"/></g><g id="Forma_3264_copia_3-2" data-name="Forma 3264 copia 3"><path class="cls-3" d="M43.7,708.29a15.47,15.47,0,0,1-4.63-2.81c-1.08,2.1-3.58,8.24.07,14.51A11.34,11.34,0,0,0,45,725.14,13.64,13.64,0,0,1,43.37,723C39,715.53,43.7,708.29,43.7,708.29Zm35,11.35c-.55-7.35,3.82-9.71,3.82-9.71s-4.86-6.1,3.12-17c0,0-13.17,5.26-9.37,16,0,0-8.48,5.71-3.47,14.57a10.7,10.7,0,0,0,10.76,4.86s-.76,7.53,8.32,9a70.22,70.22,0,0,1-3.81-11.8S79.24,727,78.69,719.64Zm22.2-67.3c-20.91.8-12.14,14.23-12.14,14.23C76.38,680.8,90.14,687,90.14,687c-6.79-13.71,3.12-17.69,3.12-17.69-2.67-8.94,3.22-13.89,14.92-14.57-4.43-14.87,10.75-17.34,10.75-17.34C97.39,638.82,100.89,652.34,100.89,652.34ZM122.05,627s-6-9.22-17-8-13.52,11.45-13.52,11.45-15-10.6-18.39,4.85c0,0-17.2-2.43-16,13.53,0,0-22-1.89-13.53,20.12,0,0-16.85,4.54-6.24,16.66,0,0-12.33,11.6.28,18.23-4.13-6.25,4-13.92,4-13.92-10.2-11.64,6-16,6-16-8.18-21.14,13-19.33,13-19.33-1.19-15.33,15.33-13,15.33-13C79.32,626.79,93.7,637,93.7,637s2.38-9.8,13-11S123,633.64,123,633.64C124,631,122.07,627.73,122.05,627Z"/></g><g id="Forma_3264-3" data-name="Forma 3264"><path class="cls-1" d="M767.65,696.05c-2.13-11.78-10.76-8.67-10.76-8.67s8.72-6.85,2.08-17.69-16-6.25-16-6.25,6.55-5.59.69-14.91-16.65-3.47-16.65-3.47,3-15.35-15.27-10.76c0,0,0-16.39-19.42-7.28,0,0-6-9.22-17-8s-13.53,11.45-13.53,11.45-15-10.6-18.39,4.85c0,0-17.19-2.43-16,13.53,0,0-22-1.89-13.53,20.12,0,0-16.86,4.54-6.25,16.66,0,0-13.43,12.64,2.08,19.08,0,0-4.85,7.53-.34,15.26a10.91,10.91,0,0,0,12.14,5.55s-2.6,19.67,17,13.18c0,0,5.83,20.07,22.89,9.37,0,0-1,7,6.94,8.33a9.73,9.73,0,0,0,10.75-5.21s4,11.12,14.92,8.67,11.45-8,11.45-8,8.48,7,17.69,3.46,5.55-9.71,5.55-9.71,17.34,7.24,17-9.71c0,0,27.51,4.15,15.61-25.67C761.4,710.28,769.77,707.83,767.65,696.05Z"/></g><g id="Forma_3264_copia_2-3" data-name="Forma 3264 copia 2"><path class="cls-2" d="M722.2,647.49a32.27,32.27,0,0,1,5.55-2.78c.32-5.09-1.2-13-13.36-11C724.08,634.67,722.2,647.49,722.2,647.49Zm-95.73,91.35c2.06,1.16,8.38,1.75,12.12,0a19.8,19.8,0,0,1-.73-2C634.48,738,628.64,739.06,626.47,738.84Zm112-90.26c5.78,9.2-.69,14.72-.69,14.72a11.79,11.79,0,0,1,6.14-.85c1.56-2,4.19-6.9-.22-13.92-3.46-5.5-8.64-5.72-12.3-5A10.4,10.4,0,0,1,738.48,648.58Zm15.06,20.89c6.55,10.7-2,17.46-2,17.46a7.9,7.9,0,0,1,5.56.32c1.13-1,8-7.58,1.92-17.56-4.59-7.5-10.46-7.61-13.65-7C748,663.42,751,665.27,753.54,669.47ZM646.86,749.89c2.77,1.5,8.5,2.56,14.29-1.45a33.48,33.48,0,0,1,.35-3.66C657.37,747.37,649.74,750.21,646.86,749.89Zm120.79-53.84c-1.91-10.56-9-9.15-10.5-8.75,2.05,1,4.07,3.3,5,8.19,2.09,11.63-6.16,14-6.16,14,11.74,29.44-15.41,25.34-15.41,25.34.21,10.35-6.26,11.57-11.23,11,2.87,1,16.8,5.3,16.49-9.91,0,0,27.51,4.15,15.61-25.67C761.4,710.28,769.77,707.83,767.65,696.05Zm-43.89,48.41s3.61,6.1-5.48,9.59a15.26,15.26,0,0,1-7.55.83,16.78,16.78,0,0,0,12.51.49c8.4-3.22,6.1-8.64,5.63-9.57A23,23,0,0,1,723.76,744.46ZM698.92,624.68c8,.79,8,10.66,8,10.66a11.75,11.75,0,0,1,4.85-1.38C711.6,631.56,710.11,622.22,698.92,624.68Zm-34.1,130.48a13.26,13.26,0,0,0,3.61,1.26c5.46,1.35,9.44-2.94,11.1-4.51-1.07-2.25-2-4.4-2-4.4S672.18,756,664.82,755.16Zm27.55-127.79c-2.23-3.45-8.43-9.29-17-8.33a18.61,18.61,0,0,0-2,.33c9.37.21,14.45,9.38,14.45,9.38A16.11,16.11,0,0,1,692.37,627.37ZM689.52,758.5a13,13,0,0,1-4,.3,11.92,11.92,0,0,0,8.56,1.08c7.53-1.58,10.76-4.62,12.14-8a35.77,35.77,0,0,1-2.42-5.9S700.26,756.09,689.52,758.5Z"/></g><g id="Forma_3264_copia_3-3" data-name="Forma 3264 copia 3"><path class="cls-3" d="M650.6,660.27a2,2,0,0,0-.53-.09Zm-16.32,5a7.16,7.16,0,0,0-.74,5.92c-10.34,1.94-11.22,7.15-10.95,10.65a10.87,10.87,0,0,0,2.38,5.88c-1.94,10.25-1.41,14.64,1,17.51,2.19,2.71,6.27,3.91,6.34,4-5.73-6.93-6.05-11.62-5.56-15s2-5.4,2.21-5.24c-4.09-8.07-.6-15.31,12.68-16-3.23-6.39-.3-10,2.66-11.51a11,11,0,0,1,5.76-1.15C640.72,658.68,636,662.25,634.28,665.22ZM614,708.29a15.41,15.41,0,0,1-4.64-2.81c-1.08,2.1-3.58,8.24.08,14.51a11.32,11.32,0,0,0,5.81,5.15,13.61,13.61,0,0,1-1.58-2.18C609.36,715.53,614,708.29,614,708.29ZM677,626c10.61-1.19,16.33,7.67,16.33,7.67.94-2.6-1-5.91-1-6.62,0,0-6-9.22-17-8s-13.53,11.45-13.53,11.45-15-10.6-18.39,4.85c0,0-17.19-2.43-16,13.53,0,0-22-1.89-13.53,20.12,0,0-16.86,4.54-6.25,16.66,0,0-12.32,11.6.28,18.23-4.13-6.25,4-13.92,4-13.92-10.19-11.64,6-16,6-16-8.19-21.14,13-19.33,13-19.33-1.19-15.33,15.33-13,15.33-13C649.64,626.79,664,637,664,637S666.39,627.17,677,626Zm8.44,25.48s-8.92-5-14.57,3.46a10.66,10.66,0,0,0,.5,11.79s-7.07,2.71-4.31,11.49a69.82,69.82,0,0,1,8.81-8.71s-5.27-7.22,1.06-11,10.39-1,10.39-1,3.26-7.09,16.58-4.86C703.91,652.64,693.29,643.25,685.45,651.45Z"/></g></svg>