<?xml version="1.0" encoding="UTF-8"?>
<svg version="1.1" xmlns="http://www.w3.org/2000/svg" width="512" height="512">
<path d="M0 0 C4.89731347 3.26150979 9.35820177 6.36307385 11.46875 12.125 C12.44874214 17.04294223 13.18237255 23.68603615 10.89453125 28.26171875 C11.51714844 28.38546875 12.13976562 28.50921875 12.78125 28.63671875 C49.19867175 36.76334006 83.19911074 57.62680125 109.89453125 83.26171875 C110.44995605 83.7923291 111.00538086 84.32293945 111.57763672 84.86962891 C115.87561131 89.05615257 119.64703736 93.48275575 123.26953125 98.26171875 C123.83115967 99.00228516 124.39278809 99.74285156 124.97143555 100.50585938 C140.29220697 121.01821992 150.08722064 143.89813752 155.64453125 168.82421875 C155.84328857 169.70867676 156.0420459 170.59313477 156.24682617 171.50439453 C159.39149651 186.4041742 160.22338881 201.11220758 160.15527344 216.29931641 C160.14456862 219.12684695 160.15523001 221.95373872 160.16796875 224.78125 C160.20432162 269.98702795 160.20432162 269.98702795 147.89453125 283.26171875 C134.25620228 293.85287227 110.44963934 287.80671437 94.45420837 286.19628906 C86.62949636 285.40896181 78.83206235 284.81813373 70.9765625 284.47265625 C68.19306792 284.28215092 65.60990643 283.88559026 62.89453125 283.26171875 C62.6315625 283.83277344 62.36859375 284.40382813 62.09765625 284.9921875 C41.94662382 323.00436231 -7.35781777 351.09982042 -46.8125 363.46875 C-80.46143954 373.4339112 -125.29506221 378.38490642 -157.39404297 361.02392578 C-164.5449594 356.93367839 -171.47144751 352.49706588 -178.16796875 347.69921875 C-208.76692629 325.82779893 -246.26857245 317.1198478 -283.50732422 317.02148438 C-285.70579597 317.01182713 -287.90331059 316.98072785 -290.1015625 316.94921875 C-304.83742733 316.83845612 -318.5953737 319.09454892 -332.10546875 325.26171875 C-332.43546875 325.59171875 -332.76546875 325.92171875 -333.10546875 326.26171875 C-340.14393029 326.83864183 -340.14393029 326.83864183 -343.60546875 324.76171875 C-345.2908315 321.95278084 -345.91662786 319.6841376 -345.74487305 316.39160156 C-343.57084135 309.14980984 -333.88498602 303.55506477 -328.04296875 299.26171875 C-327.18300293 298.62363281 -326.32303711 297.98554688 -325.43701172 297.328125 C-310.70617271 286.46853037 -295.54096751 276.21565155 -280.40844727 265.92822266 C-273.46677687 261.20466362 -266.5599389 256.43247306 -259.66796875 251.63671875 C-258.71470703 250.97349609 -257.76144531 250.31027344 -256.77929688 249.62695312 C-255.00453741 248.39007644 -253.23658163 247.14335846 -251.47680664 245.88525391 C-249.10546875 244.26171875 -249.10546875 244.26171875 -246.96655273 243.11865234 C-243.87816907 241.38858372 -242.41735341 240.21111172 -241.29077148 236.78173828 C-240.71334835 233.56901205 -240.35379281 230.38603452 -240.04296875 227.13671875 C-239.74372982 224.68910621 -239.43619733 222.24249574 -239.12109375 219.796875 C-238.96189453 218.54535645 -238.80269531 217.29383789 -238.63867188 216.00439453 C-231.16425308 163.53972416 -210.00538264 102.26070935 -166.10546875 69.26171875 C-165.58259277 68.86388184 -165.0597168 68.46604492 -164.52099609 68.05615234 C-132.21794363 43.61188796 -83.05231596 22.57249238 -42.10546875 24.26171875 C-41.97591797 22.99328125 -41.97591797 22.99328125 -41.84375 21.69921875 C-40.74626996 12.83882945 -39.25352504 6.61546639 -32.16796875 0.88671875 C-22.80246547 -4.08273197 -9.56384039 -5.21165298 0 0 Z " fill="#149F84" transform="translate(345.10546875,71.73828125)"/>
<path d="M0 0 C7.18209221 1.90594785 14.4187158 3.58482179 21.65673828 5.26318359 C24.57389031 5.94018907 27.48929948 6.62444957 30.40478516 7.30859375 C67.13215018 15.89537394 103.70107343 23.67915558 141.32666016 26.8828125 C142.5079248 26.98577637 143.68918945 27.08874023 144.90625 27.19482422 C151.71085969 27.78608269 158.51710737 28.35151667 165.32666016 28.8828125 C147.83644404 64.8918047 100.92177754 93.13176856 64.71923828 106.09619141 C29.88819297 118.06161361 -15.77927159 124.49241251 -50.56835938 108.91357422 C-59.41459201 104.58177253 -67.74053038 99.04870061 -75.73583984 93.3203125 C-106.33479739 71.44889268 -143.83644355 62.74094155 -181.07519531 62.64257812 C-183.27366706 62.63292088 -185.47118169 62.6018216 -187.66943359 62.5703125 C-202.40529843 62.45954987 -216.16324479 64.71564267 -229.67333984 70.8828125 C-230.16833984 71.3778125 -230.16833984 71.3778125 -230.67333984 71.8828125 C-237.71180138 72.45973558 -237.71180138 72.45973558 -241.17333984 70.3828125 C-242.85870259 67.57387459 -243.48449896 65.30523135 -243.31274414 62.01269531 C-241.13871245 54.77090359 -231.45285711 49.17615852 -225.61083984 44.8828125 C-224.75087402 44.24472656 -223.8909082 43.60664063 -223.00488281 42.94921875 C-208.2740438 32.08962412 -193.1088386 21.8367453 -177.97631836 11.54931641 C-171.03464796 6.82575737 -164.12780999 2.05356681 -157.23583984 -2.7421875 C-155.80594727 -3.73702148 -155.80594727 -3.73702148 -154.34716797 -4.75195312 C-153.44546875 -5.38037109 -152.54376953 -6.00878906 -151.61474609 -6.65625 C-150.76041992 -7.24865479 -149.90609375 -7.84105957 -149.02587891 -8.45141602 C-147.56464715 -9.48607607 -146.11997749 -10.54510368 -144.70361328 -11.64038086 C-113.47925744 -35.68209578 -34.43100671 -9.27332985 0 0 Z " fill="#454F5C" transform="translate(242.67333984375,326.1171875)"/>
<path d="M0 0 C4.89731347 3.26150979 9.35820177 6.36307385 11.46875 12.125 C12.44874214 17.04294223 13.18237255 23.68603615 10.89453125 28.26171875 C11.51714844 28.38546875 12.13976562 28.50921875 12.78125 28.63671875 C49.19867175 36.76334006 83.19911074 57.62680125 109.89453125 83.26171875 C110.44995605 83.7923291 111.00538086 84.32293945 111.57763672 84.86962891 C115.87561131 89.05615257 119.64703736 93.48275575 123.26953125 98.26171875 C123.83115967 99.00228516 124.39278809 99.74285156 124.97143555 100.50585938 C140.29220697 121.01821992 150.08722064 143.89813752 155.64453125 168.82421875 C155.94266724 170.15090576 155.94266724 170.15090576 156.24682617 171.50439453 C159.39149651 186.4041742 160.22338881 201.11220758 160.15527344 216.29931641 C160.14456862 219.12684695 160.15523001 221.95373872 160.16796875 224.78125 C160.20432162 269.98702795 160.20432162 269.98702795 147.89453125 283.26171875 C135.54693537 292.85052423 114.85717967 288.20589805 100.54119873 286.74771118 C85.57141289 285.22807231 70.57877542 284.26371439 55.56103516 283.35229492 C42.64692806 282.55964388 29.77304541 281.5057453 16.89453125 280.26171875 C17.88453125 279.93171875 18.87453125 279.60171875 19.89453125 279.26171875 C20.12140625 277.98296875 20.34828125 276.70421875 20.58203125 275.38671875 C21.37858982 271.37607419 22.38006663 267.46864696 23.51928711 263.54199219 C26.05174948 254.81236401 28.12288444 246.02620953 30.01953125 237.13671875 C30.2609082 236.00637207 30.50228516 234.87602539 30.75097656 233.71142578 C36.70074638 205.41542745 40.28240968 177.70127661 40.26953125 148.76171875 C40.27125336 147.77323944 40.27297546 146.78476013 40.27474976 145.7663269 C40.26712795 107.19235984 33.92258827 67.44606454 6.2734375 38.51953125 C3.58049155 35.94774832 0.79145732 33.59986702 -2.10546875 31.26171875 C-3.41064453 30.05902344 -3.41064453 30.05902344 -4.7421875 28.83203125 C-15.62495551 20.25053069 -29.07744615 23.00748986 -42.10546875 24.26171875 C-41.82860186 22.1888005 -41.53982773 20.1174705 -41.24609375 18.046875 C-41.08657227 16.89324463 -40.92705078 15.73961426 -40.76269531 14.55102539 C-39.55273592 8.4953854 -36.91380132 4.72377487 -32.16796875 0.88671875 C-22.80246547 -4.08273197 -9.56384039 -5.21165298 0 0 Z " fill="#32907B" transform="translate(345.10546875,71.73828125)"/>
<path d="M0 0 C0.71800781 0.00451172 1.43601562 0.00902344 2.17578125 0.01367188 C3.90889208 0.02522595 5.6419587 0.04314842 7.375 0.0625 C4.2071936 1.84647518 0.89783093 2.88877254 -2.56347656 3.96411133 C-42.04225849 16.31895193 -71.32395697 44.70093427 -91.625 80.0625 C-92.06021973 80.81917969 -92.49543945 81.57585937 -92.94384766 82.35546875 C-116.08879064 123.19850596 -128.4650777 171.47519248 -132.625 218.0625 C-137.3631926 217.60689277 -142.0963521 217.14597503 -146.81640625 216.52734375 C-157.86463297 215.15218807 -168.81940353 214.86905832 -179.9375 214.875 C-180.66236603 214.87418427 -181.38723206 214.87336853 -182.13406372 214.87252808 C-189.05366964 214.87340989 -195.76717687 215.00560804 -202.625 216.0625 C-204.26985066 216.12306151 -205.91672957 216.15031955 -207.5625 216.125 C-208.33464844 216.11597656 -209.10679687 216.10695313 -209.90234375 216.09765625 C-210.75505859 216.08025391 -210.75505859 216.08025391 -211.625 216.0625 C-211.82292966 209.59172267 -211.09480505 203.55985375 -210 197.1875 C-209.82178711 196.1444873 -209.64357422 195.10147461 -209.45996094 194.02685547 C-203.47100872 160.02359121 -193.9867688 126.59372179 -177.625 96.0625 C-177.30563477 95.46244141 -176.98626953 94.86238281 -176.65722656 94.24414062 C-166.55343046 75.43159031 -153.77376349 58.95300103 -136.625 46.0625 C-136.10212402 45.66466309 -135.57924805 45.26682617 -135.04052734 44.85693359 C-97.99509822 16.82403284 -46.47533316 -0.57322517 0 0 Z " fill="#26B899" transform="translate(315.625,94.9375)"/>
<path d="M0 0 C4.89731347 3.26150979 9.35820177 6.36307385 11.46875 12.125 C12.44874214 17.04294223 13.18237255 23.68603615 10.89453125 28.26171875 C7.503583 27.75496337 4.20031742 27.10726867 0.8828125 26.25390625 C-13.57298114 22.71026812 -27.3334056 23.20037305 -42.10546875 24.26171875 C-41.82860186 22.1888005 -41.53982773 20.1174705 -41.24609375 18.046875 C-41.08657227 16.89324463 -40.92705078 15.73961426 -40.76269531 14.55102539 C-39.55273592 8.4953854 -36.91380132 4.72377487 -32.16796875 0.88671875 C-22.80246547 -4.08273197 -9.56384039 -5.21165298 0 0 Z " fill="#2B3E50" transform="translate(345.10546875,71.73828125)"/>
<path d="M0 0 C0.66 0.33 1.32 0.66 2 1 C-4.93 7.93 -11.86 14.86 -19 22 C-19 17.83256273 -16.7220201 16.1175327 -14 13.25 C-13.50395264 12.71793945 -13.00790527 12.18587891 -12.49682617 11.63769531 C-8.56892151 7.476431 -4.4406485 3.61359362 0 0 Z " fill="#29AD86" transform="translate(176,143)"/>
</svg>
