<?xml version="1.0" encoding="UTF-8"?>
<svg version="1.1" xmlns="http://www.w3.org/2000/svg" width="512" height="512">
<path d="M0 0 C0.59586914 0.43948975 1.19173828 0.87897949 1.80566406 1.33178711 C13.16591396 9.78518525 24.53254284 18.75845411 33.65234375 29.6484375 C34.38130859 30.50308594 34.38130859 30.50308594 35.125 31.375 C35.52976562 31.88933594 35.93453125 32.40367188 36.3515625 32.93359375 C39.06882006 35.14211366 42.28497521 35.97062869 45.5625 37.0625 C53.24331581 39.78568255 59.61785913 43.41903664 66.125 48.375 C66.85074219 48.90609375 67.57648438 49.4371875 68.32421875 49.984375 C80.71825202 59.82168235 89.56979874 76.9417984 91.37695312 92.55126953 C91.69817618 95.85460321 91.9931335 99.16005471 92.28808594 102.46582031 C92.81077873 107.75362414 93.84713149 112.02646957 96.109375 116.86328125 C100.63545094 128.05661522 101.31925648 141.42745605 101.03430176 153.36952209 C100.64684045 170.55698471 102.54938417 187.47792876 104.36993408 204.53820801 C105.04824126 210.91874285 105.7038914 217.30164631 106.35972595 223.68452263 C106.58791311 225.88511634 106.82227035 228.08498037 107.05773926 230.2848053 C107.73098172 236.66948116 108.32757261 242.95003761 108.125 249.375 C108.69605469 249.38917969 109.26710938 249.40335937 109.85546875 249.41796875 C121.23372772 250.0872781 132.0161721 254.23334284 140.125 262.375 C142.51804529 265.20802222 144.37942666 268.10669247 146.125 271.375 C146.53878906 272.1278125 146.95257813 272.880625 147.37890625 273.65625 C152.53252727 285.00499036 151.67453756 299.8027393 148.0625 311.5 C142.04407998 326.96869191 132.43396495 337.65568295 117.41796875 344.6328125 C105.69143718 349.22075782 92.78872855 348.81096776 80.99609375 344.64453125 C76.62500427 342.71173658 72.89133389 340.29755237 69.125 337.375 C67.578125 336.26125 67.578125 336.26125 66 335.125 C57.25899674 326.76404036 51.70357776 315.94933266 50.88671875 303.84375 C50.66990967 292.25016963 51.91890853 281.64092448 59.26953125 272.15625 C60.50001487 269.59414712 59.84586454 268.0863002 59.125 265.375 C58.07883522 263.25214535 58.07883522 263.25214535 56.7109375 261.20703125 C56.20457764 260.40942383 55.69821777 259.61181641 55.17651367 258.79003906 C54.62326416 257.93120117 54.07001465 257.07236328 53.5 256.1875 C21.125 204.8425246 21.125 204.8425246 21.125 191.375 C18.20847826 191.20818891 18.20847826 191.20818891 15.125 191.375 C12.17393831 194.32606169 12.21494294 196.58050406 11.75 200.6875 C11.80778381 205.04605043 13.01554461 209.06006046 14.3125 213.1875 C14.60664795 214.17520386 14.60664795 214.17520386 14.90673828 215.18286133 C16.41129359 219.67401088 17.97690122 221.2508528 22.125 223.375 C23.3988305 225.77568055 24.28774152 227.82472993 25.125 230.375 C25.49238281 231.49261719 25.49238281 231.49261719 25.8671875 232.6328125 C29.72250067 244.99366195 32.26205152 256.89317619 32.328125 269.8515625 C32.33382507 270.73927338 32.33952515 271.62698425 32.34539795 272.54159546 C32.35479456 274.41232126 32.36136053 276.28306321 32.36523438 278.15380859 C32.37490164 280.97133342 32.40596063 283.78811569 32.4375 286.60546875 C32.49643606 296.9597117 31.93642404 306.33995476 29.125 316.375 C28.465 316.375 27.805 316.375 27.125 316.375 C27.125 317.035 27.125 317.695 27.125 318.375 C25.949375 318.4678125 25.949375 318.4678125 24.75 318.5625 C23.88375 318.830625 23.0175 319.09875 22.125 319.375 C20.87785597 321.78452023 20.87785597 321.78452023 20.125 324.375 C17.90653728 326.59346272 16.71132309 326.91374597 13.75 327.75 C10.58702737 328.72554323 9.34570081 329.13423548 7.0625 331.625 C5.125 333.375 5.125 333.375 1.4609375 333.203125 C-2.90043694 332.54869774 -6.32607456 330.92530529 -10.1875 328.875 C-15.77220785 326.06826876 -20.45754934 324.57805577 -26.80078125 324.4453125 C-28.875 324.375 -28.875 324.375 -30.875 323.375 C-30.875 322.715 -30.875 322.055 -30.875 321.375 C-31.865 321.045 -32.855 320.715 -33.875 320.375 C-34.205 319.715 -34.535 319.055 -34.875 318.375 C-36.195 319.035 -37.515 319.695 -38.875 320.375 C-39.205 320.045 -39.535 319.715 -39.875 319.375 C-45.4797709 319.16173597 -45.4797709 319.16173597 -50.875 320.375 C-52.9609375 319.1171875 -52.9609375 319.1171875 -55.25 317.25 C-56.04019531 316.60675781 -56.83039063 315.96351563 -57.64453125 315.30078125 C-60.19694019 313.09703763 -62.56705866 310.83184078 -64.875 308.375 C-65.7103125 308.8390625 -65.7103125 308.8390625 -66.5625 309.3125 C-69.17372738 310.51225312 -70.9878438 311.23751637 -73.875 311.375 C-74.844375 310.715 -75.81375 310.055 -76.8125 309.375 C-79.706659 307.02813429 -79.706659 307.02813429 -83 307.6875 C-84.423125 308.0278125 -84.423125 308.0278125 -85.875 308.375 C-86.81279297 308.13136719 -86.81279297 308.13136719 -87.76953125 307.8828125 C-90.8875214 307.13079261 -93.62592876 307.8047472 -96.75390625 308.31640625 C-98.875 308.375 -98.875 308.375 -101.875 306.375 C-103.87961288 305.77676573 -103.87961288 305.77676573 -106.0625 305.375 C-108.9663589 304.78899604 -111.78560992 304.12708032 -114.6484375 303.34765625 C-118.87492323 302.28102589 -122.96893753 301.9784394 -127.3125 301.8125 C-128.81518711 301.73997993 -130.31779414 301.66577976 -131.8203125 301.58984375 C-132.52704102 301.55487793 -133.23376953 301.51991211 -133.96191406 301.48388672 C-136.8995288 301.31668711 -139.80552034 300.98842157 -142.72265625 300.61328125 C-144.35050205 300.43306602 -145.98556642 300.31654914 -147.62109375 300.23046875 C-153.18165939 299.91953985 -157.9160161 299.14943427 -163.1875 297.3125 C-169.10112642 295.37383473 -174.12812289 295.09850363 -180.31738281 295.3137207 C-185.49023224 295.43402625 -190.63148408 295.15178853 -195.796875 294.89453125 C-207.57695275 294.35854782 -219.33520797 294.22096862 -231.1262207 294.24462891 C-234.36348969 294.25008595 -237.60062527 294.24458745 -240.83789062 294.23828125 C-242.93229197 294.23894069 -245.02669323 294.24021907 -247.12109375 294.2421875 C-248.07116806 294.24016327 -249.02124237 294.23813904 -250.00010681 294.23605347 C-255.01051097 294.25354608 -259.88883616 294.49702203 -264.8585968 295.14794922 C-268.44116252 295.55135284 -272.02386568 295.52298006 -275.625 295.5 C-276.79397827 295.49492432 -276.79397827 295.49492432 -277.98657227 295.48974609 C-287.61901382 295.40465211 -296.90474862 294.62944297 -306.36328125 292.79296875 C-311.38568675 291.95720298 -315.49420461 291.45446974 -319.875 294.375 C-323.42841917 294.95123014 -324.75032814 294.45032258 -327.875 292.5625 C-329.36 291.4796875 -329.36 291.4796875 -330.875 290.375 C-334.44867654 287.99254897 -335.44328236 287.375 -339.875 287.375 C-341.9052589 286.43795743 -343.91196582 285.44574592 -345.875 284.375 C-345.875 285.365 -345.875 286.355 -345.875 287.375 C-347.6875 287.1875 -347.6875 287.1875 -349.875 286.375 C-350.349375 285.529375 -350.82375 284.68375 -351.3125 283.8125 C-351.828125 283.008125 -352.34375 282.20375 -352.875 281.375 C-354.54114608 281.33334635 -356.20885392 281.33334635 -357.875 281.375 C-363.87765311 275.37234689 -362.11616307 265.66787383 -362.12805176 257.8744812 C-362.07935525 210.2614672 -362.07935525 210.2614672 -350.875 194.375 C-349.43262052 192.14877659 -347.99520217 189.91990819 -346.5625 187.6875 C-345.97710449 186.78209473 -345.97710449 186.78209473 -345.37988281 185.85839844 C-343.50978886 182.95937115 -341.68136125 180.05124216 -339.91015625 177.08984375 C-339.02650391 175.62224609 -339.02650391 175.62224609 -338.125 174.125 C-337.35929687 172.81789063 -337.35929687 172.81789063 -336.578125 171.484375 C-334.51499484 168.92912205 -333.04383443 168.17206878 -329.875 167.375 C-327.890625 167.77734375 -327.890625 167.77734375 -325.875 168.375 C-324.120868 168.29260895 -322.36888075 168.14401219 -320.625 167.9375 C-319.73296875 167.83566406 -318.8409375 167.73382813 -317.921875 167.62890625 C-317.24640625 167.54511719 -316.5709375 167.46132813 -315.875 167.375 C-315.74867188 166.76011719 -315.62234375 166.14523437 -315.4921875 165.51171875 C-314.65210429 162.6033294 -313.15263901 161.3176921 -310.875 159.375 C-309.885 159.045 -308.895 158.715 -307.875 158.375 C-306.69911782 156.23297055 -306.69911782 156.23297055 -305.78125 153.546875 C-305.39662598 152.52988525 -305.01200195 151.51289551 -304.61572266 150.46508789 C-304.00156494 148.81174438 -304.00156494 148.81174438 -303.375 147.125 C-291.87977824 117.40248956 -274.89426216 91.34648637 -252.875 68.375 C-252.37242676 67.84519531 -251.86985352 67.31539063 -251.35205078 66.76953125 C-243.44673977 58.47252674 -235.10732594 51.16083865 -225.875 44.375 C-224.81539062 43.59382813 -223.75578125 42.81265625 -222.6640625 42.0078125 C-212.15699275 34.51017507 -201.10895719 28.23148781 -189.33691406 22.94921875 C-179.79756927 18.7296157 -179.79756927 18.7296157 -172.56640625 11.40625 C-158.02094698 -6.06173804 -128.39732329 -13.72797725 -106.9453125 -16.15625 C-75.29825016 -18.99513021 -26.157547 -19.8482853 0 0 Z " fill="#E04B4B" transform="translate(361.875,90.625)"/>
<path d="M0 0 C0.495 1.98 0.495 1.98 1 4 C1.515625 4.103125 2.03125 4.20625 2.5625 4.3125 C7.06297506 5.58186476 11.11449231 7.40966154 15 10 C16.99558607 10.48280308 18.99154509 10.96437848 20.9921875 11.42578125 C23.63284518 12.1809888 25.74714232 13.45116034 28 15 C28.33 14.01 28.66 13.02 29 12 C31.96175123 12.61277612 33.38058783 13.25372522 36 15 C42.76387949 15 48.01696551 10.37084458 53.09375 6.3359375 C55.91993738 4.35528979 57.62176141 4.45948183 61 5 C61.99 5.845625 62.98 6.69125 64 7.5625 C66.74471696 10.28875002 66.74471696 10.28875002 70 10.125 C73.20966359 9.11593686 73.20966359 9.11593686 76 6.4375 C79 4 79 4 82 3.4375 C87.27136928 4.42588174 90.51982002 7.42644257 94.0625 11.25 C96.12330636 13.38633329 96.67442728 13.93942833 99.6875 14.5 C102.25925643 14.09173572 102.25925643 14.09173572 105 12 C107.6875 12.375 107.6875 12.375 110 13 C110 13.66 110 14.32 110 15 C110.55300781 14.67386719 111.10601562 14.34773438 111.67578125 14.01171875 C114.36279578 12.84207713 116.2701304 12.76509813 119.1875 12.8125 C120.06792969 12.81894531 120.94835937 12.82539063 121.85546875 12.83203125 C124 13 124 13 125 14 C130.86696793 14.57238711 136.48327331 13.05914002 141.0625 9.3125 C144.05815304 7.28318665 146.48803403 7.61687644 150 8 C151.9375 9.375 151.9375 9.375 153 11 C153 11.66 153 12.32 153 13 C153.66 12.67 154.32 12.34 155 12 C158.76428942 10.74523686 162.06539139 10.44023094 166 11 C166.763125 11.495 167.52625 11.99 168.3125 12.5 C171.41760483 14.23308176 172.87236251 14.11437184 176.375 14 C181.35142286 13.85324222 184.49863907 14.74931953 189 17 C190.794375 17.495 190.794375 17.495 192.625 18 C196 19 196 19 198.6875 20.6875 C200.85714708 22.19679769 200.85714708 22.19679769 203.0625 21.875 C205.11643214 21.04665901 205.11643214 21.04665901 207 19.375 C209 18 209 18 210.984375 18.16796875 C213.62930853 19.25977271 214.07860947 20.36694856 215.25 22.9375 C215.58515625 23.64777344 215.9203125 24.35804688 216.265625 25.08984375 C217 27 217 27 217 29 C217.62003906 28.94199219 218.24007813 28.88398438 218.87890625 28.82421875 C225.75959134 28.47367439 231.21184393 29.90873945 237.5769043 32.29394531 C241.31722539 33.63247568 243.97436444 34.24217657 247.875 33.4375 C250.65671181 32.87385108 251.67006687 32.83816752 254.26171875 34.109375 C255.80029751 35.16469897 257.31522638 36.25532321 258.8046875 37.37890625 C261.44987651 39.33220418 264.19697262 40.6581772 267.16015625 42.0546875 C269 43 269 43 272.125 45.25 C275.44382106 47.27015195 277.18228061 47.50902925 281 47 C281.99 46.34 282.98 45.68 284 45 C289.75784417 44.34816858 292.49615536 45.45442018 297 49 C297.79277344 49.61294922 297.79277344 49.61294922 298.6015625 50.23828125 C300.86448472 52.03858637 302.78628063 53.66326773 304.34375 56.1171875 C305.87180615 58.2301164 305.87180615 58.2301164 308.48828125 58.5390625 C309.88626953 58.58160156 309.88626953 58.58160156 311.3125 58.625 C315.56192369 58.86574469 319.01981699 59.38897354 323 61 C323.886875 61.28875 324.77375 61.5775 325.6875 61.875 C329.43594125 63.69856601 330.70078157 66.14634743 332.0625 70.03125 C332.5265625 71.74828125 332.5265625 71.74828125 333 73.5 C333.33644531 74.74007812 333.67289062 75.98015625 334.01953125 77.2578125 C334.34308594 78.49273437 334.66664063 79.72765625 335 81 C335.29261719 82.09054687 335.58523438 83.18109375 335.88671875 84.3046875 C338.17635061 93.08347112 339.1569947 101.42944845 339.203125 110.4765625 C339.20882507 111.36427338 339.21452515 112.25198425 339.22039795 113.16659546 C339.22979456 115.03732126 339.23636053 116.90806321 339.24023438 118.77880859 C339.24990164 121.59633342 339.28096063 124.41311569 339.3125 127.23046875 C339.37143606 137.5847117 338.81142404 146.96495476 336 157 C335.34 157 334.68 157 334 157 C334 157.66 334 158.32 334 159 C333.21625 159.061875 332.4325 159.12375 331.625 159.1875 C330.75875 159.455625 329.8925 159.72375 329 160 C327.75285597 162.40952023 327.75285597 162.40952023 327 165 C324.78153728 167.21846272 323.58632309 167.53874597 320.625 168.375 C317.46202737 169.35054323 316.22070081 169.75923548 313.9375 172.25 C312 174 312 174 308.3359375 173.828125 C303.97456306 173.17369774 300.54892544 171.55030529 296.6875 169.5 C291.10279215 166.69326876 286.41745066 165.20305577 280.07421875 165.0703125 C278 165 278 165 276 164 C276 163.34 276 162.68 276 162 C275.01 161.67 274.02 161.34 273 161 C272.67 160.34 272.34 159.68 272 159 C270.02 159.99 270.02 159.99 268 161 C267.67 160.67 267.34 160.34 267 160 C261.3952291 159.78673597 261.3952291 159.78673597 256 161 C253.9140625 159.7421875 253.9140625 159.7421875 251.625 157.875 C250.83480469 157.23175781 250.04460937 156.58851563 249.23046875 155.92578125 C246.67805981 153.72203763 244.30794134 151.45684078 242 149 C241.443125 149.309375 240.88625 149.61875 240.3125 149.9375 C237.70127262 151.13725312 235.8871562 151.86251637 233 152 C232.030625 151.34 231.06125 150.68 230.0625 150 C227.168341 147.65313429 227.168341 147.65313429 223.875 148.3125 C222.451875 148.6528125 222.451875 148.6528125 221 149 C220.06220703 148.75636719 220.06220703 148.75636719 219.10546875 148.5078125 C215.9874786 147.75579261 213.24907124 148.4297472 210.12109375 148.94140625 C208 149 208 149 205 147 C202.99538712 146.40176573 202.99538712 146.40176573 200.8125 146 C197.9086411 145.41399604 195.08939008 144.75208032 192.2265625 143.97265625 C188.00007677 142.90602589 183.90606247 142.6034394 179.5625 142.4375 C178.05981289 142.36497993 176.55720586 142.29077976 175.0546875 142.21484375 C174.34795898 142.17987793 173.64123047 142.14491211 172.91308594 142.10888672 C169.9754712 141.94168711 167.06947966 141.61342157 164.15234375 141.23828125 C162.52449795 141.05806602 160.88943358 140.94154914 159.25390625 140.85546875 C153.69334061 140.54453985 148.9589839 139.77443427 143.6875 137.9375 C137.77387358 135.99883473 132.74687711 135.72350363 126.55761719 135.9387207 C121.38476776 136.05902625 116.24351592 135.77678853 111.078125 135.51953125 C99.29804725 134.98354782 87.53979203 134.84596862 75.7487793 134.86962891 C72.51151031 134.87508595 69.27437473 134.86958745 66.03710938 134.86328125 C63.94270803 134.86394069 61.84830677 134.86521907 59.75390625 134.8671875 C58.80383194 134.86516327 57.85375763 134.86313904 56.87489319 134.86105347 C51.86448903 134.87854608 46.98616384 135.12202203 42.0164032 135.77294922 C38.43383748 136.17635284 34.85113432 136.14798006 31.25 136.125 C30.08102173 136.11992432 30.08102173 136.11992432 28.88842773 136.11474609 C19.25598618 136.02965211 9.97025138 135.25444297 0.51171875 133.41796875 C-4.51068675 132.58220298 -8.61920461 132.07946974 -13 135 C-16.55341917 135.57623014 -17.87532814 135.07532258 -21 133.1875 C-21.99 132.465625 -22.98 131.74375 -24 131 C-27.57367654 128.61754897 -28.56828236 128 -33 128 C-35.0302589 127.06295743 -37.03696582 126.07074592 -39 125 C-39 125.99 -39 126.98 -39 128 C-40.8125 127.8125 -40.8125 127.8125 -43 127 C-43.474375 126.154375 -43.94875 125.30875 -44.4375 124.4375 C-44.953125 123.633125 -45.46875 122.82875 -46 122 C-47.66614608 121.95834635 -49.33385392 121.95834635 -51 122 C-57.00265311 115.99734689 -55.24116307 106.29287383 -55.25305176 98.4994812 C-55.20435525 50.8864672 -55.20435525 50.8864672 -44 35 C-42.55762052 32.77377659 -41.12020217 30.54490819 -39.6875 28.3125 C-39.29723633 27.70889648 -38.90697266 27.10529297 -38.50488281 26.48339844 C-36.63478886 23.58437115 -34.80636125 20.67624216 -33.03515625 17.71484375 C-32.44605469 16.73644531 -31.85695313 15.75804687 -31.25 14.75 C-30.73953125 13.87859375 -30.2290625 13.0071875 -29.703125 12.109375 C-27.63999484 9.55412205 -26.16883443 8.79706878 -23 8 C-21.015625 8.40234375 -21.015625 8.40234375 -19 9 C-17.245868 8.91760895 -15.49388075 8.76901219 -13.75 8.5625 C-12.85796875 8.46066406 -11.9659375 8.35882813 -11.046875 8.25390625 C-10.37140625 8.17011719 -9.6959375 8.08632813 -9 8 C-8.80857422 7.07960938 -8.80857422 7.07960938 -8.61328125 6.140625 C-7.24060768 1.34938221 -4.78955588 0 0 0 Z " fill="#DAE4EE" transform="translate(55,250)"/>
<path d="M0 0 C3.30698173 3.32037032 5.7258685 6.8112006 7.9296875 10.9375 C8.55037109 12.06671875 8.55037109 12.06671875 9.18359375 13.21875 C14.33721477 24.56749036 13.47922506 39.3652393 9.8671875 51.0625 C3.84876748 66.53119191 -5.76134755 77.21818295 -20.77734375 84.1953125 C-32.50387532 88.78325782 -45.40658395 88.37346776 -57.19921875 84.20703125 C-61.57030823 82.27423658 -65.30397861 79.86005237 -69.0703125 76.9375 C-70.1015625 76.195 -71.1328125 75.4525 -72.1953125 74.6875 C-80.93631576 66.32654036 -86.49173474 55.51183266 -87.30859375 43.40625 C-87.56726619 29.57408162 -84.97778742 16.49256985 -75.2578125 5.9765625 C-55.35099268 -12.40513806 -21.89764877 -18.6089909 0 0 Z " fill="#D9E4EE" transform="translate(500.0703125,351.0625)"/>
<path d="M0 0 C13.21043352 3.87202362 24.440875 10.22975225 35 19 C35.64324219 19.52851563 36.28648437 20.05703125 36.94921875 20.6015625 C63.95405008 45.15140916 71.69843738 92.37130414 81.1875 125.8125 C81.46766968 126.79667908 81.74783936 127.78085815 82.03649902 128.79486084 C87.70749238 148.79003736 87.70749238 148.79003736 89 158 C88.05125 157.95875 87.1025 157.9175 86.125 157.875 C82.89755144 157.65026182 82.89755144 157.65026182 81 160 C80.32059533 162.42715206 80.32059533 162.42715206 79.875 165.125 C79.62363281 166.49011719 79.62363281 166.49011719 79.3671875 167.8828125 C79.24601563 168.58148438 79.12484375 169.28015625 79 170 C75.00405767 166.28037283 72.15378728 162.41508174 69.25 157.8125 C65.01760938 151.30404481 60.42111056 145.57731205 55 140 C54.23945313 139.16597656 53.47890625 138.33195313 52.6953125 137.47265625 C44.12703085 128.38387151 34.07743931 121.30849088 24 114 C22.42292541 112.84669824 20.84609329 111.69306482 19.26953125 110.5390625 C9.63803256 103.51321159 -0.08258713 96.61706627 -10 90 C-10.70640625 89.52739746 -11.4128125 89.05479492 -12.140625 88.56787109 C-32.18198427 75.26470819 -53.10125865 64.45147849 -76 57 C-76 56.67 -76 56.34 -76 56 C-35.55443777 53.34783198 20.29664236 82.05172912 50 108 C52.4869133 110.28489326 54.9130824 112.62356847 57.3125 115 C57.88250732 115.56436768 58.45251465 116.12873535 59.03979492 116.71020508 C63 120.74291663 63 120.74291663 63 123 C63.66 123 64.32 123 65 123 C62.91814506 112.53257294 60.7452302 102.63684282 56 93 C55.70528809 92.39961914 55.41057617 91.79923828 55.10693359 91.18066406 C49.80379446 80.49965611 43.64638054 70.39865221 37.3125 60.3046875 C34.20313497 55.34665707 31.18261518 50.34014195 28.1875 45.3125 C23.73454807 37.85600902 19.22814377 30.43327458 14.68203735 23.03329468 C13.65568576 21.36245462 12.63091888 19.69064144 11.60620117 18.01879883 C7.85737785 11.92784453 4.02195592 5.91447515 0 0 Z " fill="#D03F3E" transform="translate(294,124)"/>
<path d="M0 0 C1.55800922 3.11601844 0.11067735 5.25312067 -0.9375 8.5 C-4.71858168 21.06677169 -3.33237895 33.07058127 2.75 44.8125 C9.87329869 56.74229635 19.74707835 64.27238306 33.1875 68 C43.06395889 69.99880716 50.72972193 69.17048087 60.25 65.875 C63 65 63 65 66 65 C65.0228096 71.62657241 58.69504968 76.78771574 53.75390625 80.84375 C42.06999671 89.00790782 29.97731199 91.14886305 16 90 C7.55039224 88.43525782 0.75492057 85.24159824 -6 80 C-7.03125 79.2575 -8.0625 78.515 -9.125 77.75 C-17.86600326 69.38904036 -23.42142224 58.57433266 -24.23828125 46.46875 C-24.49608651 32.68295269 -21.97782458 19.29693757 -12.046875 8.96875 C-8.28817409 5.58304994 -4.28557203 2.67848252 0 0 Z " fill="#CBD6E0" transform="translate(437,348)"/>
<path d="M0 0 C6.7174808 2.21400116 11.82873411 7.13951422 17.203125 11.56689453 C18.82415468 12.8597538 20.51836495 14.05953865 22.21875 15.24609375 C30.21438976 21.27506405 31.88841076 27.28030264 33.234375 36.7578125 C33.49328405 38.83808442 33.74807703 40.9188705 34 43 C34.26448945 45.0096208 34.52904848 47.01923287 34.79515076 49.02864075 C37.03648927 66.06631835 39.2240737 83.09868697 39.0625 100.3125 C39.05798828 101.25544922 39.05347656 102.19839844 39.04882812 103.16992188 C39.03727094 105.4466879 39.02098783 107.72330489 39 110 C37.31553582 106.91287623 36.35192654 103.93272947 35.4765625 100.53125 C35.18434814 99.42160889 34.89213379 98.31196777 34.59106445 97.16870117 C34.27226318 95.95802979 33.95346191 94.7473584 33.625 93.5 C24.9880845 61.41746083 13.64984895 30.28560235 0 0 Z " fill="#D03F3E" transform="translate(360,91)"/>
</svg>
