<?xml version="1.0" encoding="UTF-8"?>
<svg version="1.1" xmlns="http://www.w3.org/2000/svg" width="512" height="512">
<path d="M0 0 C5.88053566 0.12573949 11.72840657 0.01033933 17.60653305 -0.16751289 C53.10779252 -1.086759 53.10779252 -1.086759 62.24475098 6.31134033 C69.33352505 13.16843157 74.03216023 22.15548498 77.18212891 31.42407227 C77.18212891 32.08407227 77.18212891 32.74407227 77.18212891 33.42407227 C78.0111407 33.59603701 78.0111407 33.59603701 78.85690022 33.77147579 C84.18957495 34.91190065 89.35695529 36.31139222 94.54418945 37.98681641 C95.716763 38.36058914 95.716763 38.36058914 96.9130249 38.74191284 C105.00062085 41.32801044 113.07040017 43.96981987 121.13842773 46.61621094 C124.95936374 47.86751734 128.78538089 49.10096522 132.61694336 50.31933594 C137.26627675 51.79792062 141.90449084 53.30738908 146.5365696 54.83913994 C148.29481182 55.41485179 150.05662681 55.97977501 151.82196617 56.53334236 C167.30872696 61.40508766 167.30872696 61.40508766 171.13208008 67.03417969 C171.86202006 68.47480246 172.5532667 69.93654457 173.18212891 71.42407227 C173.70758301 72.31771484 174.23303711 73.21135742 174.77441406 74.13208008 C175.16935059 74.87296875 175.56428711 75.61385742 175.97119141 76.37719727 C176.43122559 77.23224854 176.89125977 78.0872998 177.36523438 78.96826172 C178.07897217 80.30763794 178.07897217 80.30763794 178.80712891 81.67407227 C182.80085429 89.08198994 186.86070861 96.44149393 191.05712891 103.73657227 C195.48464308 111.43697723 199.85205486 119.16844169 204.18212891 126.92407227 C208.47670546 134.61339258 212.79985407 142.28438459 217.18212891 149.92407227 C221.56440483 157.56376184 225.88739485 165.23483859 230.18212891 172.92407227 C234.58151746 180.80044565 239.01167118 188.65745579 243.49462891 196.48657227 C243.98020264 197.33791748 244.46577637 198.1892627 244.96606445 199.06640625 C247.27263278 203.10770862 249.59704545 207.13618948 251.96337891 211.14282227 C252.39223389 211.87879639 252.82108887 212.61477051 253.26293945 213.37304688 C254.05904978 214.73913748 254.86459928 216.09978999 255.68139648 217.45361328 C258.24233384 221.88159111 258.24233384 221.88159111 257.95417786 224.4780426 C256.60659306 227.87477021 253.29738025 229.37993379 250.31884766 231.26391602 C249.59566849 231.73481659 248.87248932 232.20571716 248.12739563 232.69088745 C245.71492996 234.25854399 243.29231034 235.80975951 240.86962891 237.36157227 C239.180647 238.45558684 237.49251027 239.5509072 235.80517578 240.64746094 C232.19058542 242.99558628 228.57270755 245.33853366 224.953125 247.67895508 C215.9686042 253.49841969 207.04151903 259.4053459 198.10903931 265.30422974 C195.2172729 267.21337025 192.32432476 269.12070524 189.4309082 271.02734375 C188.52374557 271.62515656 187.61658295 272.22296936 186.68193054 272.83889771 C184.98785885 273.95526613 183.2937779 275.0716205 181.59968567 276.18795776 C180.84056381 276.68844635 180.08144196 277.18893494 179.29931641 277.70458984 C178.59258789 278.1691861 177.88585937 278.63378235 177.15771484 279.11245728 C175.88790313 279.95550037 174.62485024 280.80886305 173.37060547 281.67489624 C169.38132467 284.42407227 169.38132467 284.42407227 167.18212891 284.42407227 C167.18212891 357.35407227 167.18212891 430.28407227 167.18212891 505.42407227 C61.58212891 505.42407227 -44.01787109 505.42407227 -152.81787109 505.42407227 C-152.81787109 432.49407227 -152.81787109 359.56407227 -152.81787109 284.42407227 C-154.46787109 283.76407227 -156.11787109 283.10407227 -157.81787109 282.42407227 C-160.22761122 280.92337778 -162.58078159 279.39623078 -164.92724609 277.80297852 C-165.95486053 277.11388649 -165.95486053 277.11388649 -167.00323486 276.41087341 C-169.19441205 274.94046186 -171.3813239 273.46385791 -173.56787109 271.98657227 C-176.41540162 270.06907933 -179.26471019 268.15424527 -182.11474609 266.24047852 C-183.19224876 265.51627968 -183.19224876 265.51627968 -184.29151917 264.77745056 C-189.2305384 261.46574163 -194.20490253 258.21364023 -199.20458984 254.99438477 C-208.4980141 249.01020269 -217.69119595 242.87920903 -226.88037109 236.73657227 C-228.53719857 235.63034229 -230.19409931 234.52422203 -231.85107422 233.41821289 C-235.84084724 230.75475598 -239.82964318 228.08984218 -243.81787109 225.42407227 C-243.22648543 221.55472032 -242.07556332 218.70851562 -240.14990234 215.31079102 C-239.31531494 213.82832886 -239.31531494 213.82832886 -238.46386719 212.31591797 C-237.85881348 211.25848389 -237.25375977 210.2010498 -236.63037109 209.11157227 C-236.00469238 208.00579834 -235.37901367 206.90002441 -234.734375 205.76074219 C-229.87880831 197.20670845 -224.91360389 188.71748408 -219.93041992 180.23730469 C-215.58211727 172.81009477 -211.43923634 165.28800541 -207.35644531 157.71240234 C-203.64874444 150.86548203 -199.7676292 144.13386333 -195.81787109 137.42407227 C-190.81234328 128.91693187 -185.98615077 120.33565986 -181.29101562 111.65380859 C-176.60754123 103.00206634 -171.80526682 94.42183312 -166.91552734 85.88500977 C-164.9212582 82.40010582 -162.99419706 78.89233366 -161.12646484 75.33813477 C-160.70252441 74.55672119 -160.27858398 73.77530762 -159.84179688 72.97021484 C-159.06755689 71.54266111 -158.31484722 70.10307917 -157.59082031 68.64941406 C-152.15818042 58.84055006 -135.94898187 56.69769077 -125.88427734 53.34594727 C-124.1569337 52.7688684 -122.42963443 52.19165668 -120.70237732 51.61431885 C-117.10328587 50.41214824 -113.50343903 49.21227324 -109.90307617 48.01391602 C-105.28562728 46.47671014 -100.67050479 44.93264398 -96.05595493 43.38676071 C-92.49945956 42.19636207 -88.94159426 41.01010223 -85.38331413 39.82505035 C-83.67996321 39.25709549 -81.97708507 38.68772066 -80.27469063 38.11690521 C-77.90450324 37.32274487 -75.53249004 36.53429918 -73.15991211 35.74731445 C-72.10562012 35.39206192 -72.10562012 35.39206192 -71.0300293 35.02963257 C-68.16099904 34.08367357 -65.86177336 33.42407227 -62.81787109 33.42407227 C-61.76675927 30.83620648 -60.75780883 28.25189882 -59.83761597 25.61408997 C-49.25793518 -2.38258098 -26.49893395 -0.58038498 0 0 Z " fill="#D84861" transform="translate(248.81787109375,1.575927734375)"/>
<path d="M0 0 C2.90864241 1.37046414 5.44732785 3.05245722 8 5 C6 11 6 11 -2 24 C22.255 24.495 22.255 24.495 47 25 C47.33 32.26 47.66 39.52 48 47 C51.5737382 51.50789674 53.04641733 53.0817262 57.6875 55.75 C58.64052002 56.38156006 59.59354004 57.01312012 60.57543945 57.66381836 C62.47650896 58.91906002 64.39658824 60.14605911 66.3359375 61.34130859 C69.92185713 63.5739642 73.29180452 66.05499984 76.6875 68.5625 C77.68136719 69.26503906 78.67523438 69.96757812 79.69921875 70.69140625 C80.19956131 71.06873901 80.69990387 71.44607178 81.21540833 71.83483887 C83.04429277 73.11105856 83.04429277 73.11105856 85.48320007 74.0020752 C88.85180082 75.63953208 90.69437234 77.01641779 93 80 C94.86743958 86.87451378 94.01470452 94.42709038 93.7578125 101.46484375 C93.7166982 103.58468177 93.6800491 105.70461071 93.64767456 107.82460022 C93.55070575 113.39112331 93.39327464 118.95434152 93.2230835 124.51904297 C93.0600062 130.20269769 92.95431536 135.88738986 92.84375 141.57226562 C92.61856235 152.71660319 92.32946592 163.85829177 92 175 C93.86398438 174.97873047 93.86398438 174.97873047 95.765625 174.95703125 C99.84557529 174.9104758 103.17432929 175.4550176 107 177 C111.79765389 182.05016199 112.39224165 185.56459979 112.359375 192.3515625 C111.5700721 200.36470282 108.85769117 208.93357505 105 216 C105.90621094 215.45730469 106.81242187 214.91460937 107.74609375 214.35546875 C126.54103374 203.24607659 126.54103374 203.24607659 138 205 C142.41884299 207.16925019 145.05081082 209.45189192 147 214 C147.42046396 217.36371168 147.20553341 219.46047479 146 222.625 C140.50724731 229.14764382 131.96129509 230.03438298 124 231.25 C122.93910156 231.42273438 121.87820313 231.59546875 120.78515625 231.7734375 C118.19173885 232.19399167 115.59703622 232.60252054 113 233 C113.74765625 233.97839844 114.4953125 234.95679688 115.265625 235.96484375 C128.83745741 253.92830545 128.83745741 253.92830545 128.31640625 264.76953125 C127.87443149 267.8851805 127.12337417 269.66428842 125 272 C120.96640431 274.59942833 117.76247365 275.95249473 113 275 C104.88413437 270.50205037 101.7385728 262.47335418 99 254 C98.37301719 250.91076019 98.1089811 248.160452 98 245 C97.34 245 96.68 245 96 245 C95.92652344 245.88751953 95.92652344 245.88751953 95.8515625 246.79296875 C95.77679688 247.58316406 95.70203125 248.37335938 95.625 249.1875 C95.52058594 250.35345703 95.52058594 250.35345703 95.4140625 251.54296875 C95 254 95 254 93.99152565 256.17228222 C92.7495356 259.71429582 92.71147309 262.99512812 92.7215271 266.70051575 C92.7157347 267.46841216 92.7099423 268.23630858 92.70397437 269.02747458 C92.68699179 271.59624001 92.68409938 274.16482558 92.68115234 276.73364258 C92.67185296 278.57672566 92.66168428 280.41980454 92.65071106 282.26287842 C92.62339812 287.26448 92.60825778 292.2660534 92.59528303 297.26770997 C92.57965819 302.4954567 92.5528659 307.72314583 92.5272522 312.95085144 C92.48045299 322.84942613 92.44371438 332.74801165 92.41057932 342.64664048 C92.36522149 356.02324651 92.30434483 369.39978129 92.24433136 382.77632809 C92.1501908 403.85084969 92.07680398 424.92539158 92 446 C40.85 446 -10.3 446 -63 446 C-63 373.07 -63 300.14 -63 225 C-64.65 224.34 -66.3 223.68 -68 223 C-70.40974013 221.49930551 -72.7629105 219.97215851 -75.109375 218.37890625 C-75.79445129 217.91951157 -76.47952759 217.46011688 -77.18536377 216.98680115 C-79.37654096 215.51638959 -81.56345281 214.03978564 -83.75 212.5625 C-86.59753053 210.64500707 -89.44683909 208.73017301 -92.296875 206.81640625 C-93.37437767 206.09220741 -93.37437767 206.09220741 -94.47364807 205.3533783 C-99.41266731 202.04166936 -104.38703143 198.78956797 -109.38671875 195.5703125 C-118.680143 189.58613043 -127.87332486 183.45513677 -137.0625 177.3125 C-138.71932748 176.20627003 -140.37622822 175.10014976 -142.03320312 173.99414062 C-146.02297615 171.33068372 -150.01177208 168.66576991 -154 166 C-153.40861433 162.13064806 -152.25769222 159.28444336 -150.33203125 155.88671875 C-149.49744385 154.40425659 -149.49744385 154.40425659 -148.64599609 152.8918457 C-148.04094238 151.83441162 -147.43588867 150.77697754 -146.8125 149.6875 C-146.18682129 148.58172607 -145.56114258 147.47595215 -144.91650391 146.33666992 C-140.06093722 137.78263618 -135.0957328 129.29341182 -130.11254883 120.81323242 C-125.76424618 113.38602251 -121.62136525 105.86393314 -117.53857422 98.28833008 C-113.83087335 91.44140976 -109.94975811 84.70979107 -106 78 C-100.99447218 69.49285961 -96.16827968 60.9115876 -91.47314453 52.22973633 C-86.79052682 43.57957662 -81.98874877 35.00105063 -77.1015625 26.46484375 C-75.09905562 22.96508357 -73.15913211 19.4428552 -71.2734375 15.87890625 C-70.84498535 15.09298096 -70.4165332 14.30705566 -69.97509766 13.49731445 C-69.18938077 12.05599841 -68.4239969 10.60330013 -67.68505859 9.13745117 C-65.04435363 4.38885712 -62.30377231 2.82287612 -57.16186523 1.18774414 C-54.46013126 0.95311586 -53.44952971 1.57778526 -51.3125 3.1875 C-47.3721075 7.2555904 -44.61979324 12.0124636 -42 17 C-41.63003906 17.68707031 -41.26007813 18.37414062 -40.87890625 19.08203125 C-37.18555592 26.59807104 -34 36.60024763 -34 45 C-33.34 45 -32.68 45 -32 45 C-31.87044922 43.94425781 -31.87044922 43.94425781 -31.73828125 42.8671875 C-29.62597055 28.02287559 -24.73647793 11.96482127 -12.734375 2.2421875 C-8.70825705 -0.64138346 -4.82042351 -0.71809796 0 0 Z " fill="#D84861" transform="translate(159,61)"/>
<path d="M0 0 C5.88055641 0.12573994 11.72845846 0.01025343 17.60660934 -0.16739082 C54.46929163 -1.12320351 54.46929163 -1.12320351 63.87355614 7.80533504 C70.10039105 14.7305378 73.74044468 22.8649764 77.18212891 31.42407227 C79.74870259 36.84838639 82.48391615 42.1408669 85.60009766 47.27172852 C86.51553345 48.78669922 86.51553345 48.78669922 87.44946289 50.33227539 C88.08311768 51.37319336 88.71677246 52.41411133 89.36962891 53.48657227 C90.69827084 55.68547875 92.02639362 57.88469901 93.35400391 60.08422852 C94.00175781 61.15560059 94.64951172 62.22697266 95.31689453 63.33081055 C97.94058302 67.68187509 100.53798371 72.04795636 103.11962891 76.42407227 C103.74744263 77.4818689 103.74744263 77.4818689 104.38793945 78.56103516 C107.18212891 83.30544252 107.18212891 83.30544252 107.18212891 84.42407227 C90.68212891 84.42407227 74.18212891 84.42407227 57.18212891 84.42407227 C57.18212891 91.68407227 57.18212891 98.94407227 57.18212891 106.42407227 C48.45031995 114.80660886 48.45031995 114.80660886 44.40869141 117.18188477 C39.10839135 120.42239019 34.19938958 124.05886012 29.24462891 127.79907227 C27.66887571 128.95855252 26.09082374 130.11491656 24.51025391 131.26782227 C23.40520508 132.07413086 23.40520508 132.07413086 22.27783203 132.89672852 C21.58625 133.40075195 20.89466797 133.90477539 20.18212891 134.42407227 C19.555 134.88168945 18.92787109 135.33930664 18.28173828 135.81079102 C15.25248331 138.02068522 12.21992637 140.22593568 9.18212891 142.42407227 C8.03865042 139.06225688 8.31920653 137.20647085 9.52709961 133.89819336 C10.01160835 132.54643761 10.01160835 132.54643761 10.50590515 131.16737366 C11.05139763 129.69729103 11.05139763 129.69729103 11.60791016 128.19750977 C12.17001945 126.64301369 12.17001945 126.64301369 12.7434845 125.05711365 C13.98385808 121.63403734 15.23921147 118.21665673 16.49462891 114.79907227 C17.35554812 112.43186162 18.21539937 110.06426233 19.07421875 107.69628906 C20.86238595 102.76931377 22.6559515 97.84435118 24.453125 92.9206543 C27.13153114 85.57441112 29.78043499 78.21779494 32.42041016 70.85766602 C33.04218895 69.12483368 33.04218895 69.12483368 33.67652893 67.35699463 C34.49011243 65.08936436 35.30361611 62.82170546 36.11703491 60.55401611 C38.01392604 55.2663415 39.91246731 49.9792721 41.81494141 44.69360352 C42.14323441 43.77840439 42.4715274 42.86320526 42.80976868 41.92027283 C43.10941025 41.08855057 43.40905182 40.25682831 43.71777344 39.39990234 C43.978013 38.67595779 44.23825256 37.95201324 44.50637817 37.20613098 C45.18212891 35.42407227 45.18212891 35.42407227 46.18212891 33.42407227 C20.44212891 33.42407227 -5.29787109 33.42407227 -31.81787109 33.42407227 C-28.84787109 41.34407227 -25.87787109 49.26407227 -22.81787109 57.42407227 C-20.89968491 62.75176771 -18.99338964 68.08130234 -17.11865234 73.42407227 C-16.63047699 74.80884587 -16.1420407 76.19352751 -15.65336609 77.578125 C-14.39617071 81.14170287 -13.14147242 84.70615329 -11.88769531 88.27093506 C-9.87660915 93.98862417 -7.86304998 99.70543827 -5.84667587 105.42126465 C-5.12829442 107.45921895 -4.411677 109.497788 -3.69509888 111.53637695 C-1.77189823 116.99578936 0.16273713 122.44608414 2.25878906 127.84204102 C2.55179398 128.59670654 2.84479889 129.35137207 3.14668274 130.12890625 C3.87404674 131.97688372 4.61851273 133.8181075 5.36499023 135.65844727 C6.19691152 138.47410438 6.25135083 139.73285006 5.18212891 142.42407227 C4.51963135 141.91191162 4.51963135 141.91191162 3.84375 141.3894043 C-6.54549175 133.34120073 -6.54549175 133.34120073 -17.16064453 125.59643555 C-18.27225613 124.81005386 -19.37707079 124.0139815 -20.47509766 123.20874023 C-24.39191394 120.3473197 -28.41532787 117.84420761 -32.64355469 115.46411133 C-36.35642709 112.85706474 -39.53007488 109.55017358 -42.81787109 106.42407227 C-42.81787109 99.16407227 -42.81787109 91.90407227 -42.81787109 84.42407227 C-59.31787109 84.42407227 -75.81787109 84.42407227 -92.81787109 84.42407227 C-86.81787109 73.42407227 -86.81787109 73.42407227 -84.38037109 69.42407227 C-83.86474609 68.43407227 -83.34912109 67.44407227 -82.81787109 66.42407227 C-83.53999888 63.24203218 -83.53999888 63.24203218 -86.31787109 61.73657227 C-90.7139541 60.08804114 -94.18799106 59.48866357 -98.81787109 60.42407227 C-108.56635454 64.95205638 -112.85077294 75.62335322 -116.64990234 85.04125977 C-118.83808427 91.37893718 -120.33392633 97.89139922 -121.81787109 104.42407227 C-122.47787109 104.42407227 -123.13787109 104.42407227 -123.81787109 104.42407227 C-123.96297119 103.86123535 -124.10807129 103.29839844 -124.25756836 102.71850586 C-128.44332504 86.7157727 -132.74556686 72.30798634 -144.81787109 60.42407227 C-136.31083655 56.84396104 -127.60317699 53.91579493 -118.85302734 51.00219727 C-117.32746605 50.49237871 -115.80194904 49.98242764 -114.276474 49.47235107 C-111.10108743 48.41141806 -107.92494879 47.35277466 -104.74829102 46.2956543 C-100.67564729 44.94005159 -96.60533696 43.57758335 -92.53559208 42.21330643 C-89.39600493 41.16187638 -86.25504849 40.11458706 -83.11367607 39.06850433 C-81.61128327 38.56753561 -80.10936266 38.06514849 -78.60792732 37.56131744 C-76.51793459 36.86055295 -74.42612368 36.16551168 -72.33374023 35.47192383 C-71.14478653 35.07539612 -69.95583282 34.67886841 -68.73085022 34.27032471 C-65.81787109 33.42407227 -65.81787109 33.42407227 -62.81787109 33.42407227 C-61.76675927 30.83620648 -60.75780883 28.25189882 -59.83761597 25.61408997 C-49.25793518 -2.38258098 -26.49893395 -0.58038498 0 0 Z " fill="#E06F83" transform="translate(248.81787109375,1.575927734375)"/>
<path d="M0 0 C2.90864241 1.37046414 5.44732785 3.05245722 8 5 C6.62398197 9.7653677 4.5302637 13.72661907 1.875 17.875 C-0.043125 20.906875 -0.043125 20.906875 -2 24 C2.95 24.33 7.9 24.66 13 25 C9.52270334 40.06828554 -0.18095819 53.18095819 -11 64 C-9.9958606 64.06731323 -9.9958606 64.06731323 -8.97143555 64.13598633 C-5.87588154 64.35007037 -2.78181346 64.58120052 0.3125 64.8125 C1.8912793 64.91788086 1.8912793 64.91788086 3.50195312 65.02539062 C15.1989477 65.92515944 30.33311195 68.33311195 39 77 C42.06107808 80.69440458 42.58138868 83.9871092 42.41796875 88.65625 C41.46762442 93.9852836 38.31949208 97.77705613 34.4375 101.375 C28.00961485 105.66025677 22.65483699 105.75653543 15 105 C2.72937582 102.31707773 -8.12396338 96.0559549 -19 90 C-18.33703408 92.783206 -17.54293121 95.4781224 -16.625 98.1875 C-16.23054688 99.35925781 -16.23054688 99.35925781 -15.828125 100.5546875 C-15.55484375 101.36164063 -15.2815625 102.16859375 -15 103 C-14.45690003 104.60368198 -13.9151847 106.20783369 -13.375 107.8125 C-13.13523437 108.52019531 -12.89546875 109.22789062 -12.6484375 109.95703125 C-10.99397241 115.16959294 -10.78338288 119.86691797 -10.75 125.3125 C-10.729375 126.14201172 -10.70875 126.97152344 -10.6875 127.82617188 C-10.64435078 134.65992984 -11.82404826 139.34050342 -16.25 144.75 C-23.35498185 150.56316697 -30.03917092 150.80857914 -39 150 C-44.5543918 148.85357353 -48.45292135 146.45918459 -52 142 C-54.79144173 136.58012043 -55.54753155 132.18839961 -55.5 126.125 C-55.49645508 125.3007251 -55.49291016 124.4764502 -55.48925781 123.62719727 C-55.1685645 111.47687141 -50.85243427 100.03318854 -46 89 C-46.54785156 89.35191406 -47.09570312 89.70382813 -47.66015625 90.06640625 C-61.86418822 98.91216925 -76.85668739 106.62941793 -94 105 C-99.99687772 103.14641961 -103.96265337 98.52768483 -107.05297852 93.17675781 C-109.08552569 88.50488603 -108.88808373 83.31578048 -107.07666016 78.59228516 C-105.75435737 76.09137431 -104.32009821 73.70623663 -102.8125 71.3125 C-101.70071558 69.46029965 -100.59007786 67.6074106 -99.48046875 65.75390625 C-98.90345215 64.80531738 -98.32643555 63.85672852 -97.73193359 62.87939453 C-94.93206129 58.22451803 -92.28285963 53.48691281 -89.625 48.75 C-88.54303801 46.83589835 -87.46100569 44.92183645 -86.37890625 43.0078125 C-83.99671324 38.78168014 -81.63256027 34.5459101 -79.27734375 30.3046875 C-78.65714355 29.1899707 -78.03694336 28.07525391 -77.39794922 26.92675781 C-76.21007831 24.78991741 -75.02530001 22.65135364 -73.84423828 20.51074219 C-64.11608084 3.02017611 -64.11608084 3.02017611 -59.0625 1.0625 C-56.62283026 0.71397575 -55.37339474 0.82155662 -53.14453125 1.88671875 C-48.01463091 5.83889363 -44.9665706 11.35227229 -42 17 C-41.63003906 17.68707031 -41.26007813 18.37414062 -40.87890625 19.08203125 C-37.18555592 26.59807104 -34 36.60024763 -34 45 C-33.34 45 -32.68 45 -32 45 C-31.87044922 43.94425781 -31.87044922 43.94425781 -31.73828125 42.8671875 C-29.62597055 28.02287559 -24.73647793 11.96482127 -12.734375 2.2421875 C-8.70825705 -0.64138346 -4.82042351 -0.71809796 0 0 Z " fill="#FEC76E" transform="translate(159,61)"/>
<path d="M0 0 C0.47339966 24.77458232 -1.30383241 49.53010176 -6 73.875 C-6.16612793 74.75075684 -6.33225586 75.62651367 -6.50341797 76.52880859 C-6.66729004 77.34172363 -6.83116211 78.15463867 -7 78.9921875 C-7.2165625 80.08055908 -7.2165625 80.08055908 -7.4375 81.19091797 C-8 83 -8 83 -10 85 C-10.55236328 84.71801758 -11.10472656 84.43603516 -11.67382812 84.14550781 C-23.24515476 78.29273655 -34.22552843 73.42118697 -47 71 C-46.07403296 80.63005723 -41.52526377 88.6517349 -37 97 C-36.62359375 97.69528809 -36.2471875 98.39057617 -35.859375 99.10693359 C-34.72862556 101.18110369 -33.58673215 103.24851751 -32.4375 105.3125 C-32.0664917 105.97983154 -31.6954834 106.64716309 -31.31323242 107.3347168 C-28.53251352 112.25201261 -25.40341429 116.82127103 -21.921875 121.27734375 C-20.01696309 126.90329121 -23.71492793 132.56167566 -26.19921875 137.61328125 C-27.01953904 139.18447585 -27.84923238 140.75080694 -28.6875 142.3125 C-29.12666748 143.1377417 -29.56583496 143.9629834 -30.01831055 144.81323242 C-34.86233868 153.78849323 -40.20455402 162.35512327 -47 170 C-51.19536453 168.53034074 -54.89601669 166.41189668 -58.73925781 164.21630859 C-70.45167008 157.54223383 -82.33330129 151.07588905 -96 150 C-96.66 150.33 -97.32 150.66 -98 151 C-98.23393326 135.62292552 -98.41010401 120.24593323 -98.51812172 104.86747742 C-98.56961769 97.72631232 -98.63977853 90.58625477 -98.75439453 83.44580078 C-98.85428517 77.21973603 -98.91863183 70.99447345 -98.94088495 64.76762962 C-98.95388888 61.47199635 -98.98957886 58.17918348 -99.05730057 54.88415527 C-99.13002616 51.1987368 -99.13988669 47.51805302 -99.13525391 43.83203125 C-99.18918304 42.20606773 -99.18918304 42.20606773 -99.24420166 40.54725647 C-99.18090865 35.88645656 -99.00690402 33.11807888 -95.81443405 29.57312012 C-93.29066031 27.52987666 -90.74426269 25.732087 -88 24 C-87.4051713 23.58413132 -86.8103426 23.16826263 -86.19748878 22.73979187 C-79.02648009 17.75686779 -67.87695778 10.30977287 -58.83203125 9.90234375 C-55.74487781 11.75200285 -54.68979638 14.9623547 -53.25 18.125 C-52.55381684 19.58286033 -51.85585335 21.03987162 -51.15625 22.49609375 C-50.80175781 23.2422998 -50.44726562 23.98850586 -50.08203125 24.75732422 C-48.38411389 28.27651845 -46.57967551 31.73539658 -44.75 35.1875 C-44.43321289 35.79803223 -44.11642578 36.40856445 -43.79003906 37.03759766 C-40.25622277 43.99281854 -40.25622277 43.99281854 -34 48 C-33.54847465 36.17672512 -34.7727135 25.03265174 -36.63623047 13.37109375 C-37.16537894 9.92204012 -37.58695958 6.46472743 -38 3 C-25.31412105 1.19274477 -12.83101794 -0.08586875 0 0 Z " fill="#FEC86E" transform="translate(194,326)"/>
<path d="M0 0 C6.24775699 3.96541311 11.03904285 9.8002639 13 17 C14.10437856 25.23188119 13.69837889 33.63487964 13.5859375 41.91796875 C13.57473352 44.34604337 13.56619902 46.77413164 13.56021118 49.20222473 C13.53740803 55.56306034 13.47855704 61.9230613 13.4119873 68.28356934 C13.35038144 74.78593661 13.32315708 81.28844002 13.29296875 87.79101562 C13.22880618 100.52776765 13.12334956 113.26368353 13 126 C-0.86 126 -14.72 126 -29 126 C-27.22393728 122.44787457 -25.6012512 120.1764076 -23 117.25 C-22.29875 116.45078125 -21.5975 115.6515625 -20.875 114.828125 C-19 113 -19 113 -17 113 C-17 112.34 -17 111.68 -17 111 C-17.82757813 111.04640625 -18.65515625 111.0928125 -19.5078125 111.140625 C-40.95769621 111.7892176 -68.6093954 107.3499617 -84.890625 92.24609375 C-89.91435393 86.79559173 -92.63215801 80.87248162 -92.3515625 73.3984375 C-91.30040272 66.22719187 -88.15403698 60.03132181 -83 55 C-78.33699979 52.13783541 -74.31313547 51.48444199 -68.9375 51.5625 C-68.18799072 51.57152344 -67.43848145 51.58054687 -66.66625977 51.58984375 C-48.07823753 52.16025935 -29.169729 63.88684733 -14 74 C-14.556875 73.1028125 -15.11375 72.205625 -15.6875 71.28125 C-26.99780732 52.87330057 -38.83209115 33.40137672 -36 11 C-34.12453704 5.10691683 -30.27230828 1.90689357 -24.97265625 -1.03515625 C-15.89167999 -5.47674266 -8.59616444 -4.949777 0 0 Z " fill="#FEC86E" transform="translate(403,381)"/>
<path d="M0 0 C0.33 0 0.66 0 1 0 C1.14695312 0.97839844 1.14695312 0.97839844 1.296875 1.9765625 C2.48411579 8.91578025 4.20324271 13.47609708 9.5625 18.3125 C15.11202442 22.15447844 21.51068029 21.63146589 28 21 C32.06935032 20.00570573 35.96686268 18.56669305 39.8828125 17.09375 C43 16 43 16 46 16 C46 57.58 46 99.16 46 142 C41.49876004 140.19950402 37.85622694 138.07155482 33.890625 135.37890625 C33.20554871 134.91951157 32.52047241 134.46011688 31.81463623 133.98680115 C29.62345904 132.51638959 27.43654719 131.03978564 25.25 129.5625 C22.40246947 127.64500707 19.55316091 125.73017301 16.703125 123.81640625 C15.98478989 123.33360703 15.26645477 122.8508078 14.52635193 122.3533783 C9.58733269 119.04166936 4.61296857 115.78956797 -0.38671875 112.5703125 C-9.680143 106.58613043 -18.87332486 100.45513677 -28.0625 94.3125 C-29.71932748 93.20627003 -31.37622822 92.10014976 -33.03320312 90.99414062 C-37.02297615 88.33068372 -41.01177208 85.66576991 -45 83 C-44.40861433 79.13064806 -43.25769222 76.28444336 -41.33203125 72.88671875 C-40.49744385 71.40425659 -40.49744385 71.40425659 -39.64599609 69.8918457 C-39.04094238 68.83441162 -38.43588867 67.77697754 -37.8125 66.6875 C-37.18682129 65.58172607 -36.56114258 64.47595215 -35.91650391 63.33666992 C-31.0680688 54.79519986 -26.11033852 46.3183391 -21.13452148 37.85058594 C-16.07967125 29.21613912 -11.27153045 20.45837061 -6.5234375 11.65234375 C-4.40880003 7.73188568 -2.22909832 3.85644475 0 0 Z " fill="#D84860" transform="translate(50,144)"/>
<path d="M0 0 C3.10184215 2.23042664 4.29085036 4.34333788 6.08398438 7.70874023 C6.39964355 8.29153244 6.71530273 8.87432465 7.04052734 9.47477722 C8.06540825 11.37225336 9.07242894 13.27862949 10.08007812 15.18530273 C10.78874074 16.50245865 11.49895959 17.81877841 12.21069336 19.13427734 C13.28699689 21.12364985 14.36255501 23.11336637 15.43348694 25.1056366 C18.55743808 30.91432277 21.79184147 36.65549496 25.08007812 42.37280273 C25.56323486 43.21609131 26.0463916 44.05937988 26.54418945 44.92822266 C28.61185466 48.52922884 30.69406847 52.12056684 32.81054688 55.69311523 C33.45636719 56.78366211 34.1021875 57.87420898 34.76757812 58.99780273 C35.30898438 59.89885742 35.85039062 60.79991211 36.40820312 61.72827148 C37.51757812 63.81030273 37.51757812 63.81030273 37.51757812 65.81030273 C35.27416232 67.35132655 33.05110431 68.75365477 30.70507812 70.12280273 C29.68426147 70.72185425 29.68426147 70.72185425 28.64282227 71.33300781 C13.34796593 80.19227442 13.34796593 80.19227442 8.72851562 79.22827148 C4.6749376 77.43818776 0.97676037 75.25166265 -2.79492188 72.93530273 C-13.93347506 66.04797307 -13.93347506 66.04797307 -26.48242188 62.81030273 C-23.93507685 71.96576043 -20.6659223 80.28990688 -16.48242188 88.81030273 C-36.00629372 93.74888752 -54.51517786 94.06219422 -74.48242188 93.81030273 C-74.66693213 80.14244966 -74.66693213 80.14244966 -73.48242188 73.99780273 C-73.29679687 73.00135742 -73.11117188 72.00491211 -72.91992188 70.97827148 C-72.77554687 70.2628418 -72.63117188 69.54741211 -72.48242188 68.81030273 C-66.73242188 68.68530273 -66.73242188 68.68530273 -64.48242188 69.81030273 C-57.17724412 70.85389956 -49.84710227 70.938508 -42.48242188 70.81030273 C-47.28190174 65.17785529 -53.16539383 63.0053969 -59.88476562 60.20483398 C-60.71621094 59.83745117 -61.54765625 59.47006836 -62.40429688 59.09155273 C-63.16323242 58.77250977 -63.92216797 58.4534668 -64.70410156 58.12475586 C-66.48242188 56.81030273 -66.48242188 56.81030273 -67.33666992 54.41088867 C-67.4940867 51.60217262 -67.18824727 50.37807842 -65.89257812 47.91967773 C-65.52422852 47.21375488 -65.15587891 46.50783203 -64.77636719 45.78051758 C-64.36999023 45.04784668 -63.96361328 44.31517578 -63.54492188 43.56030273 C-63.13467773 42.8082959 -62.72443359 42.05628906 -62.30175781 41.28149414 C-55.47545587 29.11869518 -55.47545587 29.11869518 -50.48242188 25.81030273 C-46.70513227 26.25511482 -43.69709501 27.51882288 -40.31445312 29.20874023 C-39.33798828 29.68827148 -38.36152344 30.16780273 -37.35546875 30.66186523 C-35.33387309 31.66814769 -33.31302428 32.67593211 -31.29296875 33.68530273 C-23.32722166 37.59243639 -15.41375872 41.34612338 -6.35742188 40.99780273 C-5.42671875 40.97073242 -4.49601562 40.94366211 -3.53710938 40.91577148 C-2.8590625 40.8809668 -2.18101562 40.84616211 -1.48242188 40.81030273 C-3.21782021 27.57789046 -13.02472537 18.47349162 -22.48242188 9.81030273 C-23.47242188 9.15030273 -24.46242188 8.49030273 -25.48242188 7.81030273 C-25.48242188 7.15030273 -25.48242188 6.49030273 -25.48242188 5.81030273 C-22.97197976 4.43302537 -20.45204639 3.08413981 -17.91992188 1.74780273 C-17.21544922 1.35786133 -16.51097656 0.96791992 -15.78515625 0.56616211 C-10.06391894 -2.41309971 -6.04184638 -2.89554656 0 0 Z " fill="#FEC66E" transform="translate(415.482421875,64.189697265625)"/>
<path d="M0 0 C25.74 0 51.48 0 78 0 C74.62439462 11.25201794 74.62439462 11.25201794 72.72265625 16.62597656 C72.08553711 18.43162079 72.08553711 18.43162079 71.43554688 20.27374268 C70.97796261 21.56273825 70.5202774 22.851698 70.0625 24.140625 C69.57731405 25.51172321 69.09229182 26.88287936 68.60742188 28.25408936 C67.59021721 31.12907855 66.57137067 34.0034787 65.55126953 36.87744141 C64.27920963 40.46150285 63.01066674 44.04679566 61.74333191 47.63253021 C60.49737898 51.15670875 59.24913299 54.68007251 58 58.203125 C57.63087997 59.24441811 57.63087997 59.24441811 57.25430298 60.30674744 C54.48198018 68.11984806 51.67459358 75.91840909 48.796875 83.69335938 C48.53878052 84.39168758 48.28068604 85.09001579 48.01477051 85.80950546 C46.78380508 89.13782939 45.54717289 92.46385999 44.30078125 95.78643799 C43.86636719 96.9561615 43.43195313 98.12588501 42.984375 99.33105469 C42.59991211 100.35737 42.21544922 101.3836853 41.81933594 102.44110107 C40.84752971 105.02837388 40.84752971 105.02837388 41 108 C41.99 107.67 42.98 107.34 44 107 C44 138.02 44 169.04 44 201 C40.7 201 37.4 201 34 201 C34 169.98 34 138.96 34 107 C34.99 107.33 35.98 107.66 37 108 C36.38428731 104.61794066 35.55365674 101.4622809 34.41210938 98.22119141 C33.92305367 96.82518204 33.92305367 96.82518204 33.42411804 95.40097046 C33.06759659 94.39466583 32.71107513 93.38836121 32.34375 92.3515625 C31.96906082 91.2862027 31.59437164 90.2208429 31.20832825 89.12319946 C29.97575066 85.62254338 28.73798893 82.12374568 27.5 78.625 C26.64727129 76.2067439 25.79465194 73.78844924 24.94213867 71.37011719 C18.43009619 52.92455822 11.80252345 34.52149198 5.08203125 16.15087891 C4.73782639 15.2065097 4.39362152 14.2621405 4.03898621 13.28915405 C3.39758975 11.52955507 2.75362552 9.77088916 2.10664368 8.01333618 C0 2.22544181 0 2.22544181 0 0 Z " fill="#C22945" transform="translate(217,35)"/>
<path d="M0 0 C4.79765389 5.05016199 5.39224165 8.56459979 5.359375 15.3515625 C4.5700721 23.36470282 1.85769117 31.93357505 -2 39 C-1.09378906 38.45730469 -0.18757813 37.91460937 0.74609375 37.35546875 C19.54103374 26.24607659 19.54103374 26.24607659 31 28 C35.41884299 30.16925019 38.05081082 32.45189192 40 37 C40.42046396 40.36371168 40.20553341 42.46047479 39 45.625 C33.50724731 52.14764382 24.96129509 53.03438298 17 54.25 C15.93910156 54.42273438 14.87820313 54.59546875 13.78515625 54.7734375 C11.19173885 55.19399167 8.59703622 55.60252054 6 56 C6.74765625 56.97839844 7.4953125 57.95679688 8.265625 58.96484375 C21.83745741 76.92830545 21.83745741 76.92830545 21.31640625 87.76953125 C20.87443149 90.8851805 20.12337417 92.66428842 18 95 C13.96640431 97.59942833 10.76247365 98.95249473 6 98 C-2.11586563 93.50205037 -5.2614272 85.47335418 -8 77 C-8.62698281 73.91076019 -8.8910189 71.160452 -9 68 C-9.66 68 -10.32 68 -11 68 C-11.04125 69.19625 -11.0825 70.3925 -11.125 71.625 C-12.03237446 79.68913079 -15.46523172 88.62878751 -20.8125 94.8125 C-24.86745425 97.59531174 -28.09643488 98.53509387 -33 98 C-37.14034205 95.96746845 -39.27476268 94.23186014 -41 90 C-42.59061711 81.55749381 -39.37462728 75.05242943 -35 68 C-32.16722665 63.86990887 -29.12331441 59.91455405 -26 56 C-26.55872803 55.93006836 -27.11745605 55.86013672 -27.69311523 55.78808594 C-30.27664298 55.456379 -32.85684206 55.1033152 -35.4375 54.75 C-36.31599609 54.64042969 -37.19449219 54.53085937 -38.09960938 54.41796875 C-45.8812876 53.32681092 -53.87953037 51.40058704 -59 45 C-60.43304064 42.13391871 -60.30644155 40.18699217 -60 37 C-57.71578529 32.68537221 -55.57599407 29.83039763 -51 28 C-39.59821955 26.55215486 -28.49884512 32.09463333 -19 38 C-19.34933594 36.96359375 -19.69867188 35.9271875 -20.05859375 34.859375 C-20.51830932 33.48961023 -20.9779403 32.11981707 -21.4375 30.75 C-21.66759766 30.06808594 -21.89769531 29.38617188 -22.13476562 28.68359375 C-24.91005612 20.39794385 -27.23908527 11.72695779 -23.3125 3.4375 C-16.70966062 -3.52224962 -8.71097223 -3.58687092 0 0 Z " fill="#FEC76E" transform="translate(266,238)"/>
<path d="M0 0 C23.1 0 46.2 0 70 0 C70.4021875 14.6025 70.4021875 14.6025 70.8125 29.5 C70.93085205 32.55958984 71.0492041 35.61917969 71.17114258 38.77148438 C71.59552678 57.2118193 71.59552678 57.2118193 68.85931396 61.99334717 C65.55552432 65.391996 61.40887112 66.60208739 57 68 C55.0730693 69.10637474 53.17424712 70.26370444 51.3125 71.4765625 C49.54284253 72.52802322 47.77202594 73.57753578 46 74.625 C44.64841797 75.45451172 44.64841797 75.45451172 43.26953125 76.30078125 C42.39683594 76.81253906 41.52414062 77.32429688 40.625 77.8515625 C39.85414063 78.31385254 39.08328125 78.77614258 38.2890625 79.25244141 C36 80 36 80 33.60180664 79.3449707 C30.62765521 77.80752112 27.67411593 76.25320574 24.74609375 74.62890625 C24.16336197 74.30591049 23.58063019 73.98291473 22.98023987 73.65013123 C21.75497636 72.96995601 20.53053686 72.28829454 19.30688477 71.60522461 C17.44205453 70.56504047 15.57378329 69.53125001 13.70507812 68.49804688 C12.51020474 67.83371437 11.31553625 67.16901317 10.12109375 66.50390625 C8.50352173 65.60393921 8.50352173 65.60393921 6.85327148 64.68579102 C5.91169189 64.12947998 4.9701123 63.57316895 4 63 C3.29051712 62.59085358 2.58103424 62.18170715 1.85005188 61.76016235 C0 60 0 60 -0.48101807 57.36140442 C-0.47213562 56.3021727 -0.46325317 55.24294098 -0.45410156 54.15161133 C-0.45361816 52.93380981 -0.45313477 51.7160083 -0.45263672 50.46130371 C-0.43217285 49.1811438 -0.41170898 47.90098389 -0.390625 46.58203125 C-0.38659668 45.4055603 -0.38256836 44.22908936 -0.37841797 43.01696777 C-0.35746381 38.61532025 -0.30161855 34.21389473 -0.25 29.8125 C-0.1675 19.974375 -0.085 10.13625 0 0 Z " fill="#E06F83" transform="translate(301,189)"/>
<path d="M0 0 C4.87054133 4.59946991 8.25219618 10.06848904 11.9375 15.625 C12.64068359 16.66785156 13.34386719 17.71070313 14.06835938 18.78515625 C17.67769329 24.20423116 20.91055209 29.58906864 23.72338867 35.45800781 C26.25125622 40.49150503 29.26043553 45.25414997 32.1875 50.0625 C33.51614194 52.26140648 34.84426471 54.46062674 36.171875 56.66015625 C36.81962891 57.73152832 37.46738281 58.80290039 38.13476562 59.90673828 C40.75845411 64.25780282 43.3558548 68.62388409 45.9375 73 C46.35604248 73.70519775 46.77458496 74.41039551 47.20581055 75.13696289 C50 79.88137026 50 79.88137026 50 81 C33.5 81 17 81 0 81 C0 88.26 0 95.52 0 103 C-8.73180895 111.38253659 -8.73180895 111.38253659 -12.7734375 113.7578125 C-18.07373756 116.99831793 -22.98273933 120.63478786 -27.9375 124.375 C-29.51325319 125.53448025 -31.09130516 126.69084429 -32.671875 127.84375 C-33.40857422 128.38128906 -34.14527344 128.91882813 -34.90429688 129.47265625 C-35.94166992 130.22869141 -35.94166992 130.22869141 -37 131 C-37.62712891 131.45761719 -38.25425781 131.91523438 -38.90039062 132.38671875 C-41.9296456 134.59661295 -44.96220254 136.80186341 -48 139 C-49.12380676 135.67327037 -48.88418046 133.84215948 -47.68676758 130.56933594 C-47.37009628 129.68717407 -47.05342499 128.80501221 -46.72715759 127.89611816 C-46.19125755 126.4548053 -46.19125755 126.4548053 -45.64453125 124.984375 C-45.27562271 123.96549194 -44.90671417 122.94660889 -44.52662659 121.89685059 C-43.29834774 118.51092802 -42.05528086 115.13062366 -40.8125 111.75 C-39.95080292 109.38161489 -39.09030723 107.01279236 -38.23095703 104.64355469 C-36.88298417 100.9283827 -35.53446199 97.21342496 -34.18084717 93.50030518 C-29.61097172 80.96242312 -25.12556394 68.39501627 -20.64804077 55.82385254 C-17.49512695 46.97256568 -14.3351491 38.12380742 -11.17077637 29.27661133 C-10.35784025 27.00147514 -9.54616211 24.72588922 -8.73547363 22.44995117 C-7.48506048 18.93967365 -6.23112385 15.43067175 -4.9765625 11.921875 C-4.59180756 10.83900208 -4.20705261 9.75612915 -3.81063843 8.64044189 C-3.45627716 7.65146912 -3.10191589 6.66249634 -2.73681641 5.64355469 C-2.42467194 4.76850281 -2.11252747 3.89345093 -1.79092407 2.99188232 C-1 1 -1 1 0 0 Z " fill="#E06F83" transform="translate(306,5)"/>
<path d="M0 0 C2.66405246 3.55206994 4.53400267 6.94565953 6.37890625 10.9296875 C6.70295944 11.61954742 7.02701263 12.30940735 7.36088562 13.02017212 C8.43226215 15.30318547 9.49731165 17.58909374 10.5625 19.875 C11.31752631 21.48656601 12.07306943 23.09788998 12.82910156 24.70898438 C14.01213649 27.23020026 15.19481161 29.75157863 16.37582397 32.27374268 C19.88247156 39.76126091 23.42346451 47.2321909 26.97143555 54.70019531 C29.59251578 60.21780202 32.1992886 65.7421466 34.80693054 71.26611328 C36.88522676 75.66246037 38.98366908 80.04832975 41.1026001 84.42523193 C42.36817677 87.04452908 43.62177207 89.66944198 44.8729248 92.2956543 C45.72750431 94.07807997 46.59840815 95.85264999 47.46972656 97.62695312 C47.96956055 98.68076172 48.46939453 99.73457031 48.984375 100.8203125 C49.42491211 101.73055176 49.86544922 102.64079102 50.31933594 103.57861328 C51 106 51 106 50.30421448 107.95855713 C48.7488135 110.39317375 47.22546677 111.50107282 44.81323242 113.08447266 C43.94860886 113.65831696 43.08398529 114.23216125 42.19316101 114.82339478 C41.25672256 115.43081512 40.32028412 116.03823547 39.35546875 116.6640625 C38.39353104 117.29734467 37.43159332 117.93062683 36.44050598 118.58309937 C34.40489046 119.92050531 32.36628664 121.25337227 30.32495117 122.58203125 C27.20371493 124.61444156 24.09243114 126.66139929 20.98242188 128.7109375 C19.00317543 130.00868418 17.02337567 131.30558744 15.04296875 132.6015625 C14.112603 133.21303131 13.18223724 133.82450012 12.22367859 134.45449829 C11.34959854 135.02203827 10.47551849 135.58957825 9.57495117 136.17431641 C8.81043137 136.67299225 8.04591156 137.17166809 7.25822449 137.68545532 C5 139 5 139 0 141 C0 94.47 0 47.94 0 0 Z " fill="#C22945" transform="translate(416,145)"/>
<path d="M0 0 C0 41.58 0 83.16 0 126 C-5.62493134 123.75002746 -5.62493134 123.75002746 -8.40649414 121.88037109 C-9.028069 121.46588715 -9.64964386 121.0514032 -10.29005432 120.62435913 C-10.94843796 120.17855499 -11.60682159 119.73275085 -12.28515625 119.2734375 C-12.98209091 118.8069278 -13.67902557 118.34041809 -14.39707947 117.85977173 C-16.62182681 116.36917658 -18.84222345 114.87224423 -21.0625 113.375 C-22.52770701 112.39149822 -23.99319932 111.40842132 -25.45898438 110.42578125 C-27.61224848 108.98225325 -29.76451151 107.53737158 -31.91323853 106.08709717 C-35.15679336 103.89848608 -38.40730866 101.72644838 -41.69873047 99.61035156 C-43.33092529 98.55412598 -43.33092529 98.55412598 -44.99609375 97.4765625 C-45.94540771 96.87150879 -46.89472168 96.26645508 -47.87280273 95.64306641 C-50 94 -50 94 -51 91 C-50.09521253 88.6299019 -49.12638215 86.43770593 -48.01171875 84.16796875 C-47.68173386 83.47605942 -47.35174896 82.78415009 -47.01176453 82.0712738 C-45.91277072 79.77219878 -44.80013084 77.48000243 -43.6875 75.1875 C-42.91713862 73.58234463 -42.14778539 71.97670506 -41.37939453 70.37060547 C-39.75915254 66.98612781 -38.13416299 63.60398564 -36.50634766 60.22314453 C-34.01629221 55.04371774 -31.55682724 49.85017711 -29.10546875 44.65234375 C-28.70754623 43.80905014 -28.30962372 42.96575653 -27.89964294 42.09690857 C-26.3502298 38.812942 -24.80116587 35.5288109 -23.25253296 32.24447632 C-21.1738925 27.83952489 -19.07964794 23.44255215 -16.9720459 19.0513916 C-16.00442366 17.00933563 -15.06720967 14.95533869 -14.13378906 12.89746094 C-13.5401952 11.62672802 -12.94614378 10.3562087 -12.3515625 9.0859375 C-11.84705566 7.98040527 -11.34254883 6.87487305 -10.82275391 5.73583984 C-8.08067633 1.62015255 -4.92885779 0 0 0 Z " fill="#C22945" transform="translate(96,160)"/>
<path d="M0 0 C33 0 66 0 100 0 C93 21 93 21 89 30 C63.26 30 37.52 30 11 30 C6.90344992 20.16827981 3.36815149 10.10445446 0 0 Z " fill="#D84861" transform="translate(206,5)"/>
<path d="M0 0 C0.66 0 1.32 0 2 0 C2.20496094 0.75925781 2.40992188 1.51851563 2.62109375 2.30078125 C2.89050781 3.29464844 3.15992188 4.28851563 3.4375 5.3125 C3.83775391 6.79169922 3.83775391 6.79169922 4.24609375 8.30078125 C4.78079425 10.21517526 5.37144538 12.11433615 6 14 C6.09337012 16.49618041 6.13036847 18.96395306 6.12025452 21.46000671 C6.12110894 22.22619428 6.12196337 22.99238185 6.12284368 23.78178722 C6.12449468 26.35674564 6.1189833 28.93163934 6.11352539 31.5065918 C6.11324341 33.34937539 6.11340146 35.1921591 6.1139679 37.03494263 C6.11425545 42.04494557 6.10836547 47.0549247 6.10139394 52.06492209 C6.09515344 57.29798497 6.09455605 62.53104836 6.09336853 67.76411438 C6.09025727 77.676949 6.08204664 87.58977263 6.07201904 97.5026024 C6.06085154 108.78661541 6.05534584 120.07062893 6.05032361 131.35464609 C6.03986387 154.56977016 6.02226839 177.78488446 6 201 C2.7 201 -0.6 201 -4 201 C-4.07013627 176.79095686 -4.12301084 152.58192898 -4.15543652 128.37280464 C-4.17089368 117.13163986 -4.19196126 105.89053828 -4.22631836 94.64941406 C-4.25625588 84.84962479 -4.27558336 75.0498813 -4.28226548 65.25004756 C-4.28617035 60.06295343 -4.29532346 54.87599024 -4.31719017 49.68893814 C-4.33762405 44.80195913 -4.34381986 39.91516442 -4.33932304 35.02814674 C-4.34014516 33.23917322 -4.34606954 31.45019324 -4.35761642 29.66125679 C-4.41286331 20.65669413 -4.26838362 12.52288753 -1 4 C-0.64886999 2.67124246 -0.31003092 1.33894351 0 0 Z " fill="#C22945" transform="translate(255,306)"/>
<path d="M0 0 C-2.0607768 3.50101726 -4.12393692 7.00062442 -6.1875 10.5 C-6.76564453 11.48226562 -7.34378906 12.46453125 -7.93945312 13.4765625 C-11.21842842 19.03414774 -14.55202924 24.54558298 -18 30 C-20.36837888 29.07896377 -22.67296948 28.17825844 -24.90625 26.9609375 C-28.59593953 25.26753522 -32.03963895 25.28230689 -36 26 C-45.74960711 30.49437424 -50.04131122 41.2201275 -53.83203125 50.6171875 C-56.02021318 56.95486492 -57.51605523 63.46732696 -59 70 C-59.66 70 -60.32 70 -61 70 C-61.1451001 69.43716309 -61.2902002 68.87432617 -61.43969727 68.29443359 C-65.62545394 52.29170043 -69.92769577 37.88391407 -82 26 C-73.48863361 22.42453452 -64.78252428 19.473724 -56.03515625 16.54296875 C-55.28682463 16.29163996 -54.538493 16.04031116 -53.76748466 15.78136635 C-49.82286687 14.45657886 -45.87714944 13.13513293 -41.93041992 11.81665039 C-37.85670988 10.45506043 -33.78684258 9.08233409 -29.71772099 7.70710278 C-26.5791031 6.64851238 -23.43784929 5.59792629 -20.29580498 4.54955482 C-18.79287532 4.04655954 -17.29094732 3.54056103 -15.79005623 3.03151512 C-13.70138474 2.32396581 -11.60925484 1.62778123 -9.51586914 0.93432617 C-8.32691544 0.53557785 -7.13796173 0.13682953 -5.91297913 -0.27400208 C-3 -1 -3 -1 0 0 Z " fill="#D84961" transform="translate(186,36)"/>
<path d="M0 0 C3.45354668 2.30236445 3.95591928 3.65617103 5.625 7.375 C10.2022766 16.84757738 16.72004033 24.83623465 23.78515625 32.57421875 C25 34 25 34 25 35 C24.30551758 35.04487549 23.61103516 35.08975098 22.89550781 35.13598633 C19.67948013 35.35026365 16.46485425 35.5813072 13.25 35.8125 C12.15816406 35.88275391 11.06632812 35.95300781 9.94140625 36.02539062 C-3.22004244 36.99887056 -15.42898884 39.73539128 -26 48 C-24.72556087 44.67957732 -23.30525446 41.55840492 -21.6015625 38.4375 C-21.12750977 37.56754395 -20.65345703 36.69758789 -20.16503906 35.80126953 C-19.65682617 34.87685059 -19.14861328 33.95243164 -18.625 33 C-18.10131836 32.04335449 -17.57763672 31.08670898 -17.03808594 30.10107422 C-11.48503534 19.9954482 -5.76393262 9.98649205 0 0 Z " fill="#D84961" transform="translate(80,91)"/>
<path d="M0 0 C8.43567555 11.03266706 13.76322381 25.368452 18.1875 38.4375 C18.47850586 39.28175537 18.76951172 40.12601074 19.06933594 40.99584961 C21.02659378 47.06517246 22.49102538 52.95312205 19.5625 58.9375 C18 61 18 61 17 62 C10.9963697 62.61261534 6.98106963 61.13750133 2 58 C0 56 0 56 -0.24050903 53.6335144 C-0.23606781 52.64312164 -0.23162659 51.65272888 -0.22705078 50.63232422 C-0.22689972 49.51131317 -0.22674866 48.39030212 -0.22659302 47.23532104 C-0.21627045 46.02071198 -0.20594788 44.80610291 -0.1953125 43.5546875 C-0.1924826 42.31453888 -0.18965271 41.07439026 -0.18673706 39.79666138 C-0.17742174 36.49875367 -0.1594489 33.20104028 -0.1373291 29.90319824 C-0.11687474 26.5383543 -0.10773623 23.17348193 -0.09765625 19.80859375 C-0.07556519 13.20565277 -0.04206483 6.60284229 0 0 Z " fill="#D84A61" transform="translate(96,372)"/>
<path d="M0 0 C3.13157313 4.17543084 6.15045939 8.42267161 9.15234375 12.69140625 C9.57386719 13.28566406 9.99539062 13.87992187 10.4296875 14.4921875 C10.80335449 15.02183105 11.17702148 15.55147461 11.56201172 16.09716797 C13.61055453 18.80792224 15.82481239 21.38977487 18 24 C12.06 24 6.12 24 0 24 C0 16.08 0 8.16 0 0 Z " fill="#FEC66E" transform="translate(96,483)"/>
</svg>
