<svg xmlns="http://www.w3.org/2000/svg" width="126" height="147" fill="none" viewBox="0 0 126 147">
  <g clip-path="url(#a)">
    <path fill="#2FA0A5" d="M0 80.635v-.037c.043 0 .043.037 0 .037Zm16.511-23.873c-.042.277-.042.554-.078.794-.042.037-.078.079-.078.12-.079.12-.12.277-.199.44.12-.44.24-.915.355-1.354Z"/>
    <path fill="#EFAE42" d="M123.167 138.635c-.042.319-38.402 9.65-64.046 8.213-15.08-.277-30.228-2.544-44.953-5.679 1.284-11.317.59-5.199 1.54-13.778.95-8.579 1.947-17.158 2.897-25.743.95-8.542 1.947-17.043 2.897-25.58.276-2.424.553-4.844.835-7.268.157-1.113.318-2.226.438-3.375.914-6.672 1.786-13.308 2.699-19.98.872-6.473 1.749-12.989 2.657-19.504.438-3.255.872-6.557 1.352-9.812a6.09 6.09 0 0 1 .156-.794c.517-2.864 1.034-5.68 1.545-8.543 3.096.397 6.233.596 9.365.794 3.137.157 6.232.277 9.327.277h.157c4.207.042 8.373 0 12.58-.12 4.207-.12 8.414-.319 12.621-.554 3.967-.24 7.976-.554 11.943-.914 2.38-.24 4.76-.476 7.062-.758a153.39 153.39 0 0 0 4.562-.554c.914 5.048 1.864 10.09 2.777 15.137 1.55 8.422 3.096 16.844 4.646 25.267 1.55 8.38 3.053 16.724 4.604 25.105 1.586 8.621 3.173 17.279 4.76 25.9 1.55 8.422 3.095 16.881 4.646 25.34.793 4.331 3.043 16.845 2.928 16.928l.005-.005Z"/>
    <path fill="#D1863D" d="M59.53 38.491a5.182 5.182 0 0 1-.198-.319c.157.157.318.32.438.476a.731.731 0 0 0-.24-.157Z"/>
    <path fill="#D1863D" d="M84.18 43.695c-.027 0-.027 0 0 0-.474-.042-.913-.042-1.388-.042a152.3 152.3 0 0 1-1.55-.12c-.517-.037-1.033-.12-1.545-.157-.438-.036-.872-.12-1.31-.162-.475-.078-.914-.157-1.389-.24a19.754 19.754 0 0 1-1.545-.319c-.475-.12-.913-.198-1.388-.319a.522.522 0 0 0-.24-.078c-.24-.12-.475-.198-.752-.319-.751-.318-1.467-.674-2.223-1.034-.079-.037-.157-.078-.24-.12-.476-.277-.95-.554-1.389-.836a70.746 70.746 0 0 1-2.26-1.51c-.674-.476-1.389-.956-2.062-1.468-.198-.162-.397-.356-.637-.518-.517-.475-1.07-.95-1.545-1.431a23.383 23.383 0 0 1-1.628-1.787c-.517-.596-.992-1.233-1.509-1.865 0 0 0 .036.042.036a27.63 27.63 0 0 1-.355-.475l.042.036c-.12-.156-.24-.318-.355-.439a75.677 75.677 0 0 1-1.947-2.9c-.355-.595-.752-1.154-1.112-1.75a7.114 7.114 0 0 1-.319-.992c-.078-.24-.156-.44-.198-.674-.24-.915-.475-1.787-.673-2.702-.12-.517-.24-1.034-.355-1.551-.042-.24-.12-.476-.157-.674-.041-.079-.041-.199-.078-.277-.042-.079-.12-.199-.198-.24a1.24 1.24 0 0 0-.157-.398c-.157-.24-.475-.24-.715-.12-.24.157-.24.476-.277.758-.041.198-.041.439-.078.632-.042.439-.078.836-.157 1.27a.816.816 0 0 0-.078.078c-.12.162-.12.397-.198.596a9.937 9.937 0 0 0-.12.517v.042c-.042 0-.042.036-.079.036-.438.356-.553.873-.751 1.348-.199.517-.397 1.071-.637 1.588-.397.873-.872 1.709-1.352 2.545-.355.554-.715 1.113-1.112 1.63-.397.517-.835.993-1.31 1.432-.198.198-.438.355-.637.554-1.07.757-2.223 1.468-3.335 2.147-.517.277-1.034.517-1.587.758-.715.277-1.467.475-2.224.674-.793.198-1.628.318-2.458.438-.595.037-1.148.079-1.749.037-.318-.037-.673-.037-.992-.078-.835-.12-1.628-.32-2.422-.518a15.13 15.13 0 0 1-1.466-.517c-.517-.24-.992-.475-1.509-.752a23.803 23.803 0 0 1-1.31-.873c.277-2.184.595-4.368.872-6.515.438-3.255.871-6.557 1.352-9.812.041-.277.078-.518.156-.795.517-2.857 1.034-5.679 1.545-8.542 3.096.397 6.233.596 9.365.794 3.137.157 6.232.277 9.327.277h.157c4.207.042 8.372 0 12.58-.12 4.207-.12 8.414-.319 12.62-.554 3.968-.24 7.977-.554 11.944-.914 2.38-.24 4.76-.476 7.062-.753 1.55-.162 3.054-.36 4.562-.554.914 5.048 1.864 10.09 2.777 15.137.95 5.282 1.942 10.606 2.897 15.888-.157.162-.277.32-.433.44-.319.276-.595.553-.914.872l-.036.036c-.078.079-.157.162-.277.24a3.17 3.17 0 0 1-.553.434l-.042.042c-.277.24-.553.476-.835.716-.042.042-.12.078-.162.12h-.036l.036-.036c-.355.276-.751.517-1.112.794-.433.319-.913.595-1.388.872l.036-.041c-.871.475-1.743.914-2.698 1.31h.042c-.475.2-.956.356-1.43.518-.356.12-.757.24-1.112.355-.24.079-.517.12-.757.199-.277.078-.595.157-.872.24-.433.079-.872.199-1.31.277-.355.079-.715.12-1.07.199-.12 0-.24.036-.355.036a20.07 20.07 0 0 1-1.587.079c-.595.036-1.19.036-1.827.036h-.438c-.277-.198-.716-.198-1.112-.198v.026Zm13.69-.595a.816.816 0 0 0 .078-.079c.162-.037.355-.12.517-.157v.037c-.042 0-.078.042-.12.042-.162.036-.355.12-.475.156-.025 0-.025 0 0 0Z"/>
    <path fill="#E6D2C3" d="M21.151 132.595c-3.173-1.944-2.223-7.346-1.946-10.528a14.657 14.657 0 0 1-3.033 1.244c.198-2.383.574-4.833.814-7.221 1.112-.434 1.827-.695 2.975-1.014-.595-4.253-1.111-8.777.24-12.91.397-.873 1.51-1.233 2.302-.638 2.224 1.829 2.302 7.388 2.7 10.168 1.466-1.667 3.293-3.099 5.396-3.893 1.07-.397 2.146-.872 3.294-.716 2.26.439 1.905 3.177.872 4.609-1.31 2.027-3.372 3.417-5.277 4.807 2.343 1.666 4.447 3.934 5.198 6.792.595 2.743-2.025 3.814-4.207 2.743-1.707-.758-3.173-1.986-4.447-3.339.12 2.383-.673 9.969-3.967 9.969a1.435 1.435 0 0 1-.914-.078v.005Z"/>
    <path fill="#F2E1D6" d="M74.87 117.151c2.303-.397 5.638 1.034 4.923 3.814-1.467 3.772-5.95 5.998-9.803 6.317 1.509 3.019 3.733 6.039 3.534 9.571 0 1.709-1.55 3.297-3.293 2.743-2.94-.992-5.32-5.559-6.744-8.223-2.459 2.737-4.96 6.275-8.811 6.949-2.146.276-3.45-1.552-2.459-3.496 1.269-2.659 2.975-5.282 5.476-6.949-2.897-1.233-6.071-2.346-8.253-4.687-1.748-1.865-1.467-4.566 1.232-5.203 3.93-.915 7.58 1.233 10.518 3.735-.198-2.701-.475-5.36-.517-8.062.042-2.382-.517-8.14 1.984-9.253.991-.439 2.103.037 2.818.794 2.699 3.297 2.579 9.969 2.182 14.102-.042.476-.078.915-.156 1.348l.041-.036c2.26-1.51 4.604-3.14 7.344-3.454l-.015-.01Zm33.507-14.478c2.344-.439 4.562 1.071 3.967 3.615-1.07 3.339-5.554 5.68-8.889 5.92 1.19 1.75 2.458 3.574 2.939 5.679.516 1.787.24 4.609-2.104 4.687-2.855-.037-5.157-4.368-6.269-6.636-1.232 2.623-3.69 8.857-7.302 7.906-4.046-1.631.553-9.457 2.458-11.521-2.855-.716-6.149-1.468-7.94-4.013-.95-1.39-.438-3.495 1.39-3.814 2.5-.355 6.785 1.709 8.967 2.978-.595-3.495-1.07-6.99-.637-10.528.475-4.728 4.682-3.85 5.596.157.835 3.177.955 6.594.475 9.854l2.145-1.787c1.467-1.233 3.215-2.262 5.199-2.503l.005.006Zm-51.115-5.115h.078-.12.042Zm7.14-30.508c.079 0 .12.037.199.037-.078-.037-.157-.037-.198-.037Zm12.46 6.913c1.55.277 2.699 1.865 2.224 3.417-.992 3.02-5.716 5.92-8.691 6.714 2.38 2.9 5.319 6.154 5.199 10.13-.24 2.461-2.777 3.255-4.724 2.028-2.459-1.51-4.009-4.17-5.32-6.672-1.43 3.056-4.921 10.804-9.128 9.613-4.087-2.184.95-9.373 2.818-11.834-3.492-.914-7.302-1.63-10.037-4.133-1.232-1.15-2.026-3.098-.992-4.608 1.388-1.907 4.604-.956 6.545-.596 2.579.638 5.043 1.787 7.141 3.38a63.269 63.269 0 0 1-.637-6.076c-.12-2.46-.156-5.083 1.112-7.267.438-.716 1.034-1.035 1.629-1.072.198-.198.475-.24.835-.036.078.078.198.198.276.319.716.36 1.31 1.07 1.629 1.907 1.268 2.863.992 6.118.793 9.138 0 .157-.041.277-.041.439.24-.277.475-.517.751-.794 1.31-1.39 2.777-2.66 4.562-3.417 1.232-.476 2.657-.836 4.046-.554l.01-.026Z"/>
    <path fill="#E6D2C3" d="M20.593 90.53c-.079-3.537 2.421-6.437 4.64-8.94-1.509.2-3.054.518-4.562.518.078-.758.198-1.51.276-2.304.157-1.348.319-2.738.475-4.091h.397c2.025-.079 3.967.439 5.914.872-.078-.674-.157-1.39-.24-2.063-.318-2.9-.752-5.842-.157-8.742.752-3.573 4.166-3.495 5.001 0 .637 2.305.673 4.729.553 7.07-.041.914-.12 1.787-.24 2.7 2.104-1.744 4.526-3.14 7.26-3.573.95-.12 1.984-.319 2.898.12 1.112.554 1.748 1.866 1.268 3.062-1.388 3.255-5.752 5.24-9.087 5.68 1.665 2.026 3.335 4.33 3.69 6.99.157 1.39-.12 3.297-1.629 3.85-2.656.795-5.992-4.132-6.942-6.238-1.232 3.062-3.335 8.062-7.104 8.303-1.629-.042-2.422-1.787-2.422-3.219l.01.005Z"/>
    <path fill="#F2E1D6" d="M61.112 53.189c.12 1.828-1.31 3.098-3.053 2.424-1.31-.517-2.224-1.667-3.137-2.701-.95-1.155-1.827-2.346-2.542-3.658-1.269 2.263-4.88 9.77-8.138 8.146-1.232-.794-.95-2.383-.715-3.616.439-2.382 1.467-4.608 2.897-6.552-2.657 0-5.475.44-8.054-.475-1.467-.476-2.38-2.304-1.389-3.657 1.509-1.907 6.113-1.907 8.373-1.787.673.036 1.983.24 3.137.637-.198-1.348-.276-2.743-.397-4.091-.12-2.424-.355-5.047.554-7.346.396-.873 1.586-1.312 2.422-.716 1.07.758 1.508 2.106 1.706 3.339.319 1.865.277 3.814.199 5.721-.042.397 0 .956-.042 1.432 1.629-1.944 3.372-3.815 5.794-4.609 4.129-.872 3.889 2.822 2.145 5.36-1.148 1.668-2.818 2.9-4.64 3.737a20.749 20.749 0 0 1 3.336 4.331c.715 1.233 1.55 2.581 1.55 4.091l-.006-.01Zm30.755 21.964c-1.545-1.034-1.112-3.934-1.268-5.6-.042-2.623.396-5.246.95-7.785-2.5.553-5.278.517-7.778 0-1.827-.44-4.008-1.787-3.768-3.935.553-2.821 4.087-3.218 6.467-3.297 1.905 0 3.81.476 5.554 1.192-1.154-3.736-1.827-7.665-1.749-11.6-.157-4.686 4.165-4.728 5.95-.992 1.666 3.297 1.984 7.032 2.146 10.648 0 .397.042.836.042 1.233.673-.758 1.743-1.431 2.182-1.787 1.983-1.311 4.248-2.701 6.629-3.098.24 1.27.396 2.503.636 3.772.121.794.241 1.552.397 2.346-1.587 1.552-3.768 2.503-5.992 2.581 1.942 2.545 5.079 5.403 4.839 8.856-.355 2.503-3.492 2.864-5.158 1.432-1.743-1.552-2.855-3.694-4.045-5.68-.318 2.623-1.43 11.918-5.12 11.918-.277 0-.596-.078-.914-.198v-.006Z"/>
    <path fill="#E4C5AE" d="M94.447 42.452c.329-.11.658-.225.986-.35-1.91-2.519-5.136-2.21-5.308 1.468a5.4 5.4 0 0 0 .277-.053c.438-.078.871-.198 1.31-.277.276-.078.595-.162.871-.24.24-.078.517-.12.757-.198.355-.12.757-.24 1.112-.356l-.005.006Z"/>
    <path fill="#EBA741" d="M62.726 128.75c-3.612-1.75-.95-7.153 2.657-5.361 3.45 1.787.835 7.033-2.657 5.361Zm33.591-17.456c-.042-3.893 5.794-4.013 5.95-.157.037 3.892-5.835 4.012-5.95.157ZM21.7 119.131c-.042-3.893 5.793-4.013 5.95-.157.078 3.893-5.794 4.049-5.95.157Zm41.8-34.243c-.041-3.893 5.794-4.013 5.95-.163.043 3.935-5.835 4.055-5.95.163Zm-36.52-3.773c-.041-3.892 5.795-4.012 5.951-.156.079 3.934-5.794 4.049-5.95.156Zm66.95-21.249c-.037-3.892 5.794-4.013 5.95-.162.079 3.934-5.793 4.05-5.95.162ZM48.25 45.043c-.041-3.892 5.794-4.013 5.95-.157.08 3.893-5.793 4.013-5.95.157Z"/>
    <path fill="#2FA0A5" d="M125.161 2.738c-.355-.079-.674-.199-.956-.476-.354-.036-.871 0-1.033-.439-.12-.318.078-.674.397-.794-.079 0-.162-.036-.162-.12h-.078c-.12 0-.199 0-.241-.12-.036 0-.036-.037-.036-.079-.024 0-.051-.012-.078-.036-.079.036-.157-.037-.157-.079a.187.187 0 0 1-.24-.036V.522c-.042 0-.042-.042-.042-.078 0-.037 0-.078.042-.12h.036s.042 0 .042.036c0 0 .037 0 .037.042 0 0 .036 0 .036.037 0 0 .042 0 .042.036 0 0 .037 0 .037.042 0 0 .036 0 .036.037.042.036.078.036.12.078.12.078.277.157.397.24.036.037.12.079.156.12l.042.037c.037.042.079.042.12.078.037 0 .037.037.079.037.198.12.36.24.553.355 0 0 .042 0 .042.042.036.037.12.078.156.078.042.037.12.037.162.037.157.078.355.078.517.078.162 0 .276-.041.438-.078h.079c.036 0 .078-.037.12-.078h.036c-.036.078-.036.198-.078.277l-.037-.042v.042c-.036.156-.078.355-.156.517a.672.672 0 0 1-.517.277c.08.052.106.078.078.078l.011.01Z"/>
    <path fill="#FDF2DF" d="M76.945 36.386c.037 0 .079 0 .079.036-.037-.036-.079-.036-.079-.036ZM39.25 30.388s-.043 0-.043.037l.042-.037Zm-8.344-.199s.043 0 .043.037a.038.038 0 0 1-.043-.037ZM54.484 12.79v.038c.043 0 0-.037 0-.037Zm70.044-6.792v.037c-.037-.037 0-.037 0-.037Z"/>
    <path fill="#E6D2C3" d="M122.308 6.515c.12.037.198-.156.078-.198h-.041c-.121-.037-.157.162-.037.198Zm3.45-5.125c.079.078.157.162.24.198a40.126 40.126 0 0 1-1.466 4.332v.036a34.987 34.987 0 0 1-2.261 4.567v.078a40.559 40.559 0 0 1-3.058 4.645 53.591 53.591 0 0 1-3.931 4.608l-.036.042a45.038 45.038 0 0 1-4.803 4.29c-.036.036-.078.036-.12.078a52.499 52.499 0 0 1-5.553 3.773c-1.906 1.112-3.847 2.105-5.873 2.941-1.941.794-3.93 1.51-5.95 2.07h-.12c-1.827.474-3.69.872-5.554 1.112-1.749.24-3.492.355-5.24.355h-.043a36.06 36.06 0 0 1-4.645-.319h-.078c-1.347-.198-2.657-.438-3.967-.794-.042 0-.079-.036-.12-.036a27.807 27.807 0 0 1-6.63-2.701c-.913-.518-1.785-1.113-2.62-1.709-.835-.632-1.587-1.311-2.344-2.027l-.041-.037a27.851 27.851 0 0 1-2.062-2.304l.042.042a29.678 29.678 0 0 1-1.786-2.623 37.62 37.62 0 0 1-1.43-2.821 27.825 27.825 0 0 1-1.033-3.02 29.97 29.97 0 0 1-.674-3.297v-.079a24.606 24.606 0 0 1-.24-3.417.79.79 0 0 0-.078-.276c0-.398-.042-.836-.042-1.234a282.4 282.4 0 0 0 8.415-.12c4.207-.12 8.414-.318 12.62-.554a396.23 396.23 0 0 0 11.944-.914c2.38-.24 4.76-.475 7.062-.757 3.372-.398 6.707-.836 10.043-1.348 2.735-.398 5.434-.873 8.132-1.39a238.6 238.6 0 0 0 5.241-1.113c.318-.079.637-.162.913-.24h.277a73.743 73.743 0 0 0 3.252-.873c.12-.037.277-.078.397-.12.041-.037.12-.037.24-.079.042 0 .078-.036.12-.036.276-.079.553-.199.835-.277.037-.037.078-.037.12-.037.318.199.595.397.872.638.036.036.198.157.438.355h.037a.65.65 0 0 1 .198.157c.078.042.198.162.355.24l.005-.005Z"/>
    <path fill="#FDF5F0" d="M52.423 7.905c-.079.836-.277 1.667-.397 2.461-.12.836-.277 1.63-.438 2.424-.12.554-.319 1.071-.517 1.589-.198.517-.355 1.034-.553 1.551v.042a50.65 50.65 0 0 1-1.112 2.66c-.439.914-.835 1.787-1.31 2.7-.277.518-.554.994-.872 1.51-.277.476-.553.952-.872 1.39-.396.554-.835 1.035-1.268 1.552a.838.838 0 0 0-.078.079.158.158 0 0 0-.042.078c-.397.434-.835.873-1.269 1.27-.438.397-.871.836-1.31 1.191a6.308 6.308 0 0 1-1.19.836c-.637.397-1.31.758-2.025 1.071-.475.199-.95.397-1.43.554-.24.078-.475.12-.715.162-.24.036-.475.036-.716.078h-.751c-.439 0-.835 0-1.269-.042-.041 0-.12-.036-.156-.036-.12-.037-.199-.037-.319-.037-.24-.078-.475-.162-.715-.24-.24-.078-.516-.157-.751-.24a8.361 8.361 0 0 1-1.389-.476c-.276-.12-.595-.24-.835-.397-.277-.162-.517-.319-.752-.439-.276-.162-.553-.319-.793-.475a6.525 6.525 0 0 1-.553-.476c-.199-.198-.397-.355-.637-.554-.319-.276-.595-.595-.872-.872-.318-.319-.637-.632-.913-.993-.277-.355-.554-.716-.872-1.034a18.125 18.125 0 0 1-1.31-1.745c-.198-.36-.397-.716-.595-1.035-.157-.355-.355-.674-.517-1.034-.277-.633-.475-1.348-.793-1.986-.277-.554-.595-1.155-.872-1.708v-.037c-.12-.24-.24-.475-.319-.716-.24-.595-.438-1.233-.636-1.828-.12-.356-.24-.716-.397-1.035A150.23 150.23 0 0 1 21.12 9.06c.397-1.035.835-2.106 1.232-3.14.078-.157.198-.277.318-.32.042-.077.042-.198.078-.276v-.042h.397c.042 0 .12.042.157.042 1.707.475 3.492.794 5.24 1.071.277.042.595.078.872.12h.078c3.69.518 7.381.794 11.113.993 3.137.162 6.233.277 9.328.277h.157c.751.12 1.545.12 2.343.12h-.01Z"/>
    <path fill="#E6D2C3" d="M50.084 7.785h-.157c-3.017 0-6.034-.115-9.087-.266.245 7.189.511 14.378.6 21.568.34-.204.663-.429.95-.685.439-.36.872-.794 1.31-1.191.439-.397.872-.836 1.269-1.27 0-.028.014-.054.041-.078a.816.816 0 0 0 .079-.078c.438-.518.871-.993 1.268-1.552.319-.44.595-.915.872-1.39.318-.517.595-.993.871-1.51.475-.914.872-1.787 1.31-2.701.397-.873.752-1.745 1.113-2.66v-.041c.198-.518.354-1.035.553-1.552.198-.518.396-1.035.517-1.589.156-.794.318-1.588.438-2.424.12-.794.318-1.63.397-2.46-.794 0-1.587 0-2.344-.121Z"/>
    <path fill="#F8D181" d="M54.872 146.723c-18.003-19.776-13.55-112.49-13.55-112.49-8.582 3.213-13.854-1.38-14.115-1.578-.585 4.264-1.159 8.527-1.733 12.77-.913 6.672-1.785 13.307-2.699 19.98a83.848 83.848 0 0 1-.438 3.375c-.277 2.424-.553 4.843-.835 7.267-.95 8.543-1.947 17.044-2.897 25.581-.95 8.579-1.947 17.158-2.897 25.743-.95 8.579-.256 2.466-1.54 13.777 8.962 1.907 18.42 3.485 27.56 4.703 3.879.517 13.091.867 13.139.867l.005.005Z"/>
    <path fill="#FDF5F0" d="M21.151 132.595c.277.121.554.162.914.079 3.294 0 4.087-7.587 3.967-9.969 1.268 1.348 2.74 2.581 4.447 3.338 2.182 1.072 4.802 0 4.207-2.743-.751-2.858-2.855-5.125-5.198-6.792 1.905-1.39 3.967-2.779 5.277-4.807 1.033-1.431 1.388-4.169-.872-4.608-1.148-.162-2.224.319-3.294.716-2.103.794-3.93 2.226-5.397 3.892-.397-2.779-.475-8.338-2.699-10.167-.793-.596-1.905-.24-2.302.637-1.351 4.133-.835 8.658-.24 12.911-1.028.282-1.993.632-2.975 1.013l-.814 7.221a16.096 16.096 0 0 0 3.033-1.243c-.277 3.176-1.232 8.579 1.947 10.528v-.006Zm-.557-42.065c0 1.432.793 3.177 2.422 3.219 3.768-.24 5.872-5.246 7.104-8.302.95 2.105 4.285 7.032 6.942 6.238 1.509-.554 1.785-2.46 1.629-3.85-.355-2.66-2.026-4.97-3.69-6.991 1.972-.262 4.3-1.066 6.17-2.351a998.74 998.74 0 0 1-.09-6.641c-.391.026-.783.089-1.158.13-2.74.44-5.158 1.83-7.261 3.574.12-.914.198-1.787.24-2.701.12-2.346.078-4.765-.553-7.07-.835-3.495-4.25-3.573-5 0-.596 2.9-.157 5.842.156 8.742.078.674.156 1.39.24 2.064-1.947-.434-3.889-.951-5.914-.873h-.277c-.01.11-.026.225-.036.334-.225 2.022-.46 4.04-.684 6.056 1.461-.02 2.954-.319 4.416-.512-2.224 2.503-4.724 5.403-4.64 8.94l-.016-.005Z"/>
    <path fill="#F8D181" d="M26.98 80.08c-.041-3.892 5.795-4.012 5.951-.161.042 3.934-5.835 4.054-5.95.162Zm-5.948 37.62c-.042-3.893 5.793-4.013 5.95-.162.042 3.934-5.836 4.054-5.95.162Z"/>
    <path fill="#FDF5F0" d="m41.095 47.29.078-5.878s-4.505.068-4.552 3.166c-.047 3.098 4.474 2.711 4.474 2.711Z"/>
  </g>
  <defs>
    <clipPath id="a">
      <path fill="#fff" d="M0 0h126v147H0z"/>
    </clipPath>
  </defs>
</svg>
